<svg xmlns="http://www.w3.org/2000/svg" xmlns:xlink="http://www.w3.org/1999/xlink" width="1080" zoomAndPan="magnify" viewBox="0 0 810 525.000007" height="700" preserveAspectRatio="xMidYMid meet" version="1.0"><defs><clipPath id="80f067af34"><path d="M 13.277344 299 L 99.773438 299 L 99.773438 410.335938 L 13.277344 410.335938 Z M 13.277344 299 " clip-rule="nonzero"/></clipPath><clipPath id="857a9e8018"><path d="M 33.9375 315.371094 C 38.914062 390.789062 31.199219 387.8125 31.199219 387.328125 C 31.199219 386.523438 45.964844 386.445312 51.273438 384.753906 C 55.089844 383.464844 57.578125 381.535156 60.480469 379.683594 C 63.300781 377.910156 66.453125 376.222656 68.527344 373.808594 C 70.597656 371.390625 71.925781 368.171875 73.085938 365.113281 C 74.25 362.054688 75.078125 358.675781 75.410156 355.453125 C 75.742188 352.234375 75.90625 348.855469 75.078125 345.714844 C 74.25 342.414062 72.339844 339.035156 70.433594 336.21875 C 68.441406 333.398438 66.121094 330.664062 63.464844 328.652344 C 60.8125 326.558594 58.40625 324.867188 54.507812 323.820312 C 48.203125 322.128906 33.191406 323.257812 28.378906 322.773438 C 26.554688 322.613281 25.726562 322.535156 24.480469 322.128906 C 23.320312 321.726562 22.074219 321.164062 20.996094 320.359375 C 20.003906 319.636719 19.089844 318.667969 18.34375 317.625 C 17.597656 316.578125 17.015625 315.371094 16.683594 314.160156 C 16.351562 312.953125 16.1875 311.585938 16.269531 310.378906 C 16.351562 309.089844 16.601562 307.804688 17.097656 306.597656 C 17.597656 305.46875 18.261719 304.261719 19.089844 303.375 C 20.003906 302.410156 20.996094 301.523438 22.160156 300.878906 C 23.238281 300.238281 24.480469 299.753906 25.808594 299.433594 C 27.054688 299.191406 28.464844 299.109375 29.707031 299.269531 C 31.035156 299.351562 32.363281 299.753906 33.523438 300.238281 C 34.683594 300.800781 35.84375 301.523438 36.757812 302.410156 C 37.667969 303.296875 38.5 304.34375 39.164062 305.46875 C 39.742188 306.597656 40.15625 307.804688 40.40625 309.089844 C 40.574219 310.296875 40.574219 311.667969 40.40625 312.875 C 40.15625 314.160156 39.742188 315.371094 39.164062 316.496094 C 38.5 317.625 37.667969 318.667969 36.757812 319.554688 C 35.84375 320.441406 34.683594 321.164062 33.523438 321.726562 C 32.363281 322.210938 30.953125 322.613281 29.707031 322.695312 C 28.378906 322.855469 27.054688 322.773438 25.808594 322.535156 C 24.480469 322.210938 23.238281 321.726562 22.160156 321.085938 C 20.996094 320.441406 20.003906 319.554688 19.089844 318.589844 C 18.261719 317.625 17.597656 316.496094 17.097656 315.371094 C 16.601562 314.160156 16.351562 312.875 16.269531 311.585938 C 16.1875 310.378906 16.351562 309.011719 16.683594 307.804688 C 17.015625 306.597656 17.597656 305.386719 18.34375 304.34375 C 19.089844 303.296875 20.003906 302.328125 20.996094 301.605469 C 22.074219 300.800781 23.320312 300.238281 24.480469 299.835938 C 25.726562 299.433594 26.472656 299.269531 28.378906 299.191406 C 33.355469 298.949219 48.867188 299.433594 55.75 300.476562 C 59.980469 301.121094 62.140625 301.523438 65.871094 302.972656 C 71.097656 305.066406 79.558594 308.929688 83.871094 312.632812 C 87.023438 315.371094 88.347656 317.945312 90.507812 321.566406 C 93.324219 326.476562 96.976562 334.605469 98.386719 339.917969 C 99.464844 343.703125 99.628906 346.601562 99.714844 350.0625 C 99.796875 353.601562 99.296875 357.546875 98.71875 361.089844 C 98.136719 364.390625 97.308594 367.527344 96.3125 370.667969 C 95.234375 373.808594 94.074219 376.945312 92.578125 379.925781 C 91.003906 382.902344 89.179688 385.878906 86.9375 388.457031 C 84.617188 391.03125 82.292969 392.964844 78.976562 395.296875 C 74.332031 398.597656 67.53125 403.105469 61.144531 405.441406 C 54.671875 407.855469 46.214844 408.980469 40.40625 409.546875 C 36.261719 410.027344 33.023438 410.671875 29.789062 409.707031 C 26.472656 408.742188 22.738281 406.726562 20.832031 403.992188 C 18.757812 400.933594 19.171875 397.390625 18.425781 391.757812 C 16.683594 379.039062 14.277344 343.058594 13.78125 329.695312 C 13.53125 323.257812 13.035156 319.152344 13.699219 315.371094 C 14.195312 312.792969 14.777344 310.539062 16.269531 308.847656 C 17.761719 307.238281 20.582031 306.03125 22.574219 305.628906 C 24.316406 305.386719 25.972656 305.710938 27.382812 306.191406 C 28.878906 306.757812 30.371094 307.5625 31.367188 308.929688 C 32.691406 310.460938 33.9375 315.371094 33.9375 315.371094 " clip-rule="nonzero"/></clipPath><clipPath id="05b79cee08"><path d="M 105.492188 299.625 L 178.695312 299.625 L 178.695312 410 L 105.492188 410 Z M 105.492188 299.625 " clip-rule="nonzero"/></clipPath><clipPath id="9df0899bb5"><path d="M 128.339844 309.949219 C 129.746094 386.539062 131.484375 392.410156 131.566406 395.636719 C 131.566406 396.960938 131.484375 397.375 131.234375 398.367188 C 130.738281 399.855469 129.582031 402.089844 128.671875 403.246094 C 128.007812 404.15625 127.429688 404.570312 126.519531 405.148438 C 125.28125 405.894531 122.882812 406.804688 121.390625 407.050781 C 120.316406 407.300781 119.65625 407.300781 118.582031 407.050781 C 117.089844 406.804688 114.941406 406.140625 113.453125 405.148438 C 111.964844 404.074219 110.640625 402.585938 109.8125 401.011719 C 108.984375 399.441406 108.242188 397.539062 108.488281 395.636719 C 108.820312 392.992188 110.804688 388.855469 113.285156 386.871094 C 115.769531 384.886719 119.40625 384.222656 123.460938 383.890625 C 129.085938 383.394531 137.023438 385.878906 144.304688 386.125 C 152.242188 386.457031 164.898438 384.554688 169.449219 385.382812 C 171.183594 385.710938 171.847656 386.207031 172.921875 386.871094 C 173.996094 387.53125 174.988281 388.441406 175.816406 389.433594 C 176.644531 390.425781 177.304688 391.585938 177.71875 392.742188 C 178.132812 393.984375 178.378906 395.304688 178.464844 396.546875 C 178.464844 397.789062 178.296875 399.109375 177.964844 400.351562 C 177.554688 401.511719 176.972656 402.75 176.230469 403.824219 C 175.484375 404.816406 174.574219 405.8125 173.5 406.472656 C 172.507812 407.21875 171.265625 407.878906 170.109375 408.210938 C 168.867188 408.621094 167.546875 408.789062 166.304688 408.789062 C 165.0625 408.707031 163.742188 408.457031 162.5 408.042969 C 161.34375 407.628906 160.183594 406.96875 159.191406 406.140625 C 158.199219 405.398438 157.289062 404.40625 156.628906 403.328125 C 155.882812 402.253906 155.386719 401.011719 155.054688 399.773438 C 154.726562 398.53125 154.640625 397.207031 154.726562 395.96875 C 154.808594 394.726562 155.136719 393.402344 155.636719 392.246094 C 156.132812 391.089844 156.875 389.929688 157.703125 389.019531 C 158.53125 388.027344 159.605469 387.199219 160.679688 386.539062 C 161.839844 385.960938 163.078125 385.464844 164.320312 385.214844 C 165.558594 384.96875 166.882812 384.96875 168.125 385.132812 C 169.363281 385.296875 170.6875 385.710938 171.847656 386.207031 C 172.921875 386.789062 174.078125 387.613281 174.988281 388.441406 C 175.816406 389.351562 176.644531 390.425781 177.222656 391.585938 C 177.800781 392.742188 178.132812 393.984375 178.296875 395.222656 C 178.546875 396.464844 178.464844 397.871094 178.214844 399.109375 C 178.050781 400.351562 177.554688 401.59375 176.890625 402.667969 C 176.3125 403.824219 175.484375 404.816406 174.492188 405.726562 C 173.582031 406.554688 172.757812 407.21875 171.265625 407.796875 C 169.035156 408.621094 165.726562 408.789062 162.003906 409.121094 C 156.542969 409.617188 148.355469 410.027344 141.65625 409.617188 C 134.957031 409.285156 122.796875 409.699219 121.804688 406.96875 C 120.894531 404.570312 130.738281 395.222656 131.566406 395.636719 C 131.980469 395.886719 130.820312 399.609375 130.242188 401.011719 C 129.746094 401.921875 129.25 402.585938 128.671875 403.246094 C 128.007812 403.992188 127.429688 404.570312 126.519531 405.148438 C 125.28125 405.894531 123.128906 406.886719 121.390625 407.050781 C 119.65625 407.300781 117.339844 406.886719 115.933594 406.390625 C 114.859375 406.140625 114.28125 405.8125 113.453125 405.148438 C 112.292969 404.238281 110.804688 403.164062 109.8125 401.011719 C 107.746094 396.710938 106.917969 388.441406 106.339844 378.929688 C 105.265625 361.890625 104.851562 317.972656 108.324219 307.46875 C 109.398438 304.160156 110.558594 302.835938 112.378906 301.511719 C 114.28125 300.273438 117.175781 299.527344 119.40625 299.859375 C 121.640625 300.105469 124.289062 301.511719 125.777344 303.167969 C 127.265625 304.820312 128.339844 309.949219 128.339844 309.949219 " clip-rule="nonzero"/></clipPath><clipPath id="6da8d16599"><path d="M 116.710938 336.675781 L 176 336.675781 L 176 358.9375 L 116.710938 358.9375 Z M 116.710938 336.675781 " clip-rule="nonzero"/></clipPath><clipPath id="07dc336e77"><path d="M 126.6875 338.320312 C 164.566406 336.664062 167.132812 336.582031 169.53125 337.738281 C 171.679688 338.730469 173.582031 340.550781 174.660156 342.453125 C 175.652344 344.355469 176.148438 347.167969 175.816406 349.320312 C 175.484375 351.46875 174.246094 353.949219 172.671875 355.523438 C 171.019531 357.011719 168.207031 358.167969 166.386719 358.5 C 165.0625 358.75 163.988281 358.582031 162.832031 358.335938 C 161.671875 358.085938 160.597656 357.839844 159.523438 357.09375 C 158.035156 356.019531 155.800781 353.539062 154.972656 351.800781 C 154.394531 350.644531 154.144531 349.734375 154.144531 348.410156 C 154.230469 346.507812 155.054688 343.28125 155.964844 341.628906 C 156.628906 340.46875 157.207031 339.808594 158.363281 339.0625 C 159.9375 338.070312 163.078125 336.914062 164.898438 336.746094 C 166.222656 336.664062 167.214844 336.828125 168.453125 337.328125 C 170.109375 337.988281 172.757812 339.640625 173.996094 341.460938 C 175.238281 343.28125 175.898438 346.257812 175.980469 348.160156 C 175.980469 349.484375 175.816406 350.394531 175.238281 351.636719 C 174.410156 353.289062 172.671875 355.769531 170.769531 356.929688 C 168.867188 358.085938 166.636719 358.335938 163.988281 358.5 C 160.515625 358.832031 155.550781 357.921875 151.5 357.921875 C 147.777344 358.003906 144.632812 358.582031 140.664062 358.664062 C 135.785156 358.75 128.257812 359.410156 124.289062 358.085938 C 121.722656 357.175781 119.65625 355.851562 118.414062 354.035156 C 117.175781 352.214844 116.59375 349.152344 116.761719 347.085938 C 116.84375 345.433594 117.585938 343.859375 118.414062 342.621094 C 119.324219 341.378906 120.648438 340.136719 122.054688 339.476562 C 123.378906 338.730469 126.6875 338.320312 126.6875 338.320312 " clip-rule="nonzero"/></clipPath><clipPath id="13b8a2b570"><path d="M 113 299.230469 L 178 299.230469 L 178 321.832031 L 113 321.832031 Z M 113 299.230469 " clip-rule="nonzero"/></clipPath><clipPath id="d0ea47b428"><path d="M 123.625 299.277344 C 173.5 301.015625 174.824219 302.421875 176.0625 304.242188 C 177.304688 306.0625 177.882812 309.121094 177.964844 311.023438 C 177.964844 312.347656 177.800781 313.257812 177.222656 314.496094 C 176.3125 316.152344 174.574219 318.714844 172.671875 319.875 C 170.769531 320.949219 167.957031 321.609375 165.808594 321.363281 C 163.574219 321.113281 160.84375 319.625 159.355469 318.386719 C 158.363281 317.558594 157.785156 316.566406 157.207031 315.574219 C 156.710938 314.496094 156.214844 313.503906 156.132812 312.183594 C 155.964844 310.28125 156.460938 306.972656 157.207031 305.234375 C 157.785156 303.992188 158.363281 303.25 159.355469 302.421875 C 160.84375 301.265625 163.574219 299.691406 165.808594 299.445312 C 167.957031 299.195312 170.9375 300.105469 172.671875 301.015625 C 173.832031 301.59375 174.574219 302.175781 175.320312 303.25 C 176.476562 304.820312 177.800781 307.632812 177.964844 309.785156 C 178.050781 312.015625 176.972656 314.910156 176.0625 316.566406 C 175.402344 317.722656 174.742188 318.46875 173.664062 319.210938 C 172.011719 320.203125 169.859375 320.949219 166.964844 321.445312 C 161.921875 322.191406 152.738281 321.363281 145.460938 321.03125 C 137.933594 320.703125 127.84375 320.617188 122.632812 319.296875 C 119.738281 318.550781 117.753906 318.054688 116.097656 316.484375 C 114.527344 314.910156 113.371094 312.015625 113.121094 310.03125 C 112.875 308.378906 113.285156 306.722656 113.949219 305.316406 C 114.527344 303.828125 115.4375 302.421875 116.84375 301.511719 C 118.496094 300.273438 123.625 299.277344 123.625 299.277344 " clip-rule="nonzero"/></clipPath><clipPath id="39ba2324d0"><path d="M 182.613281 299 L 272.589844 299 L 272.589844 323.390625 L 182.613281 323.390625 Z M 182.613281 299 " clip-rule="nonzero"/></clipPath><clipPath id="32bf24d918"><path d="M 192.878906 303.0625 C 227.90625 301.453125 241.496094 299.355469 250.273438 299.195312 C 256.183594 299.035156 261.753906 298.628906 265.382812 300 C 267.914062 300.96875 269.769531 302.660156 270.953125 304.59375 C 272.132812 306.53125 272.726562 309.269531 272.472656 311.527344 C 272.21875 313.703125 270.953125 316.28125 269.265625 317.894531 C 267.660156 319.507812 265.042969 320.796875 262.765625 321.117188 C 260.402344 321.441406 257.28125 320.714844 255.507812 319.910156 C 254.15625 319.347656 253.398438 318.78125 252.554688 317.734375 C 251.285156 316.28125 249.851562 313.140625 249.515625 311.285156 C 249.261719 309.996094 249.261719 309.027344 249.683594 307.738281 C 250.359375 305.964844 251.792969 303.144531 253.566406 301.773438 C 255.339844 300.324219 258.460938 299.4375 260.488281 299.195312 C 261.835938 299.035156 262.851562 299.113281 264.199219 299.597656 C 266.058594 300.324219 268.925781 302.175781 270.277344 303.628906 C 271.207031 304.675781 271.628906 305.480469 271.964844 306.773438 C 272.386719 308.625 272.640625 311.769531 271.882812 313.863281 C 271.121094 315.960938 268.925781 318.21875 267.40625 319.425781 C 266.226562 320.230469 265.382812 320.636719 263.949219 320.878906 C 262.007812 321.199219 259.558594 320.394531 256.605469 320.472656 C 252.046875 320.554688 245.96875 321.683594 239.386719 322.085938 C 230.4375 322.652344 216.679688 323.132812 207.648438 323.132812 C 201.066406 323.132812 194.566406 323.777344 190.429688 322.488281 C 187.730469 321.683594 185.703125 320.152344 184.4375 318.539062 C 183.339844 317.25 182.75 315.800781 182.667969 314.105469 C 182.496094 312.089844 183.339844 309.027344 184.4375 307.335938 C 185.28125 305.964844 186.71875 304.917969 188.066406 304.191406 C 189.503906 303.546875 192.878906 303.0625 192.878906 303.0625 " clip-rule="nonzero"/></clipPath><clipPath id="6fa7ba44ac"><path d="M 218.097656 311.53125 L 242.996094 311.53125 L 242.996094 409.894531 L 218.097656 409.894531 Z M 218.097656 311.53125 " clip-rule="nonzero"/></clipPath><clipPath id="95c0d07f1d"><path d="M 239.640625 321.441406 C 240.90625 370.691406 243.183594 392.210938 242.929688 398.496094 C 242.761719 400.269531 242.847656 400.753906 242.339844 402.042969 C 241.582031 403.816406 239.808594 406.476562 237.949219 407.765625 C 236.007812 409.058594 233.140625 409.863281 230.777344 409.78125 C 228.414062 409.703125 225.460938 408.332031 223.769531 407.203125 C 222.671875 406.476562 222 405.753906 221.324219 404.542969 C 220.394531 402.769531 219.382812 399.789062 219.636719 397.613281 C 219.804688 395.355469 221.070312 392.773438 222.671875 391.082031 C 224.277344 389.46875 227.230469 388.179688 229.171875 387.695312 C 230.523438 387.292969 231.535156 387.292969 232.972656 387.617188 C 234.914062 388.019531 238.035156 389.632812 239.554688 390.839844 C 240.652344 391.726562 241.242188 392.773438 241.75 393.824219 C 242.253906 394.871094 242.761719 395.917969 242.847656 397.289062 C 242.847656 399.144531 242.507812 402.285156 241.328125 404.222656 C 240.144531 406.15625 237.867188 408.089844 235.671875 408.894531 C 233.5625 409.78125 230.523438 409.945312 228.246094 409.378906 C 225.964844 408.816406 223.433594 406.878906 222.082031 405.511719 C 221.070312 404.460938 220.734375 404.058594 220.226562 402.367188 C 218.453125 396.160156 218.453125 371.578125 218.285156 357.472656 C 218.117188 344.816406 218.117188 327.726562 219.042969 321.441406 C 219.296875 319.183594 219.464844 318.21875 220.226562 316.925781 C 220.902344 315.558594 222 314.1875 223.433594 313.382812 C 225.289062 312.332031 228.328125 311.445312 230.609375 311.6875 C 232.886719 311.929688 235.585938 313.300781 237.023438 314.914062 C 238.542969 316.605469 239.640625 321.441406 239.640625 321.441406 " clip-rule="nonzero"/></clipPath><clipPath id="c9825da1a5"><path d="M 273.027344 300.203125 L 346 300.203125 L 346 410.625 L 273.027344 410.625 Z M 273.027344 300.203125 " clip-rule="nonzero"/></clipPath><clipPath id="86277a4c0a"><path d="M 295.875 310.527344 C 297.28125 387.117188 299.019531 392.992188 299.101562 396.214844 C 299.101562 397.539062 299.019531 397.953125 298.769531 398.945312 C 298.273438 400.433594 297.117188 402.667969 296.207031 403.824219 C 295.542969 404.734375 294.964844 405.148438 294.054688 405.726562 C 292.816406 406.472656 290.417969 407.382812 288.925781 407.628906 C 287.851562 407.878906 287.191406 407.878906 286.117188 407.628906 C 284.625 407.382812 282.476562 406.71875 280.988281 405.726562 C 279.5 404.652344 278.175781 403.164062 277.347656 401.59375 C 276.519531 400.019531 275.777344 398.117188 276.023438 396.214844 C 276.355469 393.570312 278.339844 389.433594 280.820312 387.449219 C 283.304688 385.464844 286.941406 384.800781 290.996094 384.472656 C 296.621094 383.976562 304.558594 386.457031 311.839844 386.703125 C 319.777344 387.035156 332.433594 385.132812 336.984375 385.960938 C 338.71875 386.289062 339.382812 386.789062 340.457031 387.449219 C 341.53125 388.109375 342.523438 389.019531 343.351562 390.011719 C 344.179688 391.003906 344.839844 392.164062 345.253906 393.320312 C 345.667969 394.5625 345.914062 395.886719 346 397.125 C 346 398.367188 345.832031 399.691406 345.5 400.929688 C 345.089844 402.089844 344.507812 403.328125 343.765625 404.40625 C 343.019531 405.398438 342.109375 406.390625 341.035156 407.050781 C 340.042969 407.796875 338.800781 408.457031 337.644531 408.789062 C 336.402344 409.203125 335.082031 409.367188 333.839844 409.367188 C 332.597656 409.285156 331.277344 409.035156 330.035156 408.621094 C 328.878906 408.210938 327.71875 407.546875 326.726562 406.71875 C 325.734375 405.976562 324.824219 404.984375 324.164062 403.910156 C 323.417969 402.832031 322.921875 401.59375 322.589844 400.351562 C 322.261719 399.109375 322.175781 397.789062 322.261719 396.546875 C 322.34375 395.304688 322.671875 393.984375 323.171875 392.824219 C 323.667969 391.667969 324.410156 390.507812 325.238281 389.597656 C 326.066406 388.605469 327.140625 387.78125 328.214844 387.117188 C 329.375 386.539062 330.613281 386.042969 331.855469 385.792969 C 333.09375 385.546875 334.417969 385.546875 335.660156 385.710938 C 336.898438 385.878906 338.222656 386.289062 339.382812 386.789062 C 340.457031 387.367188 341.613281 388.191406 342.523438 389.019531 C 343.351562 389.929688 344.179688 391.003906 344.757812 392.164062 C 345.335938 393.320312 345.667969 394.5625 345.832031 395.804688 C 346.082031 397.042969 346 398.449219 345.75 399.691406 C 345.585938 400.929688 345.089844 402.171875 344.425781 403.246094 C 343.847656 404.40625 343.019531 405.398438 342.027344 406.308594 C 341.117188 407.132812 340.292969 407.796875 338.800781 408.375 C 336.570312 409.203125 333.261719 409.367188 329.539062 409.699219 C 324.078125 410.195312 315.890625 410.609375 309.191406 410.195312 C 302.492188 409.863281 290.332031 410.277344 289.339844 407.546875 C 288.429688 405.148438 298.273438 395.804688 299.101562 396.214844 C 299.515625 396.464844 298.355469 400.1875 297.777344 401.59375 C 297.28125 402.503906 296.785156 403.164062 296.207031 403.824219 C 295.542969 404.570312 294.964844 405.148438 294.054688 405.726562 C 292.816406 406.472656 290.664062 407.464844 288.925781 407.628906 C 287.191406 407.878906 284.875 407.464844 283.46875 406.96875 C 282.394531 406.71875 281.816406 406.390625 280.988281 405.726562 C 279.828125 404.816406 278.339844 403.742188 277.347656 401.59375 C 275.28125 397.292969 274.453125 389.019531 273.875 379.507812 C 272.800781 362.46875 272.386719 318.550781 275.859375 308.046875 C 276.933594 304.738281 278.09375 303.414062 279.914062 302.089844 C 281.816406 300.851562 284.710938 300.105469 286.941406 300.4375 C 289.175781 300.683594 291.824219 302.089844 293.3125 303.746094 C 294.800781 305.398438 295.875 310.527344 295.875 310.527344 " clip-rule="nonzero"/></clipPath><clipPath id="8830cad1a6"><path d="M 284.25 337.253906 L 343.613281 337.253906 L 343.613281 359.515625 L 284.25 359.515625 Z M 284.25 337.253906 " clip-rule="nonzero"/></clipPath><clipPath id="96473fb572"><path d="M 294.222656 338.898438 C 332.101562 337.242188 334.667969 337.160156 337.066406 338.320312 C 339.214844 339.3125 341.117188 341.132812 342.195312 343.035156 C 343.1875 344.9375 343.683594 347.746094 343.351562 349.898438 C 343.019531 352.046875 341.78125 354.53125 340.207031 356.101562 C 338.554688 357.589844 335.742188 358.75 333.921875 359.078125 C 332.597656 359.328125 331.523438 359.160156 330.367188 358.914062 C 329.207031 358.664062 328.132812 358.417969 327.058594 357.671875 C 325.570312 356.597656 323.335938 354.117188 322.507812 352.378906 C 321.929688 351.222656 321.679688 350.3125 321.679688 348.988281 C 321.765625 347.085938 322.589844 343.859375 323.5 342.207031 C 324.164062 341.046875 324.742188 340.386719 325.898438 339.640625 C 327.472656 338.648438 330.613281 337.492188 332.433594 337.328125 C 333.757812 337.242188 334.75 337.410156 335.988281 337.90625 C 337.644531 338.566406 340.292969 340.222656 341.53125 342.039062 C 342.773438 343.859375 343.433594 346.839844 343.515625 348.742188 C 343.515625 350.0625 343.351562 350.972656 342.773438 352.214844 C 341.945312 353.867188 340.207031 356.351562 338.304688 357.507812 C 336.402344 358.664062 334.171875 358.914062 331.523438 359.078125 C 328.050781 359.410156 323.085938 358.5 319.035156 358.5 C 315.3125 358.582031 312.167969 359.160156 308.199219 359.246094 C 303.320312 359.328125 295.792969 359.988281 291.824219 358.664062 C 289.257812 357.753906 287.191406 356.433594 285.949219 354.613281 C 284.710938 352.792969 284.128906 349.734375 284.296875 347.664062 C 284.378906 346.011719 285.121094 344.4375 285.949219 343.199219 C 286.859375 341.957031 288.183594 340.71875 289.589844 340.054688 C 290.914062 339.3125 294.222656 338.898438 294.222656 338.898438 " clip-rule="nonzero"/></clipPath><clipPath id="832991d934"><path d="M 280.496094 299.808594 L 345.597656 299.808594 L 345.597656 322.410156 L 280.496094 322.410156 Z M 280.496094 299.808594 " clip-rule="nonzero"/></clipPath><clipPath id="212f1a3d1d"><path d="M 291.160156 299.859375 C 341.035156 301.59375 342.359375 303 343.597656 304.820312 C 344.839844 306.640625 345.417969 309.699219 345.5 311.601562 C 345.5 312.925781 345.335938 313.835938 344.757812 315.078125 C 343.847656 316.730469 342.109375 319.296875 340.207031 320.453125 C 338.304688 321.527344 335.492188 322.191406 333.34375 321.941406 C 331.109375 321.695312 328.378906 320.203125 326.890625 318.964844 C 325.898438 318.136719 325.320312 317.144531 324.742188 316.152344 C 324.246094 315.078125 323.75 314.085938 323.667969 312.761719 C 323.5 310.859375 323.996094 307.550781 324.742188 305.8125 C 325.320312 304.574219 325.898438 303.828125 326.890625 303 C 328.378906 301.84375 331.109375 300.273438 333.34375 300.023438 C 335.492188 299.777344 338.472656 300.683594 340.207031 301.59375 C 341.367188 302.175781 342.109375 302.753906 342.855469 303.828125 C 344.011719 305.398438 345.335938 308.210938 345.5 310.363281 C 345.585938 312.59375 344.507812 315.492188 343.597656 317.144531 C 342.9375 318.300781 342.277344 319.046875 341.199219 319.792969 C 339.546875 320.785156 337.394531 321.527344 334.5 322.023438 C 329.457031 322.769531 320.273438 321.941406 312.996094 321.609375 C 305.46875 321.28125 295.378906 321.199219 290.167969 319.875 C 287.273438 319.128906 285.289062 318.632812 283.632812 317.0625 C 282.0625 315.492188 280.90625 312.59375 280.65625 310.609375 C 280.410156 308.957031 280.820312 307.300781 281.484375 305.894531 C 282.0625 304.40625 282.972656 303 284.378906 302.089844 C 286.03125 300.851562 291.160156 299.859375 291.160156 299.859375 " clip-rule="nonzero"/></clipPath><clipPath id="b5436c86ae"><path d="M 349 299 L 438.449219 299 L 438.449219 414.109375 L 349 414.109375 Z M 349 299 " clip-rule="nonzero"/></clipPath><clipPath id="e22e10b85e"><path d="M 415.726562 321.953125 C 399.296875 320.207031 395.957031 320.957031 392.621094 321.789062 C 389.199219 322.703125 385.347656 323.535156 382.78125 325.535156 C 380.214844 327.535156 378.417969 330.867188 376.960938 333.863281 C 375.507812 336.863281 374.566406 340.109375 373.882812 343.441406 C 373.195312 346.6875 373.109375 350.105469 373.109375 353.601562 C 373.023438 357.183594 372.855469 361.179688 373.796875 364.59375 C 374.738281 367.925781 376.621094 371.007812 378.417969 373.839844 C 380.300781 376.835938 382.523438 379.753906 385.003906 382.085938 C 387.488281 384.5 390.3125 387.332031 393.476562 388.332031 C 396.644531 389.246094 400.664062 388.746094 403.917969 387.746094 C 407.167969 386.832031 411.019531 384.5 412.902344 382.417969 C 414.269531 380.917969 414.269531 378.753906 415.125 377.335938 C 415.898438 376.171875 416.753906 375.171875 417.78125 374.339844 C 418.804688 373.507812 420.003906 372.757812 421.203125 372.339844 C 422.484375 371.839844 423.855469 371.589844 425.222656 371.507812 C 426.507812 371.425781 427.960938 371.589844 429.246094 371.921875 C 430.53125 372.257812 431.8125 372.839844 432.839844 373.589844 C 433.953125 374.339844 434.980469 375.253906 435.835938 376.335938 C 436.605469 377.335938 437.289062 378.585938 437.71875 379.753906 C 438.144531 381 438.316406 382.417969 438.316406 383.667969 C 438.316406 385 438.058594 386.332031 437.632812 387.582031 C 437.203125 388.828125 436.605469 389.996094 435.75 391.078125 C 434.980469 392.078125 433.953125 392.992188 432.839844 393.742188 C 431.726562 394.492188 430.445312 395.074219 429.160156 395.410156 C 427.878906 395.742188 426.421875 395.910156 425.140625 395.824219 C 423.769531 395.742188 422.402344 395.410156 421.203125 394.910156 C 419.917969 394.492188 418.722656 393.742188 417.695312 392.910156 C 416.667969 392.078125 415.8125 390.996094 415.125 389.914062 C 414.441406 388.746094 413.929688 387.496094 413.585938 386.25 C 413.328125 384.914062 413.246094 383.582031 413.414062 382.25 C 413.585938 381 413.929688 379.667969 414.527344 378.503906 C 415.042969 377.335938 415.898438 376.171875 416.753906 375.253906 C 417.695312 374.339844 418.804688 373.507812 420.003906 372.839844 C 421.203125 372.257812 422.570312 371.839844 423.855469 371.589844 C 425.140625 371.425781 426.59375 371.425781 427.878906 371.675781 C 429.246094 371.839844 430.53125 372.257812 431.726562 372.921875 C 432.925781 373.507812 434.039062 374.339844 434.980469 375.339844 C 435.835938 376.253906 436.605469 377.421875 437.203125 378.585938 C 437.71875 379.753906 438.144531 381.085938 438.230469 382.332031 C 438.402344 383.667969 438.488281 384.664062 438.058594 386.332031 C 437.203125 389.328125 434.722656 395.160156 431.984375 398.40625 C 429.589844 401.40625 426.164062 403.320312 423 405.402344 C 419.832031 407.402344 416.496094 409.066406 413.160156 410.484375 C 409.734375 411.898438 406.226562 413.566406 402.546875 413.980469 C 398.867188 414.3125 394.761719 413.566406 391.167969 412.648438 C 387.574219 411.730469 384.578125 410.816406 380.984375 408.652344 C 375.933594 405.734375 368.746094 399.40625 364.726562 395.324219 C 361.902344 392.410156 360.1875 389.996094 358.222656 387.082031 C 356.339844 384.25 354.457031 381.25 353.085938 378.085938 C 351.71875 374.921875 350.691406 371.589844 350.09375 368.175781 C 349.40625 364.679688 349.320312 361.015625 349.234375 357.433594 C 349.066406 354.101562 348.980469 350.769531 349.320312 347.4375 C 349.664062 343.859375 350.433594 340.027344 351.375 336.613281 C 352.230469 333.28125 353.429688 330.199219 354.710938 327.035156 C 356.167969 323.871094 357.621094 320.707031 359.589844 317.789062 C 361.558594 314.960938 364.039062 312.210938 366.691406 309.796875 C 369.34375 307.378906 371.65625 305.132812 375.421875 303.464844 C 380.726562 301.132812 390.566406 299.886719 396.300781 299.300781 C 400.324219 298.96875 402.890625 298.96875 406.65625 299.386719 C 411.277344 299.96875 418.550781 300.96875 422.144531 302.964844 C 424.539062 304.300781 426.335938 306.046875 427.277344 308.046875 C 428.132812 310.128906 428.304688 313.125 427.535156 315.207031 C 426.851562 317.375 424.96875 319.707031 422.914062 320.789062 C 420.945312 321.871094 415.726562 321.953125 415.726562 321.953125 " clip-rule="nonzero"/></clipPath><clipPath id="02dcf81292"><path d="M 429 299 L 518.960938 299 L 518.960938 323.390625 L 429 323.390625 Z M 429 299 " clip-rule="nonzero"/></clipPath><clipPath id="945760bf21"><path d="M 439.25 303.0625 C 474.277344 301.453125 487.867188 299.355469 496.644531 299.195312 C 502.554688 299.035156 508.125 298.628906 511.753906 300 C 514.285156 300.96875 516.140625 302.660156 517.324219 304.59375 C 518.503906 306.53125 519.097656 309.269531 518.84375 311.527344 C 518.589844 313.703125 517.324219 316.28125 515.636719 317.894531 C 514.03125 319.507812 511.414062 320.796875 509.136719 321.117188 C 506.773438 321.441406 503.652344 320.714844 501.878906 319.910156 C 500.527344 319.347656 499.769531 318.78125 498.925781 317.734375 C 497.65625 316.28125 496.222656 313.140625 495.886719 311.285156 C 495.632812 309.996094 495.632812 309.027344 496.054688 307.738281 C 496.730469 305.964844 498.164062 303.144531 499.9375 301.773438 C 501.710938 300.324219 504.832031 299.4375 506.859375 299.195312 C 508.207031 299.035156 509.222656 299.113281 510.570312 299.597656 C 512.429688 300.324219 515.296875 302.175781 516.648438 303.628906 C 517.578125 304.675781 518 305.480469 518.335938 306.773438 C 518.757812 308.625 519.011719 311.769531 518.253906 313.863281 C 517.492188 315.960938 515.296875 318.21875 513.777344 319.425781 C 512.597656 320.230469 511.753906 320.636719 510.320312 320.878906 C 508.378906 321.199219 505.929688 320.394531 502.976562 320.472656 C 498.417969 320.554688 492.339844 321.683594 485.757812 322.085938 C 476.808594 322.652344 463.050781 323.132812 454.019531 323.132812 C 447.4375 323.132812 440.9375 323.777344 436.800781 322.488281 C 434.101562 321.683594 432.074219 320.152344 430.808594 318.539062 C 429.710938 317.25 429.121094 315.800781 429.039062 314.105469 C 428.867188 312.089844 429.710938 309.027344 430.808594 307.335938 C 431.652344 305.964844 433.089844 304.917969 434.4375 304.191406 C 435.875 303.546875 439.25 303.0625 439.25 303.0625 " clip-rule="nonzero"/></clipPath><clipPath id="e1c0b27948"><path d="M 464.46875 311.53125 L 489.367188 311.53125 L 489.367188 409.894531 L 464.46875 409.894531 Z M 464.46875 311.53125 " clip-rule="nonzero"/></clipPath><clipPath id="4e7370063a"><path d="M 486.011719 321.441406 C 487.277344 370.691406 489.554688 392.210938 489.300781 398.496094 C 489.132812 400.269531 489.21875 400.753906 488.710938 402.042969 C 487.953125 403.816406 486.179688 406.476562 484.320312 407.765625 C 482.378906 409.058594 479.511719 409.863281 477.148438 409.78125 C 474.785156 409.703125 471.832031 408.332031 470.140625 407.203125 C 469.042969 406.476562 468.371094 405.753906 467.695312 404.542969 C 466.765625 402.769531 465.753906 399.789062 466.007812 397.613281 C 466.175781 395.355469 467.441406 392.773438 469.042969 391.082031 C 470.648438 389.46875 473.601562 388.179688 475.542969 387.695312 C 476.894531 387.292969 477.90625 387.292969 479.34375 387.617188 C 481.285156 388.019531 484.40625 389.632812 485.925781 390.839844 C 487.023438 391.726562 487.613281 392.773438 488.121094 393.824219 C 488.625 394.871094 489.132812 395.917969 489.21875 397.289062 C 489.21875 399.144531 488.878906 402.285156 487.699219 404.222656 C 486.515625 406.15625 484.238281 408.089844 482.042969 408.894531 C 479.933594 409.78125 476.894531 409.945312 474.617188 409.378906 C 472.335938 408.816406 469.804688 406.878906 468.453125 405.511719 C 467.441406 404.460938 467.101562 404.058594 466.597656 402.367188 C 464.824219 396.160156 464.824219 371.578125 464.65625 357.472656 C 464.488281 344.816406 464.488281 327.726562 465.414062 321.441406 C 465.667969 319.183594 465.835938 318.21875 466.597656 316.925781 C 467.273438 315.558594 468.371094 314.1875 469.804688 313.382812 C 471.660156 312.332031 474.699219 311.445312 476.980469 311.6875 C 479.257812 311.929688 481.957031 313.300781 483.394531 314.914062 C 484.914062 316.605469 486.011719 321.441406 486.011719 321.441406 " clip-rule="nonzero"/></clipPath><clipPath id="9f689ec151"><path d="M 520.386719 298.414062 L 605.902344 298.414062 L 605.902344 321.527344 L 520.386719 321.527344 Z M 520.386719 298.414062 " clip-rule="nonzero"/></clipPath><clipPath id="0de662cde4"><path d="M 530.199219 300.945312 C 596.476562 298.414062 596.800781 298.332031 598.109375 298.902344 C 599.824219 299.640625 602.605469 301.683594 603.832031 303.152344 C 604.730469 304.214844 605.136719 305.113281 605.382812 306.421875 C 605.792969 308.300781 605.875 311.488281 605.054688 313.613281 C 604.238281 315.65625 602.441406 317.863281 600.480469 319.089844 C 598.601562 320.234375 595.414062 320.722656 593.535156 320.640625 C 592.144531 320.640625 591.246094 320.398438 590.019531 319.742188 C 588.304688 318.84375 585.851562 316.472656 584.789062 314.839844 C 584.054688 313.695312 583.726562 312.796875 583.5625 311.488281 C 583.398438 309.527344 583.644531 306.421875 584.707031 304.378906 C 585.6875 302.417969 587.8125 300.375 589.773438 299.394531 C 591.816406 298.414062 595.003906 298.332031 596.882812 298.578125 C 598.273438 298.742188 599.253906 299.3125 600.316406 299.882812 C 601.296875 300.457031 602.277344 301.109375 603.09375 302.171875 C 604.238281 303.726562 605.628906 306.585938 605.792969 308.792969 C 605.957031 311.082031 604.894531 314.023438 603.914062 315.738281 C 603.257812 316.964844 602.605469 317.617188 601.460938 318.355469 C 599.90625 319.417969 597.863281 320.152344 594.757812 320.722656 C 588.386719 321.867188 575.472656 321.296875 565.257812 321.378906 C 554.0625 321.378906 536.410156 321.621094 530.199219 320.804688 C 527.910156 320.480469 527.011719 320.558594 525.621094 319.660156 C 523.824219 318.597656 521.699219 316.472656 520.882812 314.347656 C 520.144531 312.304688 520.308594 309.28125 520.882812 307.320312 C 521.371094 305.769531 522.269531 304.460938 523.578125 303.398438 C 525.214844 302.171875 530.199219 300.945312 530.199219 300.945312 " clip-rule="nonzero"/></clipPath><clipPath id="300841b789"><path d="M 550.398438 306.019531 L 574.816406 306.019531 L 574.816406 407.175781 L 550.398438 407.175781 Z M 550.398438 306.019531 " clip-rule="nonzero"/></clipPath><clipPath id="ed69fad537"><path d="M 574.164062 316.148438 C 574.65625 368.777344 575.554688 391.660156 572.777344 399.339844 C 571.632812 402.445312 570.324219 403.835938 568.363281 405.144531 C 566.484375 406.371094 563.378906 407.023438 561.5 407.023438 C 560.109375 407.105469 559.128906 406.859375 557.902344 406.289062 C 556.1875 405.390625 553.570312 403.507812 552.425781 401.546875 C 551.199219 399.667969 550.628906 396.808594 550.875 394.519531 C 551.121094 392.3125 552.671875 389.535156 553.898438 387.980469 C 554.714844 386.917969 555.53125 386.347656 556.757812 385.773438 C 558.554688 385.039062 561.660156 384.304688 563.867188 384.632812 C 566.15625 385.039062 568.691406 386.347656 570.242188 387.980469 C 571.796875 389.699219 573.019531 392.3125 573.265625 394.519531 C 573.511719 396.808594 572.613281 399.832031 571.714844 401.546875 C 571.140625 402.855469 570.488281 403.589844 569.34375 404.40625 C 567.789062 405.46875 564.605469 406.777344 562.640625 407.023438 C 561.335938 407.1875 560.355469 407.105469 559.046875 406.613281 C 557.25 405.960938 554.46875 404.40625 553.082031 402.609375 C 551.691406 400.8125 551.199219 398.6875 550.792969 395.746094 C 550.058594 390.761719 550.875 381.851562 551.28125 374.988281 C 551.691406 368.125 552.835938 362.484375 553.324219 354.394531 C 553.980469 343.199219 551.9375 321.050781 554.304688 313.777344 C 555.289062 310.753906 556.511719 309.121094 558.394531 307.894531 C 560.191406 306.667969 563.050781 305.933594 565.339844 306.175781 C 567.546875 306.421875 570.160156 307.8125 571.632812 309.527344 C 573.101562 311.164062 574.164062 316.148438 574.164062 316.148438 " clip-rule="nonzero"/></clipPath><clipPath id="7f72978c94"><path d="M 519.199219 383.519531 L 613.589844 383.519531 L 613.589844 408.707031 L 519.199219 408.707031 Z M 519.199219 383.519531 " clip-rule="nonzero"/></clipPath><clipPath id="88557915f4"><path d="M 529.21875 387.574219 C 584.054688 385.9375 590.265625 384.222656 595.738281 383.894531 C 599.664062 383.652344 603.421875 383.488281 605.792969 384.058594 C 607.179688 384.386719 608 384.792969 609.0625 385.695312 C 610.449219 387 612.492188 389.453125 613.148438 391.578125 C 613.71875 393.785156 613.636719 396.644531 612.820312 398.769531 C 612.003906 400.894531 610.203125 403.101562 608.242188 404.328125 C 606.28125 405.46875 603.175781 405.960938 601.296875 405.960938 C 599.90625 405.878906 598.925781 405.632812 597.78125 404.980469 C 596.066406 404.082031 593.535156 401.710938 592.472656 400.160156 C 591.734375 399.015625 591.410156 398.035156 591.246094 396.726562 C 591.082031 394.765625 591.328125 391.660156 592.308594 389.617188 C 593.371094 387.574219 595.414062 385.613281 597.457031 384.632812 C 599.5 383.652344 602.6875 383.488281 604.648438 383.730469 C 605.957031 383.894531 606.855469 384.222656 608 385.039062 C 609.550781 386.183594 611.839844 388.71875 612.738281 390.433594 C 613.308594 391.660156 613.554688 392.640625 613.554688 394.027344 C 613.554688 395.910156 612.65625 399.257812 611.675781 400.894531 C 611.023438 402.121094 610.367188 402.855469 609.222656 403.589844 C 607.671875 404.652344 605.546875 405.308594 602.441406 405.960938 C 596.558594 407.269531 585.769531 408.085938 575.554688 408.414062 C 562.234375 408.902344 536.65625 408.574219 529.21875 407.59375 C 526.847656 407.269531 526.03125 407.351562 524.558594 406.449219 C 522.84375 405.390625 520.636719 403.265625 519.902344 401.140625 C 519.082031 399.097656 519.082031 396.152344 519.902344 394.027344 C 520.636719 391.984375 522.84375 389.78125 524.558594 388.800781 C 526.03125 387.898438 529.21875 387.574219 529.21875 387.574219 " clip-rule="nonzero"/></clipPath><clipPath id="8cbaa8b301"><path d="M 620 298 L 708 298 L 708 410.410156 L 620 410.410156 Z M 620 298 " clip-rule="nonzero"/></clipPath><clipPath id="9afda1add9"><path d="M 631.90625 398.886719 C 625.527344 360.738281 625.027344 336.464844 623.371094 324.964844 C 622.375 318.777344 620.222656 314.417969 620.222656 310.847656 C 620.222656 308.625 620.800781 306.960938 621.382812 305.613281 C 621.796875 304.660156 622.128906 304.105469 622.875 303.390625 C 623.867188 302.28125 625.941406 300.851562 627.265625 300.21875 C 628.261719 299.742188 628.925781 299.582031 630 299.425781 C 631.492188 299.347656 633.816406 299.347656 635.472656 299.902344 C 637.210938 300.457031 639.117188 301.726562 640.195312 302.757812 C 640.941406 303.46875 641.355469 303.945312 641.855469 304.898438 C 642.515625 306.167969 642.269531 308.386719 643.347656 309.972656 C 644.921875 312.195312 648.566406 313.464844 651.632812 316.160156 C 656.277344 320.285156 662.574219 326.550781 667.714844 333.054688 C 673.765625 340.589844 679.566406 350.265625 685.035156 359.308594 C 690.589844 368.429688 702.359375 382.230469 700.617188 387.625 C 699.625 390.796875 693.324219 390.640625 690.425781 392.859375 C 687.605469 395 685.367188 401.03125 683.378906 400.472656 C 678.984375 399.207031 677.164062 367.003906 675.503906 351.21875 C 674.011719 336.785156 673.101562 315.050781 673.433594 309.339844 C 673.515625 307.914062 673.515625 307.59375 673.847656 306.644531 C 674.34375 305.214844 675.421875 303.074219 676.75 301.804688 C 677.992188 300.535156 680.148438 299.425781 681.636719 298.789062 C 682.632812 298.394531 683.378906 298.316406 684.457031 298.234375 C 686.03125 298.234375 688.683594 298.632812 690.175781 299.109375 C 691.253906 299.503906 692 299.980469 692.746094 300.535156 C 693.492188 301.089844 694.238281 301.566406 694.816406 302.4375 C 695.8125 303.707031 697.386719 305.375 697.386719 307.4375 C 697.386719 310.6875 693.40625 318.144531 691.171875 320.046875 C 690.007812 321.078125 688.683594 321.078125 687.441406 321.238281 C 686.195312 321.476562 684.789062 321.476562 683.542969 321.238281 C 682.21875 321.078125 680.976562 320.601562 679.816406 320.046875 C 678.65625 319.492188 677.578125 318.699219 676.664062 317.746094 C 675.835938 316.875 675.007812 315.765625 674.511719 314.652344 C 673.929688 313.542969 673.597656 312.273438 673.433594 311.085938 C 673.351562 309.816406 673.433594 308.546875 673.683594 307.277344 C 673.929688 306.085938 674.425781 304.898438 675.089844 303.789062 C 675.753906 302.757812 676.664062 301.726562 677.660156 300.933594 C 678.65625 300.140625 679.816406 299.503906 681.058594 299.027344 C 682.21875 298.554688 683.542969 298.316406 684.871094 298.234375 C 686.113281 298.15625 687.523438 298.316406 688.765625 298.632812 C 690.007812 298.949219 691.253906 299.503906 692.332031 300.21875 C 693.40625 300.933594 694.402344 301.804688 695.148438 302.835938 C 695.894531 303.789062 696.558594 304.976562 696.972656 306.085938 C 697.386719 307.277344 697.636719 308.546875 697.636719 309.816406 C 697.636719 311.085938 697.386719 312.355469 696.972656 313.542969 C 696.558594 314.652344 695.894531 315.84375 695.148438 316.796875 C 694.320312 317.828125 693.324219 318.699219 692.246094 319.414062 C 691.253906 320.125 689.925781 320.683594 688.765625 321 C 687.523438 321.316406 686.113281 321.476562 684.789062 321.394531 C 683.542969 321.316406 682.21875 321 680.976562 320.601562 C 679.816406 320.125 678.65625 319.414062 677.660156 318.621094 C 676.664062 317.828125 675.753906 316.796875 675.089844 315.765625 C 674.425781 314.734375 673.929688 313.464844 673.683594 312.273438 C 673.351562 311.085938 673.351562 309.738281 673.433594 308.546875 C 673.597656 307.277344 673.929688 306.007812 674.511719 304.898438 C 675.089844 303.789062 676.5 301.726562 676.75 301.804688 C 677.078125 302.042969 674.097656 312.195312 673.597656 312.195312 C 673.433594 312.117188 673.351562 310.292969 673.433594 309.339844 C 673.433594 308.46875 673.515625 307.59375 673.847656 306.644531 C 674.34375 305.214844 675.753906 302.996094 676.75 301.804688 C 677.496094 301.011719 677.992188 300.535156 678.984375 300.058594 C 680.394531 299.265625 682.632812 298.394531 684.457031 298.234375 C 686.363281 298.078125 688.683594 298.632812 690.175781 299.109375 C 691.253906 299.503906 691.917969 299.820312 692.746094 300.535156 C 693.988281 301.488281 695.644531 303.46875 696.390625 304.820312 C 696.972656 305.769531 697.054688 306.246094 697.386719 307.4375 C 697.964844 309.894531 698.628906 314.972656 698.710938 318.621094 C 698.878906 321.949219 698.132812 324.488281 698.132812 328.375 C 698.132812 333.929688 698.546875 340.433594 699.457031 348.761719 C 700.867188 362.085938 709.984375 390.796875 707.332031 400.710938 C 706.007812 405.390625 703.519531 408.722656 700.121094 409.832031 C 695.894531 411.101562 687.855469 408.722656 683.046875 404.917969 C 676.664062 399.761719 673.597656 386.59375 668.460938 377.710938 C 663.488281 368.90625 656.9375 357.722656 652.796875 351.695312 C 650.390625 348.285156 649.398438 347.175781 646.660156 343.921875 C 641.605469 337.972656 628.34375 326.234375 624.117188 319.808594 C 621.878906 316.320312 620.636719 312.988281 620.222656 310.847656 C 620.054688 309.65625 620.222656 309.179688 620.46875 308.148438 C 620.882812 306.800781 621.960938 304.5 622.875 303.390625 C 623.535156 302.519531 623.953125 302.121094 624.863281 301.488281 C 626.105469 300.695312 628.511719 299.742188 630 299.425781 C 630.996094 299.265625 631.742188 299.1875 632.738281 299.347656 C 634.3125 299.582031 636.714844 300.378906 638.042969 301.011719 C 638.953125 301.566406 639.535156 301.964844 640.195312 302.757812 C 641.191406 303.867188 642.1875 305.292969 642.933594 307.355469 C 644.257812 310.609375 645.085938 315.050781 645.832031 321.15625 C 647.324219 332.660156 647.160156 357.484375 648.484375 371.523438 C 649.480469 381.753906 652.960938 392.226562 652.132812 397.855469 C 651.632812 400.792969 650.722656 402.617188 649.066406 404.125 C 647.492188 405.628906 644.753906 406.820312 642.515625 406.898438 C 640.28125 407.058594 637.378906 406.183594 635.636719 404.835938 C 633.898438 403.488281 631.90625 398.886719 631.90625 398.886719 " clip-rule="nonzero"/></clipPath><clipPath id="0719c7f836"><path d="M 705.527344 296.855469 L 796.964844 296.855469 L 796.964844 407.640625 L 705.527344 407.640625 Z M 705.527344 296.855469 " clip-rule="nonzero"/></clipPath><clipPath id="16786eb686"><path d="M 767.894531 321.628906 C 752.320312 317.796875 748.648438 317.304688 745.550781 318.285156 C 742.53125 319.261719 739.761719 321.058594 737.3125 323.992188 C 733.808594 328.152344 729.890625 337.285156 728.667969 342.667969 C 727.855469 346.421875 728.179688 349.191406 728.507812 352.535156 C 728.75 356.042969 729.402344 359.714844 730.464844 363.058594 C 731.523438 366.320312 732.664062 369.664062 734.785156 372.273438 C 736.90625 374.964844 740.25 377.246094 743.265625 379.039062 C 746.285156 380.835938 749.546875 382.875 752.808594 383.117188 C 756.070312 383.445312 760.230469 382.628906 762.839844 380.753906 C 765.367188 378.960938 766.753906 375.859375 768.222656 372.273438 C 770.34375 367.050781 769.851562 352.78125 772.625 351.882812 C 774.664062 351.230469 781.269531 357.59375 780.699219 359.0625 C 780.046875 361.019531 765.855469 360.367188 762.023438 360.121094 C 760.230469 360.039062 759.414062 359.875 758.191406 359.46875 C 756.96875 359.0625 755.746094 358.488281 754.765625 357.675781 C 753.789062 356.941406 752.808594 355.960938 752.074219 354.902344 C 751.339844 353.839844 750.769531 352.617188 750.445312 351.394531 C 750.117188 350.171875 749.953125 348.785156 750.035156 347.480469 C 750.117188 346.257812 750.363281 344.953125 750.851562 343.730469 C 751.339844 342.503906 752.074219 341.363281 752.890625 340.386719 C 753.707031 339.40625 754.683594 338.589844 755.824219 337.855469 C 756.886719 337.203125 758.191406 336.714844 759.414062 336.472656 C 760.636719 336.144531 762.023438 336.144531 763.246094 336.226562 C 764.550781 336.390625 765.855469 336.714844 767 337.285156 C 768.140625 337.777344 769.28125 338.589844 770.261719 339.40625 C 771.15625 340.304688 771.972656 341.363281 772.542969 342.503906 C 773.195312 343.648438 773.605469 344.953125 773.847656 346.175781 C 774.011719 347.480469 774.011719 348.785156 773.847656 350.089844 C 773.605469 351.3125 773.195312 352.617188 772.625 353.761719 C 771.972656 354.902344 771.15625 355.960938 770.261719 356.859375 C 769.28125 357.675781 768.222656 358.488281 767.078125 358.980469 C 765.855469 359.550781 764.550781 359.875 763.328125 360.039062 C 762.023438 360.203125 760.71875 360.121094 759.414062 359.875 C 758.191406 359.550781 756.96875 359.0625 755.824219 358.410156 C 754.765625 357.753906 753.707031 356.859375 752.890625 355.878906 C 752.074219 354.902344 751.339844 353.761719 750.851562 352.617188 C 750.445312 351.394531 750.117188 350.089844 750.035156 348.785156 C 749.953125 347.5625 750.117188 346.175781 750.445312 344.953125 C 750.769531 343.730469 751.339844 342.503906 752.074219 341.445312 C 752.808594 340.386719 753.707031 339.40625 754.765625 338.589844 C 755.746094 337.855469 756.96875 337.203125 758.191406 336.796875 C 759.332031 336.390625 760.230469 336.390625 761.941406 336.144531 C 765.695312 335.820312 774.664062 335.164062 779.71875 335.492188 C 783.554688 335.738281 787.058594 335.574219 789.75 337.203125 C 792.441406 338.835938 794.890625 341.933594 796.03125 345.035156 C 797.171875 348.214844 796.683594 351.964844 796.277344 356.207031 C 795.703125 361.914062 793.421875 370.640625 791.871094 376.105469 C 790.894531 379.855469 790.242188 382.628906 788.691406 385.644531 C 787.140625 388.746094 784.859375 391.679688 782.574219 394.371094 C 780.292969 396.902344 777.761719 399.429688 775.070312 401.304688 C 772.382812 403.261719 769.445312 404.972656 766.265625 405.953125 C 763.003906 407.011719 759.167969 407.339844 755.746094 407.257812 C 752.402344 407.175781 749.140625 406.441406 745.957031 405.707031 C 742.695312 404.894531 739.84375 404.320312 736.417969 402.527344 C 731.523438 400 724.429688 394.128906 720.433594 390.375 C 717.660156 387.683594 715.703125 385.644531 713.910156 382.957031 C 712.113281 380.101562 710.726562 377.492188 709.503906 373.820312 C 707.710938 368.4375 706.160156 359.222656 705.753906 353.597656 C 705.425781 349.683594 705.507812 346.828125 705.917969 343.484375 C 706.324219 340.058594 706.730469 337.042969 708.117188 333.128906 C 709.992188 327.664062 714.5625 319.261719 717.578125 314.207031 C 719.699219 310.617188 721.25 307.847656 723.695312 305.238281 C 726.058594 302.707031 728.996094 300.179688 732.09375 298.792969 C 735.195312 297.488281 738.78125 297.324219 742.125 297.082031 C 745.46875 296.835938 748.730469 297.082031 751.992188 297.324219 C 755.253906 297.570312 758.191406 297.734375 761.699219 298.632812 C 766.183594 299.773438 773.441406 301.648438 776.621094 304.09375 C 778.824219 305.726562 780.210938 307.683594 780.78125 309.804688 C 781.269531 311.925781 781.023438 314.859375 780.046875 316.734375 C 779.066406 318.691406 776.949219 320.730469 774.910156 321.546875 C 772.871094 322.363281 767.894531 321.628906 767.894531 321.628906 " clip-rule="nonzero"/></clipPath></defs><g clip-path="url(#80f067af34)"><g clip-path="url(#857a9e8018)"><path fill="#1e1e1e" d="M 10.378906 295.972656 L 103.03125 295.972656 L 103.03125 412.867188 L 10.378906 412.867188 Z M 10.378906 295.972656 " fill-opacity="1" fill-rule="nonzero"/></g></g><g clip-path="url(#05b79cee08)"><g clip-path="url(#9df0899bb5)"><path fill="#1e1e1e" d="M 103.03125 296.550781 L 181.769531 296.550781 L 181.769531 413.121094 L 103.03125 413.121094 Z M 103.03125 296.550781 " fill-opacity="1" fill-rule="nonzero"/></g></g><g clip-path="url(#6da8d16599)"><g clip-path="url(#07dc336e77)"><path fill="#1e1e1e" d="M 113.453125 333.191406 L 179.339844 333.191406 L 179.339844 361.972656 L 113.453125 361.972656 Z M 113.453125 333.191406 " fill-opacity="1" fill-rule="nonzero"/></g></g><g clip-path="url(#13b8a2b570)"><g clip-path="url(#d0ea47b428)"><path fill="#1e1e1e" d="M 109.8125 295.972656 L 181.320312 295.972656 L 181.320312 324.753906 L 109.8125 324.753906 Z M 109.8125 295.972656 " fill-opacity="1" fill-rule="nonzero"/></g></g><g clip-path="url(#39ba2324d0)"><g clip-path="url(#32bf24d918)"><path fill="#1e1e1e" d="M 179.289062 295.972656 L 275.792969 295.972656 L 275.792969 326.359375 L 179.289062 326.359375 Z M 179.289062 295.972656 " fill-opacity="1" fill-rule="nonzero"/></g></g><g clip-path="url(#6fa7ba44ac)"><g clip-path="url(#95c0d07f1d)"><path fill="#1e1e1e" d="M 214.910156 308.464844 L 246.308594 308.464844 L 246.308594 412.960938 L 214.910156 412.960938 Z M 214.910156 308.464844 " fill-opacity="1" fill-rule="nonzero"/></g></g><g clip-path="url(#c9825da1a5)"><g clip-path="url(#86277a4c0a)"><path fill="#1e1e1e" d="M 270.566406 297.128906 L 349.304688 297.128906 L 349.304688 413.703125 L 270.566406 413.703125 Z M 270.566406 297.128906 " fill-opacity="1" fill-rule="nonzero"/></g></g><g clip-path="url(#8830cad1a6)"><g clip-path="url(#96473fb572)"><path fill="#1e1e1e" d="M 280.988281 333.769531 L 346.875 333.769531 L 346.875 362.554688 L 280.988281 362.554688 Z M 280.988281 333.769531 " fill-opacity="1" fill-rule="nonzero"/></g></g><g clip-path="url(#832991d934)"><g clip-path="url(#212f1a3d1d)"><path fill="#1e1e1e" d="M 277.347656 296.550781 L 348.855469 296.550781 L 348.855469 325.332031 L 277.347656 325.332031 Z M 277.347656 296.550781 " fill-opacity="1" fill-rule="nonzero"/></g></g><g clip-path="url(#b5436c86ae)"><g clip-path="url(#e22e10b85e)"><path fill="#1e1e1e" d="M 345.8125 295.972656 L 441.824219 295.972656 L 441.824219 417.484375 L 345.8125 417.484375 Z M 345.8125 295.972656 " fill-opacity="1" fill-rule="nonzero"/></g></g><g clip-path="url(#02dcf81292)"><g clip-path="url(#945760bf21)"><path fill="#1e1e1e" d="M 425.660156 295.972656 L 522.164062 295.972656 L 522.164062 326.359375 L 425.660156 326.359375 Z M 425.660156 295.972656 " fill-opacity="1" fill-rule="nonzero"/></g></g><g clip-path="url(#e1c0b27948)"><g clip-path="url(#4e7370063a)"><path fill="#1e1e1e" d="M 461.28125 308.464844 L 492.679688 308.464844 L 492.679688 412.960938 L 461.28125 412.960938 Z M 461.28125 308.464844 " fill-opacity="1" fill-rule="nonzero"/></g></g><g clip-path="url(#9f689ec151)"><g clip-path="url(#0de662cde4)"><path fill="#1e1e1e" d="M 517.613281 295.0625 L 609.023438 295.0625 L 609.023438 324.648438 L 517.613281 324.648438 Z M 517.613281 295.0625 " fill-opacity="1" fill-rule="nonzero"/></g></g><g clip-path="url(#300841b789)"><g clip-path="url(#ed69fad537)"><path fill="#1e1e1e" d="M 547.523438 302.910156 L 578.167969 302.910156 L 578.167969 410.410156 L 547.523438 410.410156 Z M 547.523438 302.910156 " fill-opacity="1" fill-rule="nonzero"/></g></g><g clip-path="url(#7f72978c94)"><g clip-path="url(#88557915f4)"><path fill="#1e1e1e" d="M 516.632812 380.464844 L 616.890625 380.464844 L 616.890625 411.761719 L 516.632812 411.761719 Z M 516.632812 380.464844 " fill-opacity="1" fill-rule="nonzero"/></g></g><g clip-path="url(#8cbaa8b301)"><g clip-path="url(#9afda1add9)"><path fill="#1e1e1e" d="M 616.90625 295.0625 L 710.648438 295.0625 L 710.648438 412.972656 L 616.90625 412.972656 Z M 616.90625 295.0625 " fill-opacity="1" fill-rule="nonzero"/></g></g><g clip-path="url(#0719c7f836)"><g clip-path="url(#16786eb686)"><path fill="#1e1e1e" d="M 702.492188 293.820312 L 799.617188 293.820312 L 799.617188 410.675781 L 702.492188 410.675781 Z M 702.492188 293.820312 " fill-opacity="1" fill-rule="nonzero"/></g></g></svg>