<svg xmlns="http://www.w3.org/2000/svg" xmlns:xlink="http://www.w3.org/1999/xlink" width="1080" zoomAndPan="magnify" viewBox="0 0 810 525.000007" height="700" preserveAspectRatio="xMidYMid meet" version="1.0"><defs><clipPath id="c16f17025f"><path d="M 104.132812 301.359375 L 195.570312 301.359375 L 195.570312 412 L 104.132812 412 Z M 104.132812 301.359375 " clip-rule="nonzero"/></clipPath><clipPath id="8cecc0e35f"><path d="M 166.5 326.132812 C 150.925781 322.300781 147.253906 321.8125 144.15625 322.789062 C 141.140625 323.769531 138.367188 325.5625 135.917969 328.5 C 132.414062 332.660156 128.5 341.792969 127.277344 347.175781 C 126.460938 350.925781 126.785156 353.699219 127.113281 357.042969 C 127.355469 360.550781 128.007812 364.21875 129.070312 367.5625 C 130.128906 370.824219 131.269531 374.167969 133.390625 376.777344 C 135.511719 379.46875 138.855469 381.753906 141.875 383.546875 C 144.890625 385.339844 148.152344 387.378906 151.414062 387.625 C 154.675781 387.949219 158.835938 387.136719 161.445312 385.257812 C 163.972656 383.464844 165.359375 380.367188 166.828125 376.777344 C 168.949219 371.558594 168.457031 357.285156 171.230469 356.390625 C 173.269531 355.738281 179.875 362.097656 179.304688 363.566406 C 178.652344 365.523438 164.464844 364.871094 160.628906 364.625 C 158.835938 364.546875 158.019531 364.382812 156.796875 363.972656 C 155.574219 363.566406 154.351562 362.996094 153.371094 362.179688 C 152.394531 361.445312 151.414062 360.46875 150.679688 359.40625 C 149.945312 358.347656 149.375 357.125 149.050781 355.902344 C 148.722656 354.675781 148.558594 353.292969 148.640625 351.984375 C 148.722656 350.761719 148.96875 349.457031 149.457031 348.234375 C 149.945312 347.011719 150.679688 345.871094 151.496094 344.890625 C 152.3125 343.914062 153.289062 343.097656 154.433594 342.363281 C 155.492188 341.710938 156.796875 341.222656 158.019531 340.976562 C 159.242188 340.652344 160.628906 340.652344 161.851562 340.730469 C 163.15625 340.894531 164.464844 341.222656 165.605469 341.792969 C 166.746094 342.28125 167.886719 343.097656 168.867188 343.914062 C 169.765625 344.808594 170.578125 345.871094 171.148438 347.011719 C 171.800781 348.152344 172.210938 349.457031 172.453125 350.679688 C 172.617188 351.984375 172.617188 353.292969 172.453125 354.597656 C 172.210938 355.820312 171.800781 357.125 171.230469 358.265625 C 170.578125 359.40625 169.765625 360.46875 168.867188 361.363281 C 167.886719 362.179688 166.828125 362.996094 165.6875 363.484375 C 164.464844 364.054688 163.15625 364.382812 161.933594 364.546875 C 160.628906 364.707031 159.324219 364.625 158.019531 364.382812 C 156.796875 364.054688 155.574219 363.566406 154.433594 362.914062 C 153.371094 362.261719 152.3125 361.363281 151.496094 360.386719 C 150.679688 359.40625 149.945312 358.265625 149.457031 357.125 C 149.050781 355.902344 148.722656 354.597656 148.640625 353.292969 C 148.558594 352.066406 148.722656 350.679688 149.050781 349.457031 C 149.375 348.234375 149.945312 347.011719 150.679688 345.953125 C 151.414062 344.890625 152.3125 343.914062 153.371094 343.097656 C 154.351562 342.363281 155.574219 341.710938 156.796875 341.304688 C 157.9375 340.894531 158.835938 340.894531 160.546875 340.652344 C 164.300781 340.324219 173.269531 339.671875 178.328125 340 C 182.160156 340.242188 185.667969 340.078125 188.359375 341.710938 C 191.046875 343.339844 193.496094 346.441406 194.636719 349.539062 C 195.777344 352.71875 195.289062 356.472656 194.882812 360.710938 C 194.3125 366.421875 192.027344 375.148438 190.476562 380.609375 C 189.5 384.363281 188.847656 387.136719 187.296875 390.152344 C 185.746094 393.25 183.464844 396.1875 181.179688 398.878906 C 178.898438 401.40625 176.371094 403.933594 173.679688 405.808594 C 170.988281 407.765625 168.050781 409.480469 164.871094 410.457031 C 161.609375 411.519531 157.777344 411.84375 154.351562 411.761719 C 151.007812 411.683594 147.746094 410.949219 144.5625 410.214844 C 141.300781 409.398438 138.449219 408.828125 135.023438 407.035156 C 130.128906 404.503906 123.035156 398.632812 119.039062 394.882812 C 116.265625 392.191406 114.308594 390.152344 112.515625 387.460938 C 110.71875 384.605469 109.335938 381.996094 108.109375 378.328125 C 106.316406 372.945312 104.765625 363.730469 104.359375 358.101562 C 104.035156 354.1875 104.113281 351.332031 104.523438 347.988281 C 104.929688 344.566406 105.339844 341.546875 106.722656 337.632812 C 108.601562 332.167969 113.167969 323.769531 116.183594 318.714844 C 118.304688 315.125 119.855469 312.351562 122.300781 309.742188 C 124.664062 307.214844 127.601562 304.6875 130.699219 303.300781 C 133.800781 301.996094 137.386719 301.832031 140.730469 301.585938 C 144.074219 301.34375 147.335938 301.585938 150.597656 301.832031 C 153.859375 302.078125 156.796875 302.238281 160.304688 303.136719 C 164.789062 304.277344 172.046875 306.152344 175.226562 308.601562 C 177.429688 310.230469 178.816406 312.1875 179.386719 314.308594 C 179.875 316.429688 179.632812 319.367188 178.652344 321.242188 C 177.675781 323.199219 175.554688 325.238281 173.515625 326.054688 C 171.476562 326.867188 166.5 326.132812 166.5 326.132812 " clip-rule="nonzero"/></clipPath><clipPath id="4ca7e6cdfd"><path d="M 201.242188 301.34375 L 291.761719 301.34375 L 291.761719 411.851562 L 201.242188 411.851562 Z M 201.242188 301.34375 " clip-rule="nonzero"/></clipPath><clipPath id="9a5ab234b7"><path d="M 201.519531 367.472656 C 202.425781 353.101562 203.746094 349.972656 204.570312 346.675781 C 205.476562 343.210938 205.96875 339.578125 207.121094 336.28125 C 208.195312 332.984375 209.511719 329.769531 211.242188 326.980469 C 212.972656 324.109375 215.359375 321.65625 217.585938 319.121094 C 219.890625 316.414062 222.28125 313.625 224.917969 311.175781 C 227.554688 308.808594 230.355469 306.1875 233.484375 304.582031 C 236.699219 302.972656 240.488281 302.128906 244.03125 301.707031 C 247.574219 301.199219 251.28125 301.453125 254.742188 301.875 C 258.117188 302.296875 261.414062 303.058594 264.460938 304.242188 C 267.59375 305.425781 270.640625 306.949219 273.277344 309.0625 C 276.078125 311.34375 278.386719 314.808594 280.527344 317.769531 C 282.585938 320.640625 284.316406 323.347656 285.882812 326.390625 C 287.363281 329.433594 288.683594 332.730469 289.671875 336.109375 C 290.578125 339.578125 291.070312 343.296875 291.402344 346.847656 C 291.648438 350.398438 291.484375 353.945312 291.402344 357.582031 C 291.402344 361.300781 291.402344 365.273438 290.988281 368.992188 C 290.578125 372.542969 289.917969 376.09375 288.847656 379.390625 C 287.777344 382.773438 286.375 386.152344 284.644531 389.195312 C 282.917969 392.15625 280.9375 394.777344 278.550781 397.398438 C 275.996094 400.355469 272.867188 404.074219 269.570312 406.101562 C 266.605469 407.878906 261.167969 408.640625 259.847656 409.144531 C 259.519531 409.230469 259.4375 409.316406 259.273438 409.398438 C 259.105469 409.484375 258.941406 409.398438 258.695312 409.484375 C 258.53125 409.484375 258.285156 409.652344 257.953125 409.738281 C 257.625 409.738281 257.128906 409.652344 256.71875 409.738281 C 256.222656 409.738281 255.730469 409.90625 255.398438 409.90625 C 255.152344 409.824219 254.988281 409.738281 254.742188 409.738281 C 254.492188 409.738281 254.328125 409.738281 254.082031 409.738281 C 253.753906 409.652344 253.011719 409.316406 252.847656 409.316406 C 252.847656 409.316406 252.847656 409.316406 252.761719 409.316406 C 252.597656 409.316406 251.855469 410.078125 251.28125 410.414062 C 250.621094 410.753906 249.796875 411.089844 248.972656 411.257812 C 248.234375 411.429688 246.585938 411.597656 246.585938 411.597656 C 246.585938 411.597656 244.277344 411.683594 242.628906 411.597656 C 240.078125 411.511719 235.792969 411.257812 232.496094 410.414062 C 229.285156 409.484375 225.90625 408.132812 223.1875 406.273438 C 220.46875 404.328125 218.164062 401.792969 216.101562 399.085938 C 213.960938 396.464844 212.148438 393.507812 210.417969 390.378906 C 208.523438 386.914062 206.792969 383.027344 205.308594 379.308594 C 203.828125 375.417969 201.519531 367.472656 201.519531 367.472656 M 224.671875 367.472656 C 230.027344 380.488281 231.015625 384.039062 233.320312 386.238281 C 235.710938 388.605469 240.324219 390.296875 242.628906 390.886719 C 243.949219 391.140625 245.183594 391.226562 245.84375 390.886719 C 246.171875 390.71875 246.253906 390.464844 246.421875 390.210938 C 246.667969 389.875 246.914062 389.28125 247.160156 389.027344 C 247.328125 388.859375 247.574219 388.773438 247.65625 388.605469 C 247.820312 388.519531 247.902344 388.265625 248.148438 388.097656 C 248.398438 387.929688 248.890625 387.675781 249.222656 387.421875 C 249.550781 387.167969 249.960938 386.828125 250.292969 386.578125 C 250.457031 386.492188 250.703125 386.492188 250.867188 386.40625 C 251.117188 386.324219 251.199219 386.152344 251.445312 386.070312 C 251.773438 385.898438 252.269531 385.898438 252.679688 385.730469 C 253.175781 385.648438 253.917969 385.308594 253.917969 385.308594 C 253.917969 385.308594 259.683594 381.503906 261.824219 378.882812 C 263.886719 376.261719 265.53125 372.96875 266.523438 369.753906 C 267.511719 366.457031 267.34375 362.90625 267.511719 359.355469 C 267.675781 355.554688 267.921875 351.410156 267.429688 347.691406 C 266.933594 344.226562 266.027344 340.761719 264.625 337.632812 C 263.308594 334.589844 261.742188 331.125 259.273438 329.09375 C 256.800781 327.152344 252.847656 325.796875 249.632812 325.796875 C 246.421875 325.882812 242.960938 327.65625 240.160156 329.515625 C 237.359375 331.378906 234.804688 334.082031 232.828125 336.871094 C 230.765625 339.746094 229.285156 343.128906 228.046875 346.507812 C 226.8125 349.804688 225.90625 353.269531 225.328125 356.738281 C 224.753906 360.285156 224.671875 367.472656 224.671875 367.472656 " clip-rule="nonzero"/></clipPath><clipPath id="a499d3696b"><path d="M 378.566406 301.183594 L 407.71875 301.183594 L 407.71875 412.925781 L 378.566406 412.925781 Z M 378.566406 301.183594 " clip-rule="nonzero"/></clipPath><clipPath id="669855fa9c"><path d="M 399.066406 311.167969 C 406.488281 380.238281 408.40625 394.167969 407.488281 401.09375 C 407.074219 404.429688 406.574219 406.265625 405.15625 408.183594 C 403.734375 410.019531 400.898438 411.601562 399.066406 412.269531 C 397.730469 412.769531 396.730469 412.9375 395.3125 412.6875 C 393.308594 412.4375 390.222656 411.4375 388.386719 409.933594 C 386.636719 408.433594 385.21875 405.511719 384.632812 403.59375 C 384.21875 402.261719 384.132812 401.257812 384.382812 399.839844 C 384.800781 397.921875 385.886719 394.835938 387.46875 393.167969 C 389.136719 391.414062 392.140625 390.164062 394.058594 389.664062 C 395.394531 389.332031 396.394531 389.332031 397.8125 389.664062 C 399.730469 390.164062 402.734375 391.414062 404.320312 393.167969 C 405.988281 394.835938 407.238281 397.503906 407.488281 399.839844 C 407.742188 402.175781 407.074219 405.097656 405.820312 407.097656 C 404.652344 409.101562 401.984375 411.019531 400.234375 411.9375 C 398.980469 412.519531 397.980469 412.769531 396.5625 412.6875 C 394.5625 412.6875 391.390625 412.019531 389.390625 410.683594 C 387.46875 409.433594 385.71875 407.265625 384.96875 404.847656 C 383.964844 401.925781 385.132812 399.339844 384.882812 394.085938 C 384.300781 380.070312 378.460938 329.269531 378.710938 316.007812 C 378.792969 311.417969 378.792969 309.085938 379.710938 306.832031 C 380.464844 305.164062 381.632812 303.996094 382.882812 303.078125 C 384.21875 302.160156 385.886719 301.492188 387.46875 301.328125 C 388.972656 301.078125 390.808594 301.242188 392.308594 301.742188 C 393.808594 302.328125 395.3125 303.160156 396.394531 304.496094 C 397.648438 306.082031 399.066406 311.167969 399.066406 311.167969 " clip-rule="nonzero"/></clipPath><clipPath id="bff7269439"><path d="M 388.046875 337.476562 L 445.574219 337.476562 L 445.574219 360.464844 L 388.046875 360.464844 Z M 388.046875 337.476562 " clip-rule="nonzero"/></clipPath><clipPath id="7749b8fdc5"><path d="M 398.148438 339.195312 C 437.519531 338.027344 439.273438 338.445312 441.023438 339.78125 C 442.773438 341.117188 444.277344 343.785156 444.945312 345.535156 C 445.445312 346.789062 445.527344 347.707031 445.359375 349.039062 C 445.195312 350.875 444.277344 353.878906 442.859375 355.546875 C 441.441406 357.214844 438.6875 358.632812 436.9375 359.21875 C 435.683594 359.632812 434.601562 359.550781 433.433594 359.382812 C 432.265625 359.300781 431.179688 359.132812 430.011719 358.464844 C 428.34375 357.632812 425.925781 355.714844 424.925781 353.796875 C 423.839844 351.792969 423.589844 348.789062 423.671875 346.871094 C 423.757812 345.535156 424.257812 344.535156 424.757812 343.535156 C 425.339844 342.535156 425.839844 341.53125 426.925781 340.699219 C 428.34375 339.53125 431.347656 338.113281 433.183594 337.695312 C 434.515625 337.445312 435.433594 337.445312 436.6875 337.863281 C 438.519531 338.363281 441.273438 339.699219 442.773438 341.367188 C 444.191406 343.035156 445.109375 346.039062 445.359375 347.871094 C 445.609375 349.207031 445.445312 350.125 445.027344 351.375 C 444.445312 353.128906 442.523438 355.878906 441.191406 357.214844 C 440.1875 358.050781 439.523438 358.382812 438.105469 358.882812 C 435.269531 359.71875 430.011719 359.96875 424.757812 360.21875 C 417.417969 360.46875 404.070312 360.800781 398.148438 359.632812 C 395.0625 359.050781 393.058594 358.382812 391.390625 357.046875 C 390.054688 356.046875 389.136719 354.628906 388.636719 353.042969 C 387.96875 351.042969 387.96875 347.789062 388.636719 345.785156 C 389.136719 344.117188 390.054688 342.785156 391.390625 341.78125 C 393.058594 340.449219 398.148438 339.195312 398.148438 339.195312 " clip-rule="nonzero"/></clipPath><clipPath id="4f5ce61047"><path d="M 428.554688 301.726562 L 459.238281 301.726562 L 459.238281 410.832031 L 428.554688 410.832031 Z M 428.554688 301.726562 " clip-rule="nonzero"/></clipPath><clipPath id="bd620eb6a1"><path d="M 448.863281 311.503906 C 453.117188 349.707031 457.121094 367.308594 458.125 378.902344 C 458.875 387.246094 459.625 395.335938 458.625 400.425781 C 458.039062 403.429688 456.789062 405.597656 455.539062 407.179688 C 454.621094 408.265625 453.871094 408.933594 452.535156 409.433594 C 450.699219 410.269531 447.53125 411.101562 445.277344 410.683594 C 442.941406 410.351562 440.273438 408.933594 438.6875 407.265625 C 437.019531 405.597656 435.769531 402.84375 435.519531 400.507812 C 435.269531 398.171875 435.851562 395.335938 437.101562 393.25 C 438.269531 391.25 440.523438 389.332031 442.691406 388.496094 C 444.859375 387.578125 448.195312 387.664062 450.117188 387.996094 C 451.535156 388.328125 452.453125 388.746094 453.535156 389.582031 C 455.121094 390.832031 457.289062 393.25 458.039062 395.503906 C 458.789062 397.671875 458.789062 400.675781 458.125 402.925781 C 457.371094 405.097656 455.203125 407.515625 453.621094 408.851562 C 452.535156 409.683594 451.617188 410.101562 450.199219 410.433594 C 448.28125 410.769531 444.695312 410.601562 442.773438 410.019531 C 441.441406 409.601562 440.605469 409.101562 439.605469 408.097656 C 438.1875 406.679688 436.601562 404.679688 435.769531 401.757812 C 434.351562 396.921875 435.933594 388.246094 435.351562 380.40625 C 434.515625 370.8125 431.847656 359.132812 430.679688 348.539062 C 429.59375 338.113281 428.59375 324.765625 428.59375 317.34375 C 428.675781 313.171875 428.511719 310.085938 429.429688 307.667969 C 430.097656 305.996094 431.261719 304.828125 432.515625 303.828125 C 433.765625 302.910156 435.433594 302.160156 437.019531 301.910156 C 438.605469 301.660156 440.355469 301.828125 441.859375 302.328125 C 443.359375 302.828125 444.945312 303.578125 446.027344 304.914062 C 447.363281 306.5 448.863281 311.503906 448.863281 311.503906 " clip-rule="nonzero"/></clipPath><clipPath id="3de6017e16"><path d="M 464.421875 301.644531 L 537.625 301.644531 L 537.625 412 L 464.421875 412 Z M 464.421875 301.644531 " clip-rule="nonzero"/></clipPath><clipPath id="e3bbdf105b"><path d="M 487.269531 311.96875 C 488.675781 388.558594 490.414062 394.429688 490.496094 397.65625 C 490.496094 398.980469 490.414062 399.394531 490.164062 400.386719 C 489.667969 401.875 488.511719 404.109375 487.601562 405.265625 C 486.941406 406.175781 486.359375 406.589844 485.449219 407.167969 C 484.210938 407.914062 481.8125 408.824219 480.324219 409.070312 C 479.246094 409.320312 478.585938 409.320312 477.511719 409.070312 C 476.023438 408.824219 473.871094 408.160156 472.382812 407.167969 C 470.894531 406.09375 469.570312 404.605469 468.742188 403.03125 C 467.914062 401.460938 467.171875 399.558594 467.417969 397.65625 C 467.75 395.007812 469.734375 390.875 472.21875 388.890625 C 474.699219 386.902344 478.335938 386.242188 482.390625 385.910156 C 488.015625 385.414062 495.953125 387.894531 503.234375 388.144531 C 511.171875 388.476562 523.828125 386.574219 528.378906 387.398438 C 530.113281 387.730469 530.777344 388.226562 531.851562 388.890625 C 532.925781 389.550781 533.917969 390.460938 534.746094 391.453125 C 535.574219 392.445312 536.234375 393.601562 536.648438 394.761719 C 537.0625 396.003906 537.308594 397.324219 537.394531 398.566406 C 537.394531 399.808594 537.226562 401.128906 536.898438 402.371094 C 536.484375 403.527344 535.902344 404.769531 535.160156 405.84375 C 534.414062 406.835938 533.503906 407.828125 532.429688 408.492188 C 531.4375 409.234375 530.195312 409.898438 529.039062 410.226562 C 527.796875 410.640625 526.476562 410.808594 525.234375 410.808594 C 523.992188 410.726562 522.671875 410.476562 521.429688 410.0625 C 520.273438 409.648438 519.113281 408.988281 518.121094 408.160156 C 517.128906 407.417969 516.21875 406.421875 515.558594 405.347656 C 514.8125 404.273438 514.316406 403.03125 513.984375 401.792969 C 513.65625 400.550781 513.574219 399.226562 513.65625 397.988281 C 513.738281 396.746094 514.070312 395.421875 514.566406 394.265625 C 515.0625 393.105469 515.804688 391.949219 516.632812 391.039062 C 517.460938 390.046875 518.535156 389.21875 519.609375 388.558594 C 520.769531 387.980469 522.007812 387.484375 523.25 387.234375 C 524.488281 386.988281 525.8125 386.988281 527.054688 387.152344 C 528.292969 387.316406 529.617188 387.730469 530.777344 388.226562 C 531.851562 388.804688 533.007812 389.632812 533.917969 390.460938 C 534.746094 391.371094 535.574219 392.445312 536.152344 393.601562 C 536.730469 394.761719 537.0625 396.003906 537.226562 397.242188 C 537.476562 398.484375 537.394531 399.890625 537.144531 401.128906 C 536.980469 402.371094 536.484375 403.613281 535.820312 404.6875 C 535.242188 405.84375 534.414062 406.835938 533.421875 407.746094 C 532.511719 408.574219 531.6875 409.234375 530.195312 409.816406 C 527.964844 410.640625 524.65625 410.808594 520.933594 411.136719 C 515.476562 411.632812 507.285156 412.046875 500.585938 411.632812 C 493.886719 411.304688 481.730469 411.71875 480.734375 408.988281 C 479.828125 406.589844 489.667969 397.242188 490.496094 397.65625 C 490.910156 397.90625 489.75 401.625 489.171875 403.03125 C 488.675781 403.941406 488.179688 404.605469 487.601562 405.265625 C 486.941406 406.011719 486.359375 406.589844 485.449219 407.167969 C 484.210938 407.914062 482.058594 408.90625 480.324219 409.070312 C 478.585938 409.320312 476.269531 408.90625 474.863281 408.410156 C 473.789062 408.160156 473.210938 407.828125 472.382812 407.167969 C 471.222656 406.257812 469.734375 405.183594 468.742188 403.03125 C 466.675781 398.730469 465.847656 390.460938 465.269531 380.949219 C 464.195312 363.910156 463.78125 319.992188 467.253906 309.488281 C 468.328125 306.179688 469.488281 304.855469 471.308594 303.53125 C 473.210938 302.289062 476.105469 301.546875 478.335938 301.878906 C 480.570312 302.125 483.21875 303.53125 484.707031 305.1875 C 486.195312 306.839844 487.269531 311.96875 487.269531 311.96875 " clip-rule="nonzero"/></clipPath><clipPath id="4d2004cb53"><path d="M 475.644531 338.695312 L 535 338.695312 L 535 360.957031 L 475.644531 360.957031 Z M 475.644531 338.695312 " clip-rule="nonzero"/></clipPath><clipPath id="f4527357ec"><path d="M 485.617188 340.335938 C 523.496094 338.683594 526.0625 338.601562 528.460938 339.757812 C 530.609375 340.75 532.511719 342.570312 533.589844 344.472656 C 534.582031 346.375 535.078125 349.1875 534.746094 351.339844 C 534.414062 353.488281 533.175781 355.96875 531.601562 357.542969 C 529.949219 359.03125 527.136719 360.1875 525.316406 360.519531 C 523.992188 360.765625 522.917969 360.601562 521.761719 360.355469 C 520.601562 360.105469 519.527344 359.859375 518.453125 359.113281 C 516.964844 358.039062 514.730469 355.554688 513.902344 353.820312 C 513.324219 352.660156 513.074219 351.75 513.074219 350.429688 C 513.160156 348.527344 513.984375 345.300781 514.894531 343.644531 C 515.558594 342.488281 516.136719 341.828125 517.292969 341.082031 C 518.867188 340.089844 522.007812 338.929688 523.828125 338.765625 C 525.152344 338.683594 526.144531 338.847656 527.386719 339.34375 C 529.039062 340.007812 531.6875 341.660156 532.925781 343.480469 C 534.167969 345.300781 534.828125 348.277344 534.910156 350.179688 C 534.910156 351.503906 534.746094 352.414062 534.167969 353.652344 C 533.339844 355.308594 531.601562 357.789062 529.699219 358.949219 C 527.796875 360.105469 525.566406 360.355469 522.917969 360.519531 C 519.445312 360.851562 514.480469 359.941406 510.429688 359.941406 C 506.707031 360.023438 503.5625 360.601562 499.59375 360.683594 C 494.714844 360.765625 487.1875 361.429688 483.21875 360.105469 C 480.652344 359.195312 478.585938 357.871094 477.34375 356.054688 C 476.105469 354.234375 475.523438 351.171875 475.691406 349.105469 C 475.773438 347.449219 476.519531 345.878906 477.34375 344.636719 C 478.253906 343.398438 479.578125 342.15625 480.984375 341.496094 C 482.308594 340.75 485.617188 340.335938 485.617188 340.335938 " clip-rule="nonzero"/></clipPath><clipPath id="0baf85ab4b"><path d="M 471.890625 301.25 L 536.992188 301.25 L 536.992188 323.851562 L 471.890625 323.851562 Z M 471.890625 301.25 " clip-rule="nonzero"/></clipPath><clipPath id="ab7c5498ab"><path d="M 482.554688 301.296875 C 532.429688 303.035156 533.753906 304.441406 534.996094 306.261719 C 536.234375 308.082031 536.8125 311.140625 536.898438 313.042969 C 536.898438 314.367188 536.730469 315.277344 536.152344 316.515625 C 535.242188 318.171875 533.503906 320.734375 531.601562 321.894531 C 529.699219 322.96875 526.890625 323.628906 524.738281 323.382812 C 522.503906 323.132812 519.777344 321.644531 518.285156 320.40625 C 517.292969 319.578125 516.714844 318.585938 516.136719 317.59375 C 515.640625 316.515625 515.144531 315.523438 515.0625 314.199219 C 514.894531 312.296875 515.390625 308.992188 516.136719 307.253906 C 516.714844 306.011719 517.292969 305.269531 518.285156 304.441406 C 519.777344 303.285156 522.503906 301.710938 524.738281 301.464844 C 526.890625 301.214844 529.867188 302.125 531.601562 303.035156 C 532.761719 303.613281 533.503906 304.191406 534.25 305.269531 C 535.40625 306.839844 536.730469 309.652344 536.898438 311.800781 C 536.980469 314.035156 535.902344 316.929688 534.996094 318.585938 C 534.332031 319.742188 533.671875 320.488281 532.597656 321.230469 C 530.941406 322.222656 528.792969 322.96875 525.894531 323.464844 C 520.851562 324.210938 511.671875 323.382812 504.390625 323.050781 C 496.863281 322.71875 486.773438 322.636719 481.5625 321.3125 C 478.667969 320.570312 476.683594 320.074219 475.027344 318.503906 C 473.457031 316.929688 472.300781 314.035156 472.050781 312.050781 C 471.804688 310.394531 472.21875 308.742188 472.878906 307.335938 C 473.457031 305.847656 474.367188 304.441406 475.773438 303.53125 C 477.425781 302.289062 482.554688 301.296875 482.554688 301.296875 " clip-rule="nonzero"/></clipPath><clipPath id="b4d5231057"><path d="M 543.847656 302.164062 L 627 302.164062 L 627 414.339844 L 543.847656 414.339844 Z M 543.847656 302.164062 " clip-rule="nonzero"/></clipPath><clipPath id="679f402834"><path d="M 546.265625 400.199219 C 544.875 337.75 543.730469 331.59375 543.976562 326.234375 C 544.140625 322.398438 544.304688 319.359375 545.53125 316.480469 C 546.839844 313.601562 549.050781 310.804688 551.585938 308.722656 C 554.042969 306.566406 557.398438 304.964844 560.589844 303.925781 C 563.78125 302.96875 567.300781 302.726562 570.738281 302.566406 C 574.339844 302.40625 577.535156 302.328125 581.625 303.046875 C 587.273438 304.007812 596.277344 306.964844 601.515625 309.125 C 605.363281 310.722656 607.980469 312.082031 610.84375 314.082031 C 613.710938 316 616.492188 318.320312 618.785156 320.878906 C 620.996094 323.515625 623.042969 326.636719 624.351562 329.753906 C 625.660156 332.871094 626.480469 336.3125 626.640625 339.589844 C 626.886719 342.789062 626.722656 345.988281 625.742188 349.183594 C 624.597656 352.542969 622.714844 356.78125 620.09375 359.179688 C 617.640625 361.5 614.527344 362.378906 610.601562 363.496094 C 605.117188 365.175781 596.769531 365.898438 589.8125 366.617188 C 582.933594 367.417969 574.914062 368.617188 569.101562 367.976562 C 564.765625 367.417969 560.261719 366.9375 557.808594 364.617188 C 555.515625 362.296875 553.960938 357.660156 554.453125 354.382812 C 555.023438 350.785156 558.789062 345.90625 562.0625 344.066406 C 565.09375 342.386719 569.265625 343.1875 572.867188 343.1875 C 576.386719 343.109375 580.070312 343.425781 583.671875 343.828125 C 587.273438 344.226562 591.039062 344.785156 594.394531 345.746094 C 597.585938 346.707031 600.859375 347.664062 603.480469 349.503906 C 606.097656 351.421875 607.980469 354.300781 609.863281 356.941406 C 611.828125 359.578125 613.546875 362.296875 615.101562 365.175781 C 616.574219 368.136719 617.882812 370.535156 619.03125 374.214844 C 620.585938 379.648438 622.796875 394.761719 622.632812 394.84375 C 622.550781 394.84375 621.894531 393.003906 622.058594 392.925781 C 622.304688 392.84375 624.023438 394.683594 624.761719 395.644531 C 625.496094 396.683594 626.070312 397.882812 626.398438 399.082031 C 626.804688 400.28125 626.96875 401.640625 626.886719 402.839844 C 626.804688 404.117188 626.5625 405.398438 626.070312 406.597656 C 625.578125 407.71875 624.921875 408.917969 624.105469 409.875 C 623.285156 410.835938 622.304688 411.636719 621.160156 412.355469 C 620.09375 412.996094 618.867188 413.472656 617.558594 413.792969 C 616.328125 414.035156 615.019531 414.113281 613.710938 414.035156 C 612.484375 413.875 611.089844 413.554688 609.945312 412.996094 C 608.800781 412.515625 607.652344 411.796875 606.753906 410.914062 C 605.769531 410.117188 604.953125 409.078125 604.378906 407.957031 C 603.726562 406.835938 603.316406 405.558594 603.070312 404.359375 C 602.824219 403.160156 602.824219 401.800781 603.070312 400.601562 C 603.234375 399.320312 603.644531 398.042969 604.214844 397.003906 C 604.789062 395.882812 605.605469 394.761719 606.589844 393.882812 C 607.488281 393.082031 608.554688 392.285156 609.78125 391.722656 C 610.925781 391.246094 612.238281 390.84375 613.464844 390.683594 C 614.773438 390.523438 616.082031 390.605469 617.3125 390.84375 C 618.621094 391.164062 619.847656 391.644531 620.996094 392.203125 C 622.058594 392.84375 623.121094 393.722656 623.941406 394.683594 C 624.761719 395.644531 625.496094 396.761719 625.988281 397.882812 C 626.480469 399.082031 626.804688 400.359375 626.886719 401.558594 C 626.96875 402.839844 626.804688 404.199219 626.480469 405.398438 C 626.152344 406.597656 625.578125 407.796875 624.921875 408.835938 C 624.1875 409.875 623.285156 410.835938 622.222656 411.636719 C 621.242188 412.355469 620.011719 412.996094 618.867188 413.394531 C 617.640625 413.792969 616.246094 414.035156 615.019531 414.035156 C 613.710938 414.113281 612.402344 413.875 611.171875 413.472656 C 609.945312 413.074219 608.964844 412.59375 607.734375 411.714844 C 606.097656 410.675781 603.886719 409.234375 602.414062 407.15625 C 600.613281 404.597656 599.632812 401 598.488281 397.082031 C 597.011719 391.804688 596.523438 383.167969 594.886719 378.050781 C 593.65625 374.453125 593.332031 371.09375 590.464844 369.09375 C 586.535156 366.136719 571.722656 368.777344 570.414062 365.976562 C 569.429688 363.816406 575.894531 360.058594 576.386719 356.621094 C 576.878906 353.023438 571.066406 347.105469 572.785156 344.628906 C 574.914062 341.429688 587.765625 343.507812 593.25 342.308594 C 597.09375 341.507812 602.414062 341.027344 602.90625 339.269531 C 603.316406 337.511719 599.222656 333.992188 595.949219 331.914062 C 591.449219 328.953125 582.199219 325.996094 576.714844 325.195312 C 572.785156 324.636719 567.957031 323.835938 566.402344 325.597656 C 564.683594 327.355469 567.058594 331.832031 567.136719 336.230469 C 567.382812 343.585938 567.136719 355.261719 566.976562 365.417969 C 566.894531 376.53125 567.058594 394.042969 566.238281 400.199219 C 565.992188 402.4375 565.992188 403.320312 565.09375 404.757812 C 564.027344 406.4375 561.65625 408.515625 559.773438 409.394531 C 558.300781 410.035156 556.660156 410.195312 555.023438 409.957031 C 553.0625 409.554688 550.195312 408.277344 548.722656 406.675781 C 547.25 405.078125 546.265625 400.199219 546.265625 400.199219 " clip-rule="nonzero"/></clipPath><clipPath id="f0ac5489a2"><path d="M 632.621094 304 L 705.828125 304 L 705.828125 414.351562 L 632.621094 414.351562 Z M 632.621094 304 " clip-rule="nonzero"/></clipPath><clipPath id="1f6a9de0b2"><path d="M 655.472656 314.253906 C 656.878906 390.84375 658.613281 396.71875 658.695312 399.941406 C 658.695312 401.265625 658.613281 401.679688 658.367188 402.671875 C 657.871094 404.160156 656.710938 406.394531 655.800781 407.550781 C 655.140625 408.460938 654.5625 408.875 653.652344 409.453125 C 652.410156 410.199219 650.011719 411.109375 648.523438 411.355469 C 647.449219 411.605469 646.785156 411.605469 645.710938 411.355469 C 644.222656 411.109375 642.070312 410.449219 640.582031 409.453125 C 639.09375 408.378906 637.769531 406.890625 636.945312 405.320312 C 636.117188 403.746094 635.371094 401.84375 635.621094 399.941406 C 635.953125 397.296875 637.9375 393.160156 640.417969 391.175781 C 642.898438 389.191406 646.539062 388.527344 650.589844 388.199219 C 656.214844 387.703125 664.15625 390.183594 671.433594 390.429688 C 679.375 390.761719 692.03125 388.859375 696.578125 389.6875 C 698.316406 390.019531 698.976562 390.515625 700.050781 391.175781 C 701.128906 391.835938 702.121094 392.746094 702.949219 393.738281 C 703.773438 394.730469 704.4375 395.890625 704.851562 397.046875 C 705.261719 398.289062 705.511719 399.613281 705.59375 400.851562 C 705.59375 402.09375 705.429688 403.417969 705.097656 404.65625 C 704.683594 405.816406 704.105469 407.054688 703.359375 408.132812 C 702.617188 409.125 701.707031 410.117188 700.632812 410.777344 C 699.640625 411.523438 698.398438 412.183594 697.242188 412.515625 C 696 412.929688 694.675781 413.09375 693.4375 413.09375 C 692.195312 413.011719 690.871094 412.761719 689.632812 412.351562 C 688.472656 411.9375 687.316406 411.273438 686.324219 410.449219 C 685.328125 409.703125 684.421875 408.710938 683.757812 407.636719 C 683.015625 406.558594 682.519531 405.320312 682.1875 404.078125 C 681.855469 402.835938 681.773438 401.515625 681.855469 400.273438 C 681.9375 399.03125 682.269531 397.710938 682.765625 396.550781 C 683.261719 395.394531 684.007812 394.234375 684.832031 393.324219 C 685.660156 392.332031 686.734375 391.507812 687.8125 390.84375 C 688.96875 390.265625 690.210938 389.769531 691.449219 389.519531 C 692.691406 389.273438 694.015625 389.273438 695.253906 389.4375 C 696.496094 389.605469 697.820312 390.019531 698.976562 390.515625 C 700.050781 391.09375 701.210938 391.921875 702.121094 392.746094 C 702.949219 393.65625 703.773438 394.730469 704.351562 395.890625 C 704.933594 397.046875 705.261719 398.289062 705.429688 399.53125 C 705.675781 400.769531 705.59375 402.175781 705.347656 403.417969 C 705.179688 404.65625 704.683594 405.898438 704.023438 406.972656 C 703.445312 408.132812 702.617188 409.125 701.625 410.035156 C 700.714844 410.859375 699.886719 411.523438 698.398438 412.101562 C 696.164062 412.929688 692.855469 413.09375 689.132812 413.425781 C 683.675781 413.921875 675.488281 414.335938 668.789062 413.921875 C 662.089844 413.589844 649.929688 414.003906 648.9375 411.273438 C 648.027344 408.875 657.871094 399.53125 658.695312 399.941406 C 659.109375 400.191406 657.953125 403.914062 657.375 405.320312 C 656.878906 406.230469 656.382812 406.890625 655.800781 407.550781 C 655.140625 408.296875 654.5625 408.875 653.652344 409.453125 C 652.410156 410.199219 650.261719 411.191406 648.523438 411.355469 C 646.785156 411.605469 644.472656 411.191406 643.066406 410.695312 C 641.988281 410.449219 641.410156 410.117188 640.582031 409.453125 C 639.425781 408.546875 637.9375 407.46875 636.945312 405.320312 C 634.875 401.019531 634.050781 392.746094 633.46875 383.234375 C 632.394531 366.195312 631.980469 322.277344 635.457031 311.773438 C 636.53125 308.464844 637.6875 307.140625 639.507812 305.816406 C 641.410156 304.578125 644.304688 303.832031 646.539062 304.164062 C 648.773438 304.410156 651.417969 305.816406 652.90625 307.472656 C 654.394531 309.125 655.472656 314.253906 655.472656 314.253906 " clip-rule="nonzero"/></clipPath><clipPath id="94097a0a16"><path d="M 643.84375 341 L 703.210938 341 L 703.210938 363.242188 L 643.84375 363.242188 Z M 643.84375 341 " clip-rule="nonzero"/></clipPath><clipPath id="50bd0ed286"><path d="M 653.816406 342.625 C 691.699219 340.96875 694.261719 340.886719 696.660156 342.046875 C 698.8125 343.039062 700.714844 344.859375 701.789062 346.761719 C 702.78125 348.664062 703.277344 351.472656 702.949219 353.625 C 702.617188 355.773438 701.375 358.257812 699.804688 359.828125 C 698.148438 361.316406 695.339844 362.476562 693.519531 362.804688 C 692.195312 363.054688 691.121094 362.886719 689.960938 362.640625 C 688.804688 362.390625 687.730469 362.144531 686.652344 361.398438 C 685.164062 360.324219 682.929688 357.84375 682.105469 356.105469 C 681.523438 354.949219 681.277344 354.039062 681.277344 352.714844 C 681.359375 350.8125 682.1875 347.585938 683.097656 345.933594 C 683.757812 344.773438 684.335938 344.113281 685.496094 343.367188 C 687.066406 342.375 690.210938 341.21875 692.03125 341.054688 C 693.351562 340.96875 694.34375 341.136719 695.585938 341.632812 C 697.242188 342.292969 699.886719 343.949219 701.128906 345.765625 C 702.367188 347.585938 703.03125 350.566406 703.113281 352.46875 C 703.113281 353.789062 702.949219 354.699219 702.367188 355.941406 C 701.542969 357.59375 699.804688 360.078125 697.902344 361.234375 C 696 362.390625 693.765625 362.640625 691.121094 362.804688 C 687.644531 363.136719 682.683594 362.226562 678.628906 362.226562 C 674.910156 362.308594 671.765625 362.886719 667.796875 362.972656 C 662.914062 363.054688 655.386719 363.714844 651.417969 362.390625 C 648.855469 361.484375 646.785156 360.160156 645.546875 358.339844 C 644.304688 356.519531 643.726562 353.460938 643.890625 351.390625 C 643.976562 349.738281 644.71875 348.164062 645.546875 346.925781 C 646.457031 345.683594 647.777344 344.445312 649.183594 343.78125 C 650.507812 343.039062 653.816406 342.625 653.816406 342.625 " clip-rule="nonzero"/></clipPath><clipPath id="0395c857c0"><path d="M 640.09375 303.539062 L 705.191406 303.539062 L 705.191406 326.136719 L 640.09375 326.136719 Z M 640.09375 303.539062 " clip-rule="nonzero"/></clipPath><clipPath id="45b8d599fb"><path d="M 650.757812 303.585938 C 700.632812 305.320312 701.953125 306.726562 703.195312 308.546875 C 704.4375 310.367188 705.015625 313.425781 705.097656 315.328125 C 705.097656 316.652344 704.933594 317.5625 704.351562 318.804688 C 703.445312 320.457031 701.707031 323.023438 699.804688 324.179688 C 697.902344 325.253906 695.089844 325.917969 692.9375 325.667969 C 690.707031 325.421875 687.976562 323.933594 686.488281 322.691406 C 685.496094 321.863281 684.917969 320.871094 684.335938 319.878906 C 683.839844 318.804688 683.34375 317.8125 683.261719 316.488281 C 683.097656 314.585938 683.59375 311.277344 684.335938 309.539062 C 684.917969 308.300781 685.496094 307.554688 686.488281 306.726562 C 687.976562 305.570312 690.707031 304 692.9375 303.75 C 695.089844 303.503906 698.066406 304.410156 699.804688 305.320312 C 700.960938 305.902344 701.707031 306.480469 702.449219 307.554688 C 703.609375 309.125 704.933594 311.9375 705.097656 314.089844 C 705.179688 316.324219 704.105469 319.21875 703.195312 320.871094 C 702.535156 322.03125 701.871094 322.773438 700.796875 323.519531 C 699.144531 324.511719 696.992188 325.253906 694.097656 325.75 C 689.050781 326.496094 679.871094 325.667969 672.59375 325.335938 C 665.066406 325.007812 654.976562 324.925781 649.765625 323.601562 C 646.871094 322.855469 644.882812 322.359375 643.230469 320.789062 C 641.660156 319.21875 640.5 316.324219 640.253906 314.335938 C 640.003906 312.683594 640.417969 311.027344 641.078125 309.621094 C 641.660156 308.132812 642.570312 306.726562 643.976562 305.816406 C 645.628906 304.578125 650.757812 303.585938 650.757812 303.585938 " clip-rule="nonzero"/></clipPath></defs><g clip-path="url(#c16f17025f)"><g clip-path="url(#8cecc0e35f)"><path fill="#1e1e1e" d="M 101.097656 298.324219 L 198.226562 298.324219 L 198.226562 415.183594 L 101.097656 415.183594 Z M 101.097656 298.324219 " fill-opacity="1" fill-rule="nonzero"/></g></g><g clip-path="url(#4ca7e6cdfd)"><g clip-path="url(#9a5ab234b7)"><path fill="#1e1e1e" d="M 198.226562 298.324219 L 294.78125 298.324219 L 294.78125 415.246094 L 198.226562 415.246094 Z M 198.226562 298.324219 " fill-opacity="1" fill-rule="nonzero"/></g></g><g clip-path="url(#a499d3696b)"><g clip-path="url(#669855fa9c)"><path fill="#1e1e1e" d="M 375.375 297.988281 L 410.910156 297.988281 L 410.910156 416.117188 L 375.375 416.117188 Z M 375.375 297.988281 " fill-opacity="1" fill-rule="nonzero"/></g></g><g clip-path="url(#bff7269439)"><g clip-path="url(#7749b8fdc5)"><path fill="#1e1e1e" d="M 385.300781 334.277344 L 448.777344 334.277344 L 448.777344 363.554688 L 385.300781 363.554688 Z M 385.300781 334.277344 " fill-opacity="1" fill-rule="nonzero"/></g></g><g clip-path="url(#4f5ce61047)"><g clip-path="url(#bd620eb6a1)"><path fill="#1e1e1e" d="M 425.257812 298.574219 L 461.960938 298.574219 L 461.960938 413.988281 L 425.257812 413.988281 Z M 425.257812 298.574219 " fill-opacity="1" fill-rule="nonzero"/></g></g><g clip-path="url(#3de6017e16)"><g clip-path="url(#e3bbdf105b)"><path fill="#1e1e1e" d="M 461.960938 298.570312 L 540.703125 298.570312 L 540.703125 415.140625 L 461.960938 415.140625 Z M 461.960938 298.570312 " fill-opacity="1" fill-rule="nonzero"/></g></g><g clip-path="url(#4d2004cb53)"><g clip-path="url(#f4527357ec)"><path fill="#1e1e1e" d="M 472.382812 335.210938 L 538.269531 335.210938 L 538.269531 363.992188 L 472.382812 363.992188 Z M 472.382812 335.210938 " fill-opacity="1" fill-rule="nonzero"/></g></g><g clip-path="url(#0baf85ab4b)"><g clip-path="url(#ab7c5498ab)"><path fill="#1e1e1e" d="M 468.742188 297.988281 L 540.25 297.988281 L 540.25 326.773438 L 468.742188 326.773438 Z M 468.742188 297.988281 " fill-opacity="1" fill-rule="nonzero"/></g></g><g clip-path="url(#b4d5231057)"><g clip-path="url(#679f402834)"><path fill="#1e1e1e" d="M 540.703125 299.367188 L 630.160156 299.367188 L 630.160156 417.484375 L 540.703125 417.484375 Z M 540.703125 299.367188 " fill-opacity="1" fill-rule="nonzero"/></g></g><g clip-path="url(#f0ac5489a2)"><g clip-path="url(#1f6a9de0b2)"><path fill="#1e1e1e" d="M 630.160156 300.855469 L 708.902344 300.855469 L 708.902344 417.429688 L 630.160156 417.429688 Z M 630.160156 300.855469 " fill-opacity="1" fill-rule="nonzero"/></g></g><g clip-path="url(#94097a0a16)"><g clip-path="url(#50bd0ed286)"><path fill="#1e1e1e" d="M 640.582031 337.496094 L 706.46875 337.496094 L 706.46875 366.28125 L 640.582031 366.28125 Z M 640.582031 337.496094 " fill-opacity="1" fill-rule="nonzero"/></g></g><g clip-path="url(#0395c857c0)"><g clip-path="url(#45b8d599fb)"><path fill="#1e1e1e" d="M 636.945312 300.277344 L 708.453125 300.277344 L 708.453125 329.058594 L 636.945312 329.058594 Z M 636.945312 300.277344 " fill-opacity="1" fill-rule="nonzero"/></g></g></svg>