<svg xmlns="http://www.w3.org/2000/svg" xmlns:xlink="http://www.w3.org/1999/xlink" width="1080" zoomAndPan="magnify" viewBox="0 0 810 525.000007" height="700" preserveAspectRatio="xMidYMid meet" version="1.0"><defs><clipPath id="1da87c08a3"><path d="M 25.039062 302.230469 L 54.191406 302.230469 L 54.191406 413.972656 L 25.039062 413.972656 Z M 25.039062 302.230469 " clip-rule="nonzero"/></clipPath><clipPath id="d8dd412b84"><path d="M 45.539062 312.21875 C 52.960938 381.285156 54.878906 395.214844 53.960938 402.140625 C 53.546875 405.476562 53.042969 407.3125 51.625 409.230469 C 50.207031 411.066406 47.371094 412.652344 45.539062 413.316406 C 44.203125 413.820312 43.203125 413.984375 41.785156 413.734375 C 39.78125 413.484375 36.695312 412.484375 34.859375 410.980469 C 33.109375 409.480469 31.691406 406.5625 31.105469 404.644531 C 30.6875 403.308594 30.605469 402.308594 30.855469 400.890625 C 31.273438 398.96875 32.359375 395.882812 33.941406 394.214844 C 35.609375 392.464844 38.613281 391.210938 40.53125 390.710938 C 41.867188 390.378906 42.867188 390.378906 44.285156 390.710938 C 46.203125 391.210938 49.207031 392.464844 50.792969 394.214844 C 52.460938 395.882812 53.710938 398.554688 53.960938 400.890625 C 54.210938 403.226562 53.546875 406.144531 52.292969 408.144531 C 51.125 410.148438 48.457031 412.066406 46.707031 412.984375 C 45.453125 413.566406 44.453125 413.820312 43.035156 413.734375 C 41.03125 413.734375 37.863281 413.066406 35.859375 411.734375 C 33.941406 410.480469 32.191406 408.3125 31.441406 405.894531 C 30.4375 402.972656 31.605469 400.386719 31.355469 395.132812 C 30.773438 381.121094 24.933594 330.320312 25.183594 317.054688 C 25.265625 312.46875 25.265625 310.132812 26.183594 307.878906 C 26.9375 306.210938 28.101562 305.042969 29.355469 304.125 C 30.6875 303.207031 32.359375 302.542969 33.941406 302.375 C 35.445312 302.125 37.277344 302.292969 38.78125 302.792969 C 40.28125 303.375 41.785156 304.210938 42.867188 305.542969 C 44.121094 307.128906 45.539062 312.21875 45.539062 312.21875 " clip-rule="nonzero"/></clipPath><clipPath id="a631abd432"><path d="M 34.519531 338.527344 L 92 338.527344 L 92 361.515625 L 34.519531 361.515625 Z M 34.519531 338.527344 " clip-rule="nonzero"/></clipPath><clipPath id="215c44b1c5"><path d="M 44.621094 340.246094 C 83.992188 339.078125 85.742188 339.496094 87.496094 340.828125 C 89.246094 342.164062 90.75 344.832031 91.417969 346.585938 C 91.917969 347.835938 92 348.753906 91.832031 350.089844 C 91.667969 351.921875 90.75 354.925781 89.332031 356.59375 C 87.914062 358.261719 85.160156 359.679688 83.410156 360.265625 C 82.15625 360.683594 81.074219 360.597656 79.90625 360.433594 C 78.738281 360.347656 77.652344 360.183594 76.484375 359.515625 C 74.816406 358.679688 72.398438 356.761719 71.394531 354.84375 C 70.3125 352.839844 70.0625 349.839844 70.144531 347.917969 C 70.230469 346.585938 70.730469 345.585938 71.230469 344.582031 C 71.8125 343.582031 72.3125 342.582031 73.398438 341.746094 C 74.816406 340.578125 77.820312 339.160156 79.65625 338.742188 C 80.988281 338.492188 81.90625 338.492188 83.15625 338.910156 C 84.992188 339.410156 87.746094 340.746094 89.246094 342.414062 C 90.664062 344.082031 91.582031 347.085938 91.832031 348.921875 C 92.082031 350.253906 91.917969 351.171875 91.5 352.425781 C 90.914062 354.175781 88.996094 356.929688 87.664062 358.261719 C 86.660156 359.097656 85.996094 359.429688 84.574219 359.933594 C 81.738281 360.765625 76.484375 361.015625 71.230469 361.265625 C 63.890625 361.515625 50.542969 361.851562 44.621094 360.683594 C 41.535156 360.097656 39.53125 359.429688 37.863281 358.097656 C 36.527344 357.09375 35.609375 355.675781 35.109375 354.09375 C 34.441406 352.089844 34.441406 348.835938 35.109375 346.835938 C 35.609375 345.167969 36.527344 343.832031 37.863281 342.832031 C 39.53125 341.496094 44.621094 340.246094 44.621094 340.246094 " clip-rule="nonzero"/></clipPath><clipPath id="ee0ac74b91"><path d="M 75.027344 302.777344 L 105.710938 302.777344 L 105.710938 411.882812 L 75.027344 411.882812 Z M 75.027344 302.777344 " clip-rule="nonzero"/></clipPath><clipPath id="ed99d3eb8d"><path d="M 95.335938 312.550781 C 99.589844 350.753906 103.59375 368.355469 104.597656 379.953125 C 105.347656 388.292969 106.097656 396.382812 105.097656 401.472656 C 104.511719 404.476562 103.261719 406.644531 102.011719 408.230469 C 101.09375 409.3125 100.339844 409.980469 99.007812 410.480469 C 97.171875 411.316406 94.003906 412.148438 91.75 411.734375 C 89.414062 411.398438 86.746094 409.980469 85.160156 408.3125 C 83.492188 406.644531 82.242188 403.890625 81.992188 401.554688 C 81.738281 399.21875 82.324219 396.382812 83.574219 394.300781 C 84.742188 392.296875 86.996094 390.378906 89.164062 389.542969 C 91.332031 388.625 94.667969 388.710938 96.589844 389.042969 C 98.007812 389.378906 98.921875 389.792969 100.007812 390.628906 C 101.59375 391.878906 103.761719 394.300781 104.511719 396.550781 C 105.261719 398.71875 105.261719 401.722656 104.597656 403.976562 C 103.84375 406.144531 101.675781 408.5625 100.089844 409.898438 C 99.007812 410.730469 98.089844 411.148438 96.671875 411.484375 C 94.753906 411.816406 91.164062 411.648438 89.246094 411.066406 C 87.914062 410.648438 87.078125 410.148438 86.078125 409.148438 C 84.660156 407.730469 83.074219 405.726562 82.242188 402.808594 C 80.824219 397.96875 82.40625 389.292969 81.824219 381.453125 C 80.988281 371.859375 78.320312 360.183594 77.152344 349.589844 C 76.066406 339.160156 75.066406 325.8125 75.066406 318.390625 C 75.148438 314.21875 74.984375 311.132812 75.902344 308.714844 C 76.566406 307.046875 77.734375 305.878906 78.988281 304.878906 C 80.238281 303.960938 81.90625 303.207031 83.492188 302.957031 C 85.078125 302.707031 86.828125 302.875 88.328125 303.375 C 89.832031 303.875 91.417969 304.625 92.5 305.960938 C 93.835938 307.546875 95.335938 312.550781 95.335938 312.550781 " clip-rule="nonzero"/></clipPath><clipPath id="5d22257c32"><path d="M 102.234375 303.589844 L 192.753906 303.589844 L 192.753906 414 L 102.234375 414 Z M 102.234375 303.589844 " clip-rule="nonzero"/></clipPath><clipPath id="6eabb30e27"><path d="M 102.511719 369.722656 C 103.417969 355.351562 104.734375 352.222656 105.558594 348.925781 C 106.464844 345.460938 106.960938 341.824219 108.113281 338.527344 C 109.183594 335.230469 110.503906 332.019531 112.234375 329.230469 C 113.964844 326.355469 116.351562 323.90625 118.578125 321.367188 C 120.882812 318.664062 123.273438 315.875 125.910156 313.421875 C 128.546875 311.054688 131.347656 308.433594 134.476562 306.828125 C 137.691406 305.222656 141.480469 304.378906 145.023438 303.957031 C 148.566406 303.449219 152.273438 303.703125 155.730469 304.125 C 159.109375 304.546875 162.40625 305.308594 165.453125 306.492188 C 168.582031 307.675781 171.632812 309.195312 174.269531 311.308594 C 177.070312 313.59375 179.375 317.058594 181.519531 320.015625 C 183.578125 322.890625 185.308594 325.59375 186.875 328.636719 C 188.355469 331.683594 189.675781 334.976562 190.664062 338.359375 C 191.570312 341.824219 192.0625 345.542969 192.394531 349.09375 C 192.640625 352.644531 192.476562 356.195312 192.394531 359.832031 C 192.394531 363.550781 192.394531 367.523438 191.980469 371.242188 C 191.570312 374.792969 190.910156 378.34375 189.839844 381.640625 C 188.769531 385.019531 187.367188 388.402344 185.636719 391.445312 C 183.90625 394.402344 181.929688 397.023438 179.542969 399.644531 C 176.988281 402.605469 173.855469 406.324219 170.5625 408.351562 C 167.59375 410.128906 162.15625 410.886719 160.839844 411.394531 C 160.511719 411.480469 160.429688 411.5625 160.261719 411.648438 C 160.097656 411.734375 159.933594 411.648438 159.6875 411.734375 C 159.523438 411.734375 159.273438 411.902344 158.945312 411.988281 C 158.617188 411.988281 158.121094 411.902344 157.710938 411.988281 C 157.214844 411.988281 156.71875 412.15625 156.390625 412.15625 C 156.144531 412.070312 155.980469 411.988281 155.730469 411.988281 C 155.484375 411.988281 155.320312 411.988281 155.074219 411.988281 C 154.742188 411.902344 154.003906 411.5625 153.835938 411.5625 C 153.835938 411.5625 153.835938 411.5625 153.753906 411.5625 C 153.589844 411.5625 152.847656 412.324219 152.273438 412.664062 C 151.613281 413 150.789062 413.339844 149.964844 413.507812 C 149.222656 413.675781 147.574219 413.847656 147.574219 413.847656 C 147.574219 413.847656 145.269531 413.929688 143.621094 413.847656 C 141.066406 413.761719 136.785156 413.507812 133.488281 412.664062 C 130.273438 411.734375 126.898438 410.378906 124.179688 408.519531 C 121.460938 406.578125 119.152344 404.039062 117.09375 401.335938 C 114.953125 398.714844 113.140625 395.757812 111.410156 392.628906 C 109.515625 389.164062 107.785156 385.273438 106.300781 381.554688 C 104.820312 377.667969 102.511719 369.722656 102.511719 369.722656 M 125.660156 369.722656 C 131.015625 382.738281 132.003906 386.289062 134.3125 388.488281 C 136.703125 390.855469 141.316406 392.542969 143.621094 393.136719 C 144.941406 393.390625 146.175781 393.472656 146.835938 393.136719 C 147.164062 392.96875 147.246094 392.714844 147.410156 392.460938 C 147.660156 392.121094 147.90625 391.53125 148.152344 391.277344 C 148.316406 391.109375 148.566406 391.023438 148.648438 390.855469 C 148.8125 390.769531 148.894531 390.515625 149.140625 390.347656 C 149.386719 390.175781 149.882812 389.925781 150.210938 389.671875 C 150.542969 389.417969 150.953125 389.078125 151.285156 388.824219 C 151.449219 388.742188 151.695312 388.742188 151.859375 388.65625 C 152.105469 388.570312 152.191406 388.402344 152.4375 388.316406 C 152.765625 388.148438 153.261719 388.148438 153.671875 387.980469 C 154.167969 387.894531 154.90625 387.558594 154.90625 387.558594 C 154.90625 387.558594 160.675781 383.753906 162.816406 381.132812 C 164.875 378.511719 166.523438 375.214844 167.511719 372.003906 C 168.5 368.707031 168.335938 365.15625 168.5 361.605469 C 168.667969 357.800781 168.914062 353.660156 168.417969 349.941406 C 167.925781 346.476562 167.019531 343.007812 165.617188 339.882812 C 164.300781 336.839844 162.734375 333.371094 160.261719 331.34375 C 157.792969 329.398438 153.835938 328.046875 150.625 328.046875 C 147.410156 328.132812 143.949219 329.90625 141.148438 331.765625 C 138.347656 333.625 135.796875 336.332031 133.816406 339.121094 C 131.757812 341.996094 130.273438 345.375 129.039062 348.757812 C 127.804688 352.054688 126.898438 355.519531 126.320312 358.984375 C 125.746094 362.535156 125.660156 369.722656 125.660156 369.722656 " clip-rule="nonzero"/></clipPath><clipPath id="d830e087ce"><path d="M 190.675781 303 L 309.71875 303 L 309.71875 415 L 190.675781 415 Z M 190.675781 303 " clip-rule="nonzero"/></clipPath><clipPath id="12de679b18"><path d="M 210.304688 314.9375 C 212.1875 329.636719 214.777344 342.367188 217.523438 353.808594 C 220.898438 368.128906 232.90625 400.179688 230.472656 401.621094 C 229.375 402.226562 226 395.257812 223.015625 394.726562 C 219.800781 394.042969 213.207031 400.257812 211.714844 398.894531 C 209.675781 397.074219 216.347656 383.511719 218.464844 378.054688 C 219.800781 374.496094 220.347656 372.980469 222.230469 369.34375 C 225.371094 363.128906 230.472656 348.429688 236.90625 344.414062 C 241.773438 341.382812 250.171875 341.15625 254.328125 342.972656 C 257.703125 344.488281 258.644531 348.125 261.078125 352.140625 C 265.082031 358.808594 270.886719 373.433594 274.578125 379.949219 C 276.617188 383.664062 278.421875 385.480469 279.914062 388.359375 C 281.324219 391.238281 284.542969 395.484375 283.289062 397.148438 C 281.484375 399.574219 266.179688 400.558594 263.117188 396.390625 C 257.703125 389.042969 277.558594 353.503906 281.640625 337.746094 C 284.386719 327.363281 285.796875 316.074219 287.210938 311.605469 C 287.761719 309.9375 287.996094 309.332031 288.703125 308.347656 C 289.332031 307.359375 290.195312 306.375 291.136719 305.695312 C 292.078125 304.9375 293.175781 304.332031 294.351562 303.953125 C 295.453125 303.496094 296.785156 303.269531 297.960938 303.269531 C 299.140625 303.195312 300.472656 303.421875 301.574219 303.722656 C 302.75 304.101562 303.925781 304.632812 304.867188 305.316406 C 305.890625 305.996094 306.832031 306.90625 307.535156 307.816406 C 308.242188 308.800781 308.792969 309.863281 309.105469 310.996094 C 309.5 312.132812 309.65625 313.347656 309.65625 314.558594 C 309.578125 315.695312 309.34375 316.90625 308.949219 318.042969 C 308.558594 319.105469 307.929688 320.242188 307.144531 321.152344 C 306.359375 322.0625 305.417969 322.894531 304.398438 323.5 C 303.378906 324.105469 302.199219 324.636719 301.023438 324.863281 C 299.847656 325.167969 298.589844 325.242188 297.335938 325.167969 C 296.15625 325.089844 294.902344 324.789062 293.804688 324.332031 C 292.625 323.878906 291.605469 323.195312 290.664062 322.441406 C 289.800781 321.605469 288.9375 320.695312 288.386719 319.636719 C 287.761719 318.652344 287.289062 317.4375 287.132812 316.300781 C 286.898438 315.164062 286.820312 313.878906 286.976562 312.742188 C 287.132812 311.605469 287.523438 310.390625 288.074219 309.332031 C 288.625 308.347656 289.410156 307.285156 290.195312 306.453125 C 291.058594 305.617188 292.15625 304.9375 293.253906 304.40625 C 294.273438 303.875 295.53125 303.496094 296.707031 303.34375 C 297.960938 303.195312 299.21875 303.269531 300.394531 303.421875 C 301.574219 303.648438 302.828125 304.101562 303.847656 304.707031 C 304.945312 305.238281 305.96875 306.074219 306.753906 306.90625 C 307.535156 307.738281 308.242188 308.800781 308.714844 309.9375 C 309.183594 310.996094 309.578125 311.832031 309.578125 313.347656 C 309.734375 316.453125 308.242188 322.589844 307.300781 327.59375 C 306.125 333.199219 304.867188 338.351562 302.984375 345.398438 C 300.082031 355.777344 293.960938 375.632812 291.136719 383.964844 C 289.722656 387.980469 289.171875 389.800781 287.761719 392.832031 C 286.191406 396.316406 285.40625 401.847656 282.03125 403.589844 C 277.636719 405.789062 266.648438 404.5 261.472656 401.167969 C 256.214844 397.90625 254.09375 389.800781 250.953125 383.738281 C 247.816406 377.675781 244.441406 370.175781 242.558594 364.796875 C 241.222656 361.007812 238.476562 356.765625 239.96875 354.871094 C 241.851562 352.445312 255.269531 351.761719 256.839844 354.339844 C 258.960938 357.75 245.617188 371.464844 241.695312 379.269531 C 238.476562 385.632812 236.203125 392.074219 234.394531 397.226562 C 233.0625 400.863281 233.0625 404.046875 231.414062 406.847656 C 229.84375 409.578125 227.648438 412.757812 224.820312 413.894531 C 221.917969 415.109375 216.972656 415.257812 214.304688 413.59375 C 211.324219 411.851562 210.304688 407.757812 208.34375 402.605469 C 204.417969 392.375 199.550781 368.585938 196.648438 354.339844 C 194.453125 343.277344 192.726562 331.910156 191.863281 324.636719 C 191.390625 320.394531 190.683594 317.210938 191.078125 314.636719 C 191.390625 312.890625 191.941406 311.679688 192.804688 310.46875 C 193.667969 309.332031 195 308.195312 196.335938 307.589844 C 197.667969 306.90625 199.316406 306.527344 200.808594 306.601562 C 202.300781 306.601562 204.027344 307.058594 205.28125 307.738281 C 206.617188 308.421875 207.871094 309.558594 208.734375 310.769531 C 209.519531 311.984375 210.304688 314.9375 210.304688 314.9375 " clip-rule="nonzero"/></clipPath><clipPath id="c47072aa9e"><path d="M 351.203125 300.296875 L 454 300.296875 L 454 412.917969 L 351.203125 412.917969 Z M 351.203125 300.296875 " clip-rule="nonzero"/></clipPath><clipPath id="2bda08dcfd"><path d="M 351.503906 400.628906 C 355.351562 308.144531 359.117188 304.617188 362.800781 303.414062 C 365.828125 302.453125 369.265625 303.414062 372.703125 305.5 C 378.84375 309.265625 386.457031 323.128906 392.597656 330.183594 C 397.507812 335.710938 407.25 342.285156 406.351562 344.527344 C 405.53125 346.371094 393.171875 346.933594 392.105469 344.6875 C 390.140625 340.921875 412.570312 320.644531 417.566406 313.351562 C 420.019531 309.824219 420.511719 307.101562 422.3125 305.015625 C 423.703125 303.414062 425.175781 302.292969 426.816406 301.570312 C 428.535156 300.851562 430.664062 300.449219 432.464844 300.527344 C 434.347656 300.691406 436.390625 301.332031 437.949219 302.210938 C 439.503906 303.175781 441.058594 304.9375 441.960938 306.21875 C 442.613281 307.101562 442.859375 307.742188 443.105469 308.785156 C 443.515625 310.226562 443.023438 311.828125 443.433594 314.394531 C 444.496094 320.40625 450.390625 335.070312 452.027344 344.207031 C 453.417969 351.820312 453.335938 357.429688 453.582031 365.445312 C 453.992188 375.703125 454.15625 395.179688 453.664062 400.949219 C 453.5 402.792969 453.5 403.515625 453.09375 404.636719 C 452.683594 405.839844 452.027344 406.960938 451.292969 408.003906 C 450.472656 408.964844 449.492188 409.84375 448.507812 410.566406 C 447.445312 411.289062 446.214844 411.847656 444.988281 412.167969 C 443.761719 412.492188 442.449219 412.652344 441.140625 412.570312 C 439.914062 412.492188 438.601562 412.167969 437.375 411.769531 C 436.230469 411.289062 435.082031 410.648438 434.101562 409.84375 C 433.117188 409.042969 432.300781 408.003906 431.644531 406.960938 C 430.988281 405.839844 430.417969 404.636719 430.171875 403.433594 C 429.925781 402.230469 429.84375 400.871094 430.007812 399.667969 C 430.089844 398.464844 430.5 397.183594 430.988281 396.0625 C 431.5625 394.9375 432.300781 393.816406 433.199219 392.933594 C 434.019531 392.054688 435.082031 391.253906 436.230469 390.609375 C 437.375 390.050781 438.601562 389.648438 439.914062 389.410156 C 441.140625 389.25 442.449219 389.25 443.761719 389.410156 C 444.988281 389.648438 446.214844 390.050781 447.363281 390.609375 C 448.507812 391.253906 449.570312 392.054688 450.472656 392.933594 C 451.292969 393.816406 452.027344 394.9375 452.601562 396.0625 C 453.09375 397.183594 453.5 398.464844 453.582031 399.667969 C 453.746094 400.871094 453.664062 402.230469 453.417969 403.433594 C 453.175781 404.636719 452.601562 405.839844 451.945312 406.960938 C 451.375 408.003906 450.472656 409.042969 449.492188 409.84375 C 448.507812 410.648438 447.363281 411.289062 446.214844 411.769531 C 444.988281 412.167969 443.679688 412.492188 442.449219 412.570312 C 441.140625 412.652344 439.832031 412.492188 438.601562 412.167969 C 437.375 411.847656 436.148438 411.289062 435.082031 410.566406 C 434.101562 409.84375 433.117188 408.964844 432.300781 408.003906 C 431.5625 406.960938 431.070312 406.480469 430.5 404.636719 C 428.617188 397.664062 431.234375 367.046875 429.023438 351.820312 C 427.304688 339.960938 421.902344 328.339844 420.675781 320.644531 C 419.9375 316.238281 419.691406 312.46875 420.019531 310.066406 C 420.101562 308.863281 420.347656 308.382812 420.839844 307.421875 C 421.574219 306.058594 422.886719 304.136719 424.359375 303.015625 C 425.832031 301.890625 428.125 301.089844 429.597656 300.691406 C 430.664062 300.449219 431.5625 300.527344 432.464844 300.527344 C 433.445312 300.609375 434.265625 300.691406 435.328125 301.089844 C 436.800781 301.652344 438.929688 302.691406 440.15625 303.976562 C 441.46875 305.257812 442.613281 307.019531 443.105469 308.785156 C 443.679688 310.546875 443.84375 312.308594 443.433594 314.394531 C 443.023438 317.039062 441.960938 319.363281 439.585938 323.210938 C 434.183594 331.867188 416.171875 358.234375 406.429688 362.882812 C 401.4375 365.285156 396.117188 364.484375 392.351562 363.042969 C 389.160156 361.839844 387.441406 358.472656 384.984375 356.148438 C 382.527344 353.824219 380.398438 351.980469 377.78125 349.097656 C 374.097656 344.929688 366.894531 338.355469 365.417969 333.386719 C 364.355469 329.941406 364.683594 326.335938 366.15625 323.371094 C 367.875 320.164062 373.851562 314.3125 375.816406 315.195312 C 379.253906 316.796875 375.160156 341 374.425781 354.785156 C 373.6875 370.09375 374.097656 394.859375 371.230469 402.953125 C 370.167969 406 369.019531 407.441406 367.21875 408.722656 C 365.417969 409.925781 362.472656 410.648438 360.261719 410.328125 C 358.132812 410.085938 355.433594 408.722656 353.957031 407.121094 C 352.484375 405.519531 351.503906 400.628906 351.503906 400.628906 " clip-rule="nonzero"/></clipPath><clipPath id="e8fb42e673"><path d="M 455.6875 302 L 545.375 302 L 545.375 414.171875 L 455.6875 414.171875 Z M 455.6875 302 " clip-rule="nonzero"/></clipPath><clipPath id="8888e19fec"><path d="M 477.527344 312.429688 C 478.488281 333.875 480.496094 340.660156 481.28125 348.285156 C 482.328125 357.582031 481.804688 371.742188 482.851562 379.28125 C 483.550781 383.71875 483.203125 387.65625 485.382812 389.667969 C 487.566406 391.679688 492.542969 391.929688 496.035156 391.679688 C 499.527344 391.511719 502.933594 389.835938 506.25 388.328125 C 509.566406 386.902344 513.757812 385.480469 515.941406 382.882812 C 518.210938 380.203125 518.996094 376.097656 519.695312 372.578125 C 520.304688 369.058594 520.304688 366.378906 519.957031 361.855469 C 519.34375 353.730469 513.410156 333.457031 513.84375 328.097656 C 513.933594 326.335938 515.15625 325.832031 514.980469 324.746094 C 514.804688 323.65625 513.148438 322.734375 512.449219 321.5625 C 511.835938 320.472656 511.402344 319.132812 511.140625 317.875 C 510.878906 316.535156 510.878906 315.195312 511.140625 313.855469 C 511.3125 312.597656 511.75 311.257812 512.359375 310.085938 C 512.972656 308.996094 513.84375 307.824219 514.894531 306.902344 C 515.851562 306.0625 517.074219 305.226562 518.296875 304.722656 C 519.519531 304.136719 520.917969 303.71875 522.226562 303.632812 C 523.625 303.46875 525.019531 303.550781 526.328125 303.800781 C 527.726562 304.054688 529.035156 304.554688 530.257812 305.226562 C 531.394531 305.894531 532.527344 306.734375 533.402344 307.738281 C 534.273438 308.746094 535.058594 309.917969 535.585938 311.175781 C 536.019531 312.347656 536.371094 313.6875 536.457031 315.027344 C 536.542969 316.285156 536.371094 317.707031 536.019531 318.964844 C 535.671875 320.222656 535.058594 321.476562 534.363281 322.566406 C 533.574219 323.65625 532.617188 324.660156 531.566406 325.5 C 530.433594 326.253906 529.210938 326.921875 527.902344 327.34375 C 526.59375 327.761719 525.195312 328.011719 523.796875 328.011719 C 522.488281 328.011719 521.003906 327.84375 519.695312 327.425781 C 518.472656 327.007812 517.164062 326.335938 516.027344 325.582031 C 514.980469 324.828125 513.933594 323.824219 513.234375 322.734375 C 512.449219 321.644531 511.835938 320.390625 511.402344 319.132812 C 511.050781 317.875 510.878906 316.535156 510.964844 315.195312 C 511.050781 313.9375 511.3125 312.515625 511.835938 311.339844 C 512.273438 310.085938 513.058594 308.914062 513.933594 307.90625 C 514.804688 306.902344 515.851562 305.980469 517.074219 305.308594 C 518.210938 304.640625 519.519531 304.136719 520.917969 303.800781 C 522.226562 303.550781 523.625 303.46875 525.019531 303.550781 C 526.328125 303.71875 527.726562 304.054688 528.949219 304.640625 C 530.257812 305.140625 531.304688 305.644531 532.441406 306.816406 C 534.011719 308.492188 535.585938 311.089844 536.804688 314.273438 C 538.8125 319.300781 540.035156 327.761719 541.347656 334.460938 C 542.65625 341.246094 543.964844 348.953125 544.578125 354.902344 C 545.101562 359.425781 545.273438 363.027344 545.273438 366.882812 C 545.1875 370.484375 545.101562 373.835938 544.488281 377.269531 C 543.878906 380.789062 543.09375 384.304688 541.695312 387.574219 C 540.210938 390.925781 538.378906 394.273438 535.933594 397.039062 C 533.488281 399.886719 530.257812 402.484375 527.117188 404.578125 C 524.234375 406.589844 521.089844 408.015625 518.035156 409.523438 C 514.894531 410.945312 511.835938 412.703125 508.34375 413.457031 C 504.503906 414.296875 499.703125 414.128906 495.6875 413.960938 C 492.019531 413.792969 488.964844 413.878906 485.121094 412.621094 C 479.621094 410.777344 470.628906 406.671875 466.527344 402.570312 C 463.296875 399.300781 461.898438 395.113281 460.589844 391.34375 C 459.457031 387.824219 459.367188 385.226562 458.929688 380.703125 C 458.234375 372.914062 458.929688 358.335938 458.234375 348.789062 C 457.710938 340.996094 456.136719 334.042969 455.789062 327.507812 C 455.613281 322.0625 455.699219 316.03125 456.136719 312.429688 C 456.488281 310.335938 456.574219 309.078125 457.359375 307.65625 C 458.144531 306.230469 459.28125 304.890625 460.765625 303.96875 C 462.683594 302.878906 465.828125 301.960938 468.097656 302.210938 C 470.457031 302.546875 473.25 303.96875 474.820312 305.644531 C 476.390625 307.320312 477.527344 312.429688 477.527344 312.429688 " clip-rule="nonzero"/></clipPath><clipPath id="735a9f635d"><path d="M 544.300781 297.585938 L 633.933594 297.585938 L 633.933594 412.726562 L 544.300781 412.726562 Z M 544.300781 297.585938 " clip-rule="nonzero"/></clipPath><clipPath id="5c3a4d196b"><path d="M 611.210938 320.570312 C 594.78125 318.820312 591.445312 319.570312 588.105469 320.402344 C 584.683594 321.320312 580.832031 322.152344 578.265625 324.152344 C 575.699219 326.152344 573.902344 329.480469 572.445312 332.480469 C 570.992188 335.476562 570.050781 338.726562 569.367188 342.058594 C 568.683594 345.304688 568.597656 348.71875 568.597656 352.21875 C 568.511719 355.796875 568.339844 359.796875 569.28125 363.210938 C 570.222656 366.542969 572.105469 369.625 573.902344 372.457031 C 575.785156 375.453125 578.007812 378.367188 580.492188 380.699219 C 582.972656 383.113281 585.796875 385.945312 588.960938 386.945312 C 592.128906 387.863281 596.152344 387.363281 599.402344 386.363281 C 602.652344 385.445312 606.503906 383.113281 608.386719 381.03125 C 609.757812 379.535156 609.757812 377.367188 610.613281 375.953125 C 611.382812 374.785156 612.238281 373.789062 613.265625 372.953125 C 614.292969 372.121094 615.488281 371.371094 616.6875 370.957031 C 617.972656 370.457031 619.339844 370.207031 620.710938 370.125 C 621.992188 370.039062 623.449219 370.207031 624.730469 370.539062 C 626.015625 370.871094 627.296875 371.457031 628.324219 372.207031 C 629.4375 372.953125 630.464844 373.871094 631.320312 374.953125 C 632.089844 375.953125 632.773438 377.203125 633.203125 378.367188 C 633.632812 379.617188 633.800781 381.03125 633.800781 382.28125 C 633.800781 383.613281 633.546875 384.949219 633.117188 386.195312 C 632.691406 387.445312 632.089844 388.613281 631.234375 389.695312 C 630.464844 390.695312 629.4375 391.609375 628.324219 392.359375 C 627.214844 393.109375 625.929688 393.691406 624.644531 394.023438 C 623.363281 394.359375 621.90625 394.523438 620.625 394.441406 C 619.253906 394.359375 617.886719 394.023438 616.6875 393.527344 C 615.402344 393.109375 614.207031 392.359375 613.179688 391.527344 C 612.152344 390.695312 611.296875 389.609375 610.613281 388.527344 C 609.925781 387.363281 609.414062 386.113281 609.070312 384.863281 C 608.816406 383.53125 608.730469 382.199219 608.902344 380.867188 C 609.070312 379.617188 609.414062 378.285156 610.011719 377.117188 C 610.527344 375.953125 611.382812 374.785156 612.238281 373.871094 C 613.179688 372.953125 614.292969 372.121094 615.488281 371.457031 C 616.6875 370.871094 618.058594 370.457031 619.339844 370.207031 C 620.625 370.039062 622.078125 370.039062 623.363281 370.289062 C 624.730469 370.457031 626.015625 370.871094 627.214844 371.539062 C 628.410156 372.121094 629.523438 372.953125 630.464844 373.953125 C 631.320312 374.871094 632.089844 376.035156 632.691406 377.203125 C 633.203125 378.367188 633.632812 379.699219 633.714844 380.949219 C 633.886719 382.28125 633.972656 383.28125 633.546875 384.949219 C 632.691406 387.945312 630.207031 393.773438 627.46875 397.023438 C 625.074219 400.019531 621.652344 401.9375 618.484375 404.019531 C 615.320312 406.019531 611.980469 407.683594 608.644531 409.097656 C 605.222656 410.515625 601.710938 412.179688 598.03125 412.597656 C 594.351562 412.929688 590.246094 412.179688 586.652344 411.265625 C 583.058594 410.347656 580.0625 409.433594 576.46875 407.265625 C 571.421875 404.351562 564.230469 398.023438 560.210938 393.941406 C 557.386719 391.027344 555.675781 388.613281 553.707031 385.695312 C 551.824219 382.867188 549.941406 379.867188 548.570312 376.703125 C 547.203125 373.539062 546.175781 370.207031 545.578125 366.792969 C 544.894531 363.292969 544.808594 359.628906 544.722656 356.046875 C 544.550781 352.71875 544.464844 349.386719 544.808594 346.054688 C 545.148438 342.472656 545.917969 338.644531 546.859375 335.226562 C 547.714844 331.898438 548.914062 328.816406 550.199219 325.652344 C 551.652344 322.484375 553.109375 319.320312 555.074219 316.40625 C 557.042969 313.574219 559.527344 310.828125 562.179688 308.410156 C 564.832031 305.996094 567.140625 303.746094 570.90625 302.082031 C 576.210938 299.75 586.054688 298.5 591.785156 297.917969 C 595.808594 297.585938 598.375 297.585938 602.140625 298 C 606.761719 298.585938 614.035156 299.582031 617.628906 301.582031 C 620.023438 302.914062 621.820312 304.664062 622.761719 306.664062 C 623.617188 308.746094 623.789062 311.742188 623.019531 313.824219 C 622.335938 315.988281 620.453125 318.320312 618.398438 319.40625 C 616.429688 320.488281 611.210938 320.570312 611.210938 320.570312 " clip-rule="nonzero"/></clipPath><clipPath id="f440dfc8a6"><path d="M 631.738281 298.476562 L 660.890625 298.476562 L 660.890625 410.21875 L 631.738281 410.21875 Z M 631.738281 298.476562 " clip-rule="nonzero"/></clipPath><clipPath id="9751c05a3f"><path d="M 652.238281 308.464844 C 659.660156 377.53125 661.578125 391.460938 660.664062 398.386719 C 660.246094 401.722656 659.746094 403.558594 658.328125 405.476562 C 656.910156 407.3125 654.074219 408.894531 652.238281 409.5625 C 650.902344 410.0625 649.902344 410.230469 648.484375 409.980469 C 646.480469 409.730469 643.394531 408.730469 641.558594 407.226562 C 639.808594 405.726562 638.390625 402.808594 637.804688 400.886719 C 637.390625 399.554688 637.304688 398.554688 637.554688 397.132812 C 637.972656 395.214844 639.058594 392.128906 640.640625 390.460938 C 642.3125 388.710938 645.3125 387.457031 647.230469 386.957031 C 648.566406 386.625 649.566406 386.625 650.984375 386.957031 C 652.90625 387.457031 655.90625 388.710938 657.492188 390.460938 C 659.160156 392.128906 660.410156 394.800781 660.664062 397.132812 C 660.914062 399.46875 660.246094 402.390625 658.992188 404.390625 C 657.824219 406.394531 655.15625 408.3125 653.40625 409.230469 C 652.152344 409.8125 651.152344 410.0625 649.734375 409.980469 C 647.734375 409.980469 644.5625 409.3125 642.5625 407.980469 C 640.640625 406.726562 638.890625 404.558594 638.140625 402.140625 C 637.140625 399.21875 638.308594 396.632812 638.054688 391.378906 C 637.472656 377.363281 631.632812 326.566406 631.882812 313.300781 C 631.96875 308.714844 631.96875 306.378906 632.882812 304.125 C 633.636719 302.457031 634.804688 301.289062 636.054688 300.371094 C 637.390625 299.453125 639.058594 298.789062 640.640625 298.621094 C 642.144531 298.371094 643.980469 298.535156 645.480469 299.039062 C 646.980469 299.621094 648.484375 300.457031 649.566406 301.789062 C 650.820312 303.375 652.238281 308.464844 652.238281 308.464844 " clip-rule="nonzero"/></clipPath><clipPath id="7f91cb37ff"><path d="M 641.21875 334.773438 L 698.746094 334.773438 L 698.746094 357.761719 L 641.21875 357.761719 Z M 641.21875 334.773438 " clip-rule="nonzero"/></clipPath><clipPath id="7a25d464c5"><path d="M 651.320312 336.492188 C 690.691406 335.324219 692.445312 335.742188 694.195312 337.074219 C 695.949219 338.410156 697.449219 341.078125 698.117188 342.832031 C 698.617188 344.082031 698.699219 345 698.535156 346.335938 C 698.367188 348.167969 697.449219 351.171875 696.03125 352.839844 C 694.613281 354.507812 691.859375 355.925781 690.109375 356.511719 C 688.855469 356.929688 687.773438 356.84375 686.605469 356.679688 C 685.4375 356.59375 684.351562 356.425781 683.183594 355.761719 C 681.515625 354.925781 679.097656 353.007812 678.097656 351.089844 C 677.011719 349.085938 676.761719 346.085938 676.84375 344.164062 C 676.929688 342.832031 677.429688 341.828125 677.929688 340.828125 C 678.511719 339.828125 679.015625 338.828125 680.097656 337.992188 C 681.515625 336.824219 684.519531 335.40625 686.355469 334.988281 C 687.6875 334.738281 688.605469 334.738281 689.859375 335.15625 C 691.691406 335.65625 694.445312 336.992188 695.949219 338.660156 C 697.367188 340.328125 698.28125 343.332031 698.535156 345.167969 C 698.785156 346.5 698.617188 347.417969 698.199219 348.671875 C 697.617188 350.421875 695.695312 353.175781 694.363281 354.507812 C 693.363281 355.34375 692.695312 355.675781 691.277344 356.175781 C 688.441406 357.011719 683.183594 357.261719 677.929688 357.511719 C 670.589844 357.761719 657.242188 358.097656 651.320312 356.929688 C 648.234375 356.34375 646.230469 355.675781 644.5625 354.34375 C 643.226562 353.339844 642.3125 351.921875 641.808594 350.339844 C 641.144531 348.335938 641.144531 345.082031 641.808594 343.082031 C 642.3125 341.414062 643.226562 340.078125 644.5625 339.078125 C 646.230469 337.742188 651.320312 336.492188 651.320312 336.492188 " clip-rule="nonzero"/></clipPath><clipPath id="57867ac77c"><path d="M 681.726562 299.023438 L 712.410156 299.023438 L 712.410156 408.128906 L 681.726562 408.128906 Z M 681.726562 299.023438 " clip-rule="nonzero"/></clipPath><clipPath id="191ca7a3dc"><path d="M 702.035156 308.796875 C 706.289062 347 710.296875 364.601562 711.296875 376.199219 C 712.046875 384.539062 712.796875 392.628906 711.796875 397.71875 C 711.210938 400.722656 709.960938 402.890625 708.710938 404.476562 C 707.792969 405.558594 707.042969 406.226562 705.707031 406.726562 C 703.871094 407.5625 700.703125 408.394531 698.449219 407.980469 C 696.113281 407.644531 693.445312 406.226562 691.859375 404.558594 C 690.191406 402.890625 688.941406 400.136719 688.691406 397.800781 C 688.441406 395.464844 689.023438 392.628906 690.273438 390.542969 C 691.441406 388.542969 693.695312 386.625 695.863281 385.789062 C 698.03125 384.871094 701.371094 384.957031 703.289062 385.289062 C 704.707031 385.625 705.625 386.039062 706.707031 386.875 C 708.292969 388.125 710.460938 390.542969 711.210938 392.796875 C 711.964844 394.964844 711.964844 397.96875 711.296875 400.222656 C 710.546875 402.390625 708.375 404.808594 706.792969 406.144531 C 705.707031 406.976562 704.789062 407.394531 703.371094 407.730469 C 701.453125 408.0625 697.867188 407.894531 695.949219 407.3125 C 694.613281 406.894531 693.777344 406.394531 692.777344 405.394531 C 691.359375 403.976562 689.773438 401.972656 688.941406 399.054688 C 687.523438 394.214844 689.105469 385.539062 688.523438 377.699219 C 687.6875 368.105469 685.019531 356.425781 683.851562 345.832031 C 682.769531 335.40625 681.765625 322.058594 681.765625 314.636719 C 681.851562 310.464844 681.683594 307.378906 682.601562 304.960938 C 683.269531 303.292969 684.4375 302.125 685.6875 301.121094 C 686.9375 300.207031 688.605469 299.453125 690.191406 299.203125 C 691.777344 298.953125 693.527344 299.121094 695.03125 299.621094 C 696.53125 300.121094 698.117188 300.871094 699.199219 302.207031 C 700.535156 303.792969 702.035156 308.796875 702.035156 308.796875 " clip-rule="nonzero"/></clipPath><clipPath id="f982c5cdca"><path d="M 718.269531 301.441406 L 785 301.441406 L 785 384.730469 L 718.269531 384.730469 Z M 718.269531 301.441406 " clip-rule="nonzero"/></clipPath><clipPath id="227f97c2e2"><path d="M 718.40625 331.550781 C 721.683594 317.378906 723.726562 314.761719 726.019531 312.527344 C 728.394531 310.21875 731.421875 308.292969 734.371094 306.675781 C 737.316406 305.136719 740.511719 303.75 743.703125 302.902344 C 746.8125 302.054688 750.085938 301.824219 753.445312 301.667969 C 756.882812 301.515625 760.8125 301.285156 764.085938 302.132812 C 767.359375 303.054688 770.632812 304.980469 773.253906 307.0625 C 775.792969 309.0625 777.921875 311.605469 779.558594 314.222656 C 781.277344 316.917969 782.503906 320.078125 783.40625 323.15625 C 784.222656 326.160156 785.042969 329.242188 784.796875 332.320312 C 784.632812 335.480469 783.40625 338.867188 782.09375 341.792969 C 780.703125 344.644531 778.984375 347.339844 776.691406 349.726562 C 774.316406 352.113281 770.960938 354.195312 768.015625 356.042969 C 765.066406 357.890625 760.648438 358.351562 759.09375 360.894531 C 757.292969 363.820312 759.5 370.519531 759.257812 373.445312 C 759.09375 374.988281 759.011719 375.835938 758.601562 376.988281 C 758.191406 378.066406 757.617188 379.222656 756.882812 380.148438 C 756.0625 381.070312 755.082031 381.917969 754.097656 382.613281 C 753.035156 383.226562 751.808594 383.765625 750.660156 384.074219 C 749.433594 384.382812 748.121094 384.539062 746.8125 384.460938 C 745.585938 384.460938 744.277344 384.152344 743.128906 383.691406 C 741.984375 383.304688 740.835938 382.613281 739.855469 381.839844 C 738.871094 381.148438 738.054688 380.148438 737.398438 379.144531 C 736.746094 378.144531 736.253906 376.988281 736.007812 375.835938 C 735.679688 374.679688 735.679688 373.445312 735.761719 372.214844 C 735.925781 371.058594 736.253906 369.828125 736.824219 368.828125 C 737.316406 367.75 738.054688 366.671875 738.953125 365.824219 C 739.773438 364.976562 740.835938 364.207031 741.984375 363.667969 C 743.046875 363.128906 744.355469 362.742188 745.585938 362.511719 C 746.8125 362.355469 748.121094 362.355469 749.351562 362.511719 C 750.578125 362.742188 751.886719 363.128906 752.953125 363.667969 C 754.097656 364.207031 755.164062 364.976562 755.980469 365.824219 C 756.882812 366.671875 757.617188 367.75 758.191406 368.828125 C 758.683594 369.828125 759.011719 371.058594 759.175781 372.214844 C 759.335938 373.445312 759.257812 374.679688 758.929688 375.835938 C 758.683594 376.988281 758.191406 378.144531 757.535156 379.144531 C 756.882812 380.148438 756.0625 381.148438 755.082031 381.839844 C 754.097656 382.613281 753.035156 383.304688 751.808594 383.691406 C 750.660156 384.152344 749.351562 384.460938 748.121094 384.460938 C 746.894531 384.539062 745.503906 384.382812 744.355469 384.074219 C 743.128906 383.765625 741.902344 383.226562 740.835938 382.613281 C 739.855469 381.917969 738.871094 381.070312 738.136719 380.148438 C 737.316406 379.222656 736.746094 378.066406 736.335938 376.988281 C 735.925781 375.835938 735.84375 374.988281 735.679688 373.445312 C 735.515625 370.445312 735.679688 364.128906 736.253906 360.046875 C 736.746094 356.65625 736.824219 353.65625 738.464844 350.726562 C 740.265625 347.492188 743.949219 344.105469 747.140625 341.871094 C 750.003906 339.792969 753.933594 339.328125 756.472656 337.25 C 758.847656 335.171875 762.039062 331.9375 761.875 329.472656 C 761.792969 326.929688 758.519531 323.078125 755.898438 322.078125 C 753.199219 321 748.695312 322.078125 745.75 323.386719 C 742.882812 324.621094 739.445312 327.625 738.382812 329.703125 C 737.5625 331.167969 738.382812 332.707031 737.972656 334.09375 C 737.480469 335.480469 736.824219 336.941406 735.679688 338.019531 C 734.207031 339.328125 731.585938 340.792969 729.375 341.023438 C 727.167969 341.253906 724.300781 340.332031 722.582031 339.328125 C 721.109375 338.484375 720.125 337.25 719.472656 335.941406 C 718.734375 334.632812 718.40625 331.550781 718.40625 331.550781 " clip-rule="nonzero"/></clipPath><clipPath id="83c6d8aa71"><path d="M 738.546875 389 L 757.765625 389 L 757.765625 408.671875 L 738.546875 408.671875 Z M 738.546875 389 " clip-rule="nonzero"/></clipPath><clipPath id="8314d05547"><path d="M 757.722656 395.960938 C 757.804688 402.101562 757.066406 403.738281 756.085938 404.886719 C 755.183594 406.113281 753.792969 407.179688 752.402344 407.832031 C 751.007812 408.40625 749.289062 408.734375 747.816406 408.652344 C 746.261719 408.570312 744.625 408.078125 743.316406 407.257812 C 742.003906 406.441406 740.777344 405.214844 739.957031 403.902344 C 739.222656 402.59375 738.648438 400.957031 738.566406 399.402344 C 738.484375 397.925781 738.8125 396.207031 739.386719 394.816406 C 740.039062 393.425781 741.105469 392.035156 742.332031 391.132812 C 743.558594 390.152344 745.117188 389.496094 746.589844 389.167969 C 748.144531 388.921875 749.863281 389.003906 751.335938 389.496094 C 752.730469 389.90625 755.347656 391.871094 755.347656 391.871094 " clip-rule="nonzero"/></clipPath></defs><g clip-path="url(#1da87c08a3)"><g clip-path="url(#d8dd412b84)"><path fill="#1e1e1e" d="M 21.847656 299.039062 L 57.382812 299.039062 L 57.382812 417.164062 L 21.847656 417.164062 Z M 21.847656 299.039062 " fill-opacity="1" fill-rule="nonzero"/></g></g><g clip-path="url(#a631abd432)"><g clip-path="url(#215c44b1c5)"><path fill="#1e1e1e" d="M 31.773438 335.324219 L 95.25 335.324219 L 95.25 364.601562 L 31.773438 364.601562 Z M 31.773438 335.324219 " fill-opacity="1" fill-rule="nonzero"/></g></g><g clip-path="url(#ee0ac74b91)"><g clip-path="url(#ed99d3eb8d)"><path fill="#1e1e1e" d="M 71.730469 299.621094 L 108.433594 299.621094 L 108.433594 415.035156 L 71.730469 415.035156 Z M 71.730469 299.621094 " fill-opacity="1" fill-rule="nonzero"/></g></g><g clip-path="url(#5d22257c32)"><g clip-path="url(#6eabb30e27)"><path fill="#1e1e1e" d="M 99.214844 300.574219 L 195.769531 300.574219 L 195.769531 417.496094 L 99.214844 417.496094 Z M 99.214844 300.574219 " fill-opacity="1" fill-rule="nonzero"/></g></g><g clip-path="url(#d830e087ce)"><g clip-path="url(#12de679b18)"><path fill="#1e1e1e" d="M 187.9375 300.238281 L 312.910156 300.238281 L 312.910156 417.003906 L 187.9375 417.003906 Z M 187.9375 300.238281 " fill-opacity="1" fill-rule="nonzero"/></g></g><g clip-path="url(#c47072aa9e)"><g clip-path="url(#2bda08dcfd)"><path fill="#1e1e1e" d="M 348.226562 297.324219 L 457.023438 297.324219 L 457.023438 415.890625 L 348.226562 415.890625 Z M 348.226562 297.324219 " fill-opacity="1" fill-rule="nonzero"/></g></g><g clip-path="url(#e8fb42e673)"><g clip-path="url(#8888e19fec)"><path fill="#1e1e1e" d="M 452.296875 298.859375 L 548.765625 298.859375 L 548.765625 417.1875 L 452.296875 417.1875 Z M 452.296875 298.859375 " fill-opacity="1" fill-rule="nonzero"/></g></g><g clip-path="url(#735a9f635d)"><g clip-path="url(#5c3a4d196b)"><path fill="#1e1e1e" d="M 541.296875 294.585938 L 637.3125 294.585938 L 637.3125 416.101562 L 541.296875 416.101562 Z M 541.296875 294.585938 " fill-opacity="1" fill-rule="nonzero"/></g></g><g clip-path="url(#f440dfc8a6)"><g clip-path="url(#9751c05a3f)"><path fill="#1e1e1e" d="M 628.546875 295.285156 L 664.082031 295.285156 L 664.082031 413.410156 L 628.546875 413.410156 Z M 628.546875 295.285156 " fill-opacity="1" fill-rule="nonzero"/></g></g><g clip-path="url(#7f91cb37ff)"><g clip-path="url(#7a25d464c5)"><path fill="#1e1e1e" d="M 638.472656 331.570312 L 701.949219 331.570312 L 701.949219 360.847656 L 638.472656 360.847656 Z M 638.472656 331.570312 " fill-opacity="1" fill-rule="nonzero"/></g></g><g clip-path="url(#57867ac77c)"><g clip-path="url(#191ca7a3dc)"><path fill="#1e1e1e" d="M 678.429688 295.867188 L 715.132812 295.867188 L 715.132812 411.28125 L 678.429688 411.28125 Z M 678.429688 295.867188 " fill-opacity="1" fill-rule="nonzero"/></g></g><g clip-path="url(#f982c5cdca)"><g clip-path="url(#227f97c2e2)"><path fill="#1e1e1e" d="M 715.132812 298.589844 L 788.152344 298.589844 L 788.152344 387.582031 L 715.132812 387.582031 Z M 715.132812 298.589844 " fill-opacity="1" fill-rule="nonzero"/></g></g><g clip-path="url(#83c6d8aa71)"><g clip-path="url(#8314d05547)"><path fill="#1e1e1e" d="M 735.292969 385.894531 L 761.324219 385.894531 L 761.324219 411.925781 L 735.292969 411.925781 Z M 735.292969 385.894531 " fill-opacity="1" fill-rule="nonzero"/></g></g></svg>