<svg xmlns="http://www.w3.org/2000/svg" xmlns:xlink="http://www.w3.org/1999/xlink" width="1080" zoomAndPan="magnify" viewBox="0 0 810 525.000007" height="700" preserveAspectRatio="xMidYMid meet" version="1.0"><defs><clipPath id="4cfe8ebf42"><path d="M 185.101562 111.246094 L 272.535156 111.246094 L 272.535156 134.875 L 185.101562 134.875 Z M 185.101562 111.246094 " clip-rule="nonzero"/></clipPath><clipPath id="b810f55662"><path d="M 195.132812 113.835938 C 262.898438 111.246094 263.234375 111.160156 264.570312 111.746094 C 266.324219 112.496094 269.164062 114.585938 270.417969 116.089844 C 271.339844 117.175781 271.757812 118.097656 272.007812 119.433594 C 272.425781 121.355469 272.507812 124.613281 271.671875 126.785156 C 270.835938 128.875 269 131.132812 266.992188 132.382812 C 265.070312 133.554688 261.8125 134.054688 259.890625 133.972656 C 258.46875 133.972656 257.550781 133.722656 256.296875 133.054688 C 254.542969 132.132812 252.035156 129.710938 250.949219 128.039062 C 250.199219 126.871094 249.863281 125.949219 249.695312 124.613281 C 249.53125 122.609375 249.78125 119.433594 250.867188 117.34375 C 251.867188 115.339844 254.042969 113.25 256.046875 112.246094 C 258.136719 111.246094 261.394531 111.160156 263.316406 111.410156 C 264.738281 111.578125 265.738281 112.164062 266.824219 112.75 C 267.828125 113.332031 268.832031 114 269.667969 115.089844 C 270.835938 116.675781 272.257812 119.601562 272.425781 121.855469 C 272.589844 124.195312 271.503906 127.203125 270.503906 128.957031 C 269.835938 130.210938 269.164062 130.878906 267.996094 131.632812 C 266.410156 132.71875 264.320312 133.472656 261.144531 134.054688 C 254.625 135.226562 241.425781 134.640625 230.980469 134.722656 C 219.53125 134.722656 201.484375 134.976562 195.132812 134.140625 C 192.792969 133.804688 191.875 133.890625 190.453125 132.96875 C 188.613281 131.882812 186.441406 129.710938 185.605469 127.539062 C 184.855469 125.449219 185.023438 122.359375 185.605469 120.351562 C 186.109375 118.765625 187.027344 117.429688 188.363281 116.339844 C 190.035156 115.089844 195.132812 113.835938 195.132812 113.835938 " clip-rule="nonzero"/></clipPath><clipPath id="64845b9005"><path d="M 215.785156 119.023438 L 240.753906 119.023438 L 240.753906 222.449219 L 215.785156 222.449219 Z M 215.785156 119.023438 " clip-rule="nonzero"/></clipPath><clipPath id="c66e2aae81"><path d="M 240.085938 129.375 C 240.589844 183.1875 241.507812 206.585938 238.667969 214.4375 C 237.496094 217.613281 236.160156 219.035156 234.15625 220.371094 C 232.234375 221.625 229.058594 222.292969 227.136719 222.292969 C 225.714844 222.378906 224.710938 222.125 223.460938 221.542969 C 221.703125 220.621094 219.03125 218.699219 217.859375 216.695312 C 216.605469 214.773438 216.023438 211.847656 216.273438 209.507812 C 216.523438 207.253906 218.113281 204.414062 219.363281 202.824219 C 220.199219 201.738281 221.035156 201.152344 222.289062 200.570312 C 224.128906 199.816406 227.304688 199.066406 229.558594 199.398438 C 231.898438 199.816406 234.488281 201.152344 236.078125 202.824219 C 237.664062 204.578125 238.917969 207.253906 239.167969 209.507812 C 239.417969 211.847656 238.5 214.941406 237.582031 216.695312 C 236.996094 218.03125 236.328125 218.785156 235.15625 219.621094 C 233.570312 220.707031 230.3125 222.042969 228.304688 222.292969 C 226.96875 222.460938 225.964844 222.378906 224.628906 221.875 C 222.789062 221.207031 219.949219 219.621094 218.527344 217.78125 C 217.109375 215.945312 216.605469 213.769531 216.191406 210.761719 C 215.4375 205.664062 216.273438 196.558594 216.691406 189.539062 C 217.109375 182.519531 218.277344 176.753906 218.78125 168.480469 C 219.449219 157.035156 217.359375 134.390625 219.78125 126.953125 C 220.785156 123.863281 222.039062 122.191406 223.960938 120.9375 C 225.796875 119.683594 228.722656 118.933594 231.0625 119.183594 C 233.320312 119.433594 235.992188 120.855469 237.496094 122.609375 C 239 124.28125 240.085938 129.375 240.085938 129.375 " clip-rule="nonzero"/></clipPath><clipPath id="ce465fbf77"><path d="M 183.886719 198.261719 L 280.394531 198.261719 L 280.394531 224 L 183.886719 224 Z M 183.886719 198.261719 " clip-rule="nonzero"/></clipPath><clipPath id="6811332d98"><path d="M 194.128906 202.40625 C 250.199219 200.734375 256.546875 198.980469 262.148438 198.648438 C 266.15625 198.394531 270 198.230469 272.425781 198.8125 C 273.84375 199.148438 274.679688 199.566406 275.765625 200.484375 C 277.1875 201.820312 279.277344 204.328125 279.945312 206.5 C 280.53125 208.757812 280.445312 211.683594 279.609375 213.855469 C 278.773438 216.027344 276.9375 218.28125 274.929688 219.535156 C 272.925781 220.707031 269.75 221.207031 267.828125 221.207031 C 266.410156 221.125 265.40625 220.875 264.234375 220.203125 C 262.480469 219.285156 259.890625 216.863281 258.804688 215.273438 C 258.050781 214.105469 257.71875 213.101562 257.550781 211.765625 C 257.382812 209.761719 257.632812 206.585938 258.636719 204.496094 C 259.722656 202.40625 261.8125 200.402344 263.902344 199.398438 C 265.992188 198.394531 269.25 198.230469 271.253906 198.480469 C 272.589844 198.648438 273.511719 198.980469 274.679688 199.816406 C 276.269531 200.988281 278.609375 203.578125 279.527344 205.332031 C 280.113281 206.585938 280.363281 207.585938 280.363281 209.007812 C 280.363281 210.929688 279.445312 214.355469 278.441406 216.027344 C 277.773438 217.28125 277.105469 218.03125 275.933594 218.785156 C 274.347656 219.871094 272.175781 220.539062 269 221.207031 C 262.980469 222.542969 251.953125 223.378906 241.507812 223.714844 C 227.886719 224.214844 201.734375 223.882812 194.128906 222.878906 C 191.707031 222.542969 190.871094 222.628906 189.367188 221.707031 C 187.613281 220.621094 185.355469 218.449219 184.605469 216.277344 C 183.769531 214.1875 183.769531 211.179688 184.605469 209.007812 C 185.355469 206.917969 187.613281 204.664062 189.367188 203.660156 C 190.871094 202.742188 194.128906 202.40625 194.128906 202.40625 " clip-rule="nonzero"/></clipPath><clipPath id="9958561996"><path d="M 270.699219 110.570312 L 364.59375 110.570312 L 364.59375 224.105469 L 270.699219 224.105469 Z M 270.699219 110.570312 " clip-rule="nonzero"/></clipPath><clipPath id="f504d1f335"><path d="M 340.125 131.449219 C 310.433594 132.460938 306.453125 136.050781 306.632812 138.3125 C 306.902344 140.652344 311.609375 143.460938 315.59375 144.785156 C 321.117188 146.578125 331.796875 144.316406 337.683594 145.175781 C 341.847656 145.875 344.832031 146.734375 348 148.292969 C 351.261719 149.933594 354.519531 152.351562 356.871094 154.921875 C 359.136719 157.417969 360.765625 160.460938 361.941406 163.425781 C 363.117188 166.464844 363.570312 169.117188 363.933594 172.78125 C 364.566406 178.007812 364.386719 186.664062 364.113281 191.96875 C 363.84375 195.789062 364.023438 198.597656 362.9375 201.714844 C 361.851562 204.992188 359.679688 208.5 357.234375 211.152344 C 354.882812 213.648438 352.074219 215.597656 348.996094 217.390625 C 345.558594 219.417969 341.210938 221.445312 337.230469 222.539062 C 333.609375 223.476562 329.804688 223.707031 326.003906 223.941406 C 322.292969 224.175781 318.671875 224.097656 314.871094 223.941406 C 310.796875 223.785156 306.359375 224.019531 302.46875 223.007812 C 298.667969 221.992188 295.136719 219.808594 291.695312 218.015625 C 288.347656 216.144531 284.816406 214.195312 282.011719 211.933594 C 279.292969 209.671875 276.851562 206.863281 275.039062 204.445312 C 273.410156 202.417969 271.960938 200.234375 271.328125 198.441406 C 270.785156 197.113281 270.785156 195.945312 270.785156 194.773438 C 270.875 193.527344 271.238281 192.28125 271.691406 191.1875 C 272.234375 190.019531 272.957031 188.925781 273.863281 187.992188 C 274.769531 187.054688 275.945312 186.195312 277.121094 185.574219 C 278.390625 184.949219 279.746094 184.480469 281.105469 184.167969 C 282.460938 183.933594 284 183.855469 285.359375 183.933594 C 286.808594 184.089844 288.257812 184.402344 289.523438 184.949219 C 290.789062 185.417969 292.058594 186.117188 293.144531 186.976562 C 294.140625 187.835938 295.046875 188.847656 295.679688 189.941406 C 296.402344 190.953125 296.855469 192.203125 297.128906 193.371094 C 297.308594 194.621094 297.398438 195.867188 297.128906 197.113281 C 296.945312 198.285156 296.402344 199.53125 295.769531 200.625 C 295.136719 201.714844 294.230469 202.730469 293.234375 203.585938 C 292.238281 204.367188 290.972656 205.148438 289.703125 205.617188 C 288.4375 206.160156 286.988281 206.550781 285.539062 206.628906 C 284.183594 206.785156 282.644531 206.707031 281.285156 206.472656 C 279.929688 206.238281 278.480469 205.773438 277.300781 205.148438 C 276.035156 204.523438 274.949219 203.664062 274.042969 202.730469 C 273.046875 201.871094 272.324219 200.703125 271.78125 199.609375 C 271.238281 198.519531 270.875 197.191406 270.785156 196.023438 C 270.695312 194.773438 270.875 193.527344 271.238281 192.359375 C 271.601562 191.1875 272.234375 189.941406 273.046875 189.003906 C 273.863281 187.992188 274.859375 186.976562 275.945312 186.273438 C 277.121094 185.496094 278.390625 184.949219 279.746094 184.558594 C 281.105469 184.089844 282.554688 183.933594 284 183.933594 C 285.359375 183.933594 286.898438 184.089844 288.164062 184.480469 C 289.523438 184.871094 290.699219 185.261719 291.96875 186.195312 C 293.867188 187.601562 295.496094 190.640625 297.761719 192.746094 C 300.296875 195.007812 303.28125 197.660156 306.632812 199.066406 C 309.980469 200.46875 313.964844 200.9375 317.765625 201.171875 C 321.660156 201.480469 326.277344 201.871094 329.625 200.546875 C 332.976562 199.21875 336.324219 196.726562 337.863281 193.371094 C 340.125 188.613281 340.214844 178.085938 337.863281 173.5625 C 336.324219 170.363281 333.609375 168.335938 329.804688 166.933594 C 324.464844 164.90625 313.242188 166.621094 307.175781 165.609375 C 302.921875 164.828125 300.113281 163.734375 296.765625 162.410156 C 293.144531 161.085938 289.070312 159.757812 286.265625 157.496094 C 283.277344 155 280.472656 151.257812 279.382812 147.980469 C 278.390625 144.863281 278.660156 141.429688 279.566406 138.234375 C 280.472656 134.800781 282.824219 131.058594 285.085938 128.09375 C 287.167969 125.367188 289.703125 123.339844 292.328125 121 C 295.046875 118.582031 297.671875 115.695312 301.109375 113.980469 C 304.640625 112.265625 308.351562 111.40625 313.332031 110.9375 C 320.933594 110.234375 337.230469 111.40625 342.75 112.730469 C 345.015625 113.355469 346.101562 113.902344 347.367188 114.835938 C 348.636719 115.851562 349.8125 117.097656 350.355469 118.582031 C 351.078125 120.453125 351.078125 123.492188 350.355469 125.367188 C 349.8125 126.847656 348.816406 128.09375 347.367188 129.109375 C 345.648438 130.277344 340.125 131.449219 340.125 131.449219 " clip-rule="nonzero"/></clipPath><clipPath id="3691543fdd"><path d="M 551.386719 110.84375 L 643.117188 110.84375 L 643.117188 135.773438 L 551.386719 135.773438 Z M 551.386719 110.84375 " clip-rule="nonzero"/></clipPath><clipPath id="d50d598627"><path d="M 561.851562 115.050781 C 597.5625 113.40625 611.417969 111.269531 620.367188 111.105469 C 626.390625 110.941406 632.070312 110.53125 635.769531 111.925781 C 638.351562 112.914062 640.246094 114.640625 641.449219 116.613281 C 642.65625 118.582031 643.257812 121.378906 643 123.679688 C 642.742188 125.898438 641.449219 128.527344 639.730469 130.171875 C 638.09375 131.8125 635.425781 133.128906 633.105469 133.457031 C 630.695312 133.785156 627.511719 133.046875 625.703125 132.226562 C 624.328125 131.648438 623.550781 131.074219 622.691406 130.007812 C 621.402344 128.527344 619.9375 125.324219 619.59375 123.433594 C 619.335938 122.117188 619.335938 121.132812 619.765625 119.816406 C 620.453125 118.007812 621.917969 115.132812 623.722656 113.734375 C 625.53125 112.257812 628.714844 111.351562 630.78125 111.105469 C 632.15625 110.941406 633.191406 111.023438 634.566406 111.515625 C 636.460938 112.257812 639.386719 114.144531 640.761719 115.625 C 641.707031 116.695312 642.140625 117.515625 642.484375 118.832031 C 642.914062 120.71875 643.171875 123.925781 642.398438 126.0625 C 641.621094 128.199219 639.386719 130.5 637.835938 131.730469 C 636.632812 132.554688 635.769531 132.964844 634.308594 133.210938 C 632.328125 133.539062 629.832031 132.71875 626.820312 132.800781 C 622.175781 132.882812 615.980469 134.03125 609.265625 134.445312 C 600.144531 135.019531 586.117188 135.511719 576.910156 135.511719 C 570.199219 135.511719 563.574219 136.167969 559.355469 134.855469 C 556.601562 134.03125 554.539062 132.472656 553.246094 130.828125 C 552.128906 129.511719 551.527344 128.035156 551.441406 126.308594 C 551.265625 124.253906 552.128906 121.132812 553.246094 119.40625 C 554.105469 118.007812 555.570312 116.941406 556.945312 116.199219 C 558.410156 115.542969 561.851562 115.050781 561.851562 115.050781 " clip-rule="nonzero"/></clipPath><clipPath id="094654b0ff"><path d="M 587.5625 123.683594 L 612.945312 123.683594 L 612.945312 223.96875 L 587.5625 223.96875 Z M 587.5625 123.683594 " clip-rule="nonzero"/></clipPath><clipPath id="4f58b81159"><path d="M 609.523438 133.785156 C 610.816406 183.996094 613.140625 205.9375 612.882812 212.347656 C 612.710938 214.15625 612.796875 214.648438 612.277344 215.964844 C 611.503906 217.773438 609.695312 220.484375 607.804688 221.796875 C 605.824219 223.113281 602.898438 223.933594 600.488281 223.851562 C 598.082031 223.769531 595.066406 222.375 593.347656 221.222656 C 592.230469 220.484375 591.539062 219.746094 590.851562 218.511719 C 589.90625 216.703125 588.871094 213.664062 589.128906 211.445312 C 589.304688 209.144531 590.59375 206.515625 592.230469 204.789062 C 593.863281 203.144531 596.875 201.828125 598.855469 201.335938 C 600.230469 200.925781 601.265625 200.925781 602.726562 201.253906 C 604.707031 201.664062 607.890625 203.308594 609.4375 204.542969 C 610.558594 205.445312 611.160156 206.515625 611.675781 207.582031 C 612.191406 208.648438 612.710938 209.71875 612.796875 211.117188 C 612.796875 213.003906 612.449219 216.210938 611.246094 218.183594 C 610.042969 220.15625 607.71875 222.128906 605.480469 222.949219 C 603.328125 223.851562 600.230469 224.015625 597.90625 223.441406 C 595.585938 222.867188 593.003906 220.894531 591.625 219.496094 C 590.59375 218.429688 590.25 218.019531 589.734375 216.292969 C 587.925781 209.964844 587.925781 184.902344 587.753906 170.519531 C 587.582031 157.617188 587.582031 140.195312 588.527344 133.785156 C 588.785156 131.484375 588.957031 130.5 589.734375 129.183594 C 590.421875 127.789062 591.539062 126.390625 593.003906 125.570312 C 594.894531 124.5 597.992188 123.597656 600.316406 123.84375 C 602.640625 124.089844 605.394531 125.488281 606.859375 127.128906 C 608.40625 128.855469 609.523438 133.785156 609.523438 133.785156 " clip-rule="nonzero"/></clipPath><clipPath id="8b86eee83f"><path d="M 451.234375 111.246094 L 538.671875 111.246094 L 538.671875 134.875 L 451.234375 134.875 Z M 451.234375 111.246094 " clip-rule="nonzero"/></clipPath><clipPath id="a4b3cc8808"><path d="M 461.265625 113.835938 C 529.03125 111.246094 529.367188 111.160156 530.703125 111.746094 C 532.457031 112.496094 535.300781 114.585938 536.550781 116.089844 C 537.472656 117.175781 537.890625 118.097656 538.140625 119.433594 C 538.558594 121.355469 538.640625 124.613281 537.804688 126.785156 C 536.96875 128.875 535.132812 131.132812 533.125 132.382812 C 531.203125 133.554688 527.945312 134.054688 526.023438 133.972656 C 524.605469 133.972656 523.683594 133.722656 522.429688 133.054688 C 520.675781 132.132812 518.167969 129.710938 517.082031 128.039062 C 516.332031 126.871094 515.996094 125.949219 515.832031 124.613281 C 515.664062 122.609375 515.914062 119.433594 517 117.34375 C 518.003906 115.339844 520.175781 113.25 522.179688 112.246094 C 524.269531 111.246094 527.527344 111.160156 529.449219 111.410156 C 530.871094 111.578125 531.875 112.164062 532.960938 112.75 C 533.960938 113.332031 534.964844 114 535.800781 115.089844 C 536.96875 116.675781 538.390625 119.601562 538.558594 121.855469 C 538.726562 124.195312 537.640625 127.203125 536.636719 128.957031 C 535.96875 130.210938 535.300781 130.878906 534.128906 131.632812 C 532.542969 132.71875 530.453125 133.472656 527.277344 134.054688 C 520.761719 135.226562 507.558594 134.640625 497.113281 134.722656 C 485.664062 134.722656 467.617188 134.976562 461.265625 134.140625 C 458.925781 133.804688 458.007812 133.890625 456.585938 132.96875 C 454.75 131.882812 452.578125 129.710938 451.742188 127.539062 C 450.988281 125.449219 451.15625 122.359375 451.742188 120.351562 C 452.242188 118.765625 453.160156 117.429688 454.5 116.339844 C 456.167969 115.089844 461.265625 113.835938 461.265625 113.835938 " clip-rule="nonzero"/></clipPath><clipPath id="f62e8f5f49"><path d="M 482 119.023438 L 506.886719 119.023438 L 506.886719 222.449219 L 482 222.449219 Z M 482 119.023438 " clip-rule="nonzero"/></clipPath><clipPath id="0c68f7e24e"><path d="M 506.222656 129.375 C 506.722656 183.1875 507.640625 206.585938 504.800781 214.4375 C 503.628906 217.613281 502.292969 219.035156 500.289062 220.371094 C 498.367188 221.625 495.191406 222.292969 493.269531 222.292969 C 491.847656 222.378906 490.847656 222.125 489.59375 221.542969 C 487.839844 220.621094 485.164062 218.699219 483.996094 216.695312 C 482.742188 214.773438 482.15625 211.847656 482.40625 209.507812 C 482.65625 207.253906 484.246094 204.414062 485.5 202.824219 C 486.332031 201.738281 487.167969 201.152344 488.421875 200.570312 C 490.261719 199.816406 493.4375 199.066406 495.691406 199.398438 C 498.03125 199.816406 500.621094 201.152344 502.210938 202.824219 C 503.796875 204.578125 505.050781 207.253906 505.300781 209.507812 C 505.550781 211.847656 504.632812 214.941406 503.714844 216.695312 C 503.128906 218.03125 502.460938 218.785156 501.289062 219.621094 C 499.703125 220.707031 496.445312 222.042969 494.4375 222.292969 C 493.101562 222.460938 492.097656 222.378906 490.761719 221.875 C 488.925781 221.207031 486.082031 219.621094 484.664062 217.78125 C 483.242188 215.945312 482.742188 213.769531 482.324219 210.761719 C 481.570312 205.664062 482.40625 196.558594 482.824219 189.539062 C 483.242188 182.519531 484.410156 176.753906 484.914062 168.480469 C 485.582031 157.035156 483.492188 134.390625 485.917969 126.953125 C 486.917969 123.863281 488.171875 122.191406 490.09375 120.9375 C 491.933594 119.683594 494.855469 118.933594 497.195312 119.183594 C 499.453125 119.433594 502.125 120.855469 503.628906 122.609375 C 505.132812 124.28125 506.222656 129.375 506.222656 129.375 " clip-rule="nonzero"/></clipPath><clipPath id="aeef8640d5"><path d="M 450.019531 198.261719 L 546.53125 198.261719 L 546.53125 224 L 450.019531 224 Z M 450.019531 198.261719 " clip-rule="nonzero"/></clipPath><clipPath id="28bfe46076"><path d="M 460.261719 202.40625 C 516.332031 200.734375 522.683594 198.980469 528.28125 198.648438 C 532.292969 198.394531 536.136719 198.230469 538.558594 198.8125 C 539.980469 199.148438 540.8125 199.566406 541.902344 200.484375 C 543.320312 201.820312 545.410156 204.328125 546.078125 206.5 C 546.664062 208.757812 546.578125 211.683594 545.742188 213.855469 C 544.910156 216.027344 543.070312 218.28125 541.066406 219.535156 C 539.058594 220.707031 535.882812 221.207031 533.960938 221.207031 C 532.542969 221.125 531.539062 220.875 530.371094 220.203125 C 528.613281 219.285156 526.023438 216.863281 524.9375 215.273438 C 524.1875 214.105469 523.851562 213.101562 523.683594 211.765625 C 523.515625 209.761719 523.769531 206.585938 524.769531 204.496094 C 525.855469 202.40625 527.945312 200.402344 530.035156 199.398438 C 532.125 198.394531 535.382812 198.230469 537.386719 198.480469 C 538.726562 198.648438 539.644531 198.980469 540.8125 199.816406 C 542.402344 200.988281 544.742188 203.578125 545.660156 205.332031 C 546.246094 206.585938 546.496094 207.585938 546.496094 209.007812 C 546.496094 210.929688 545.578125 214.355469 544.574219 216.027344 C 543.90625 217.28125 543.238281 218.03125 542.066406 218.785156 C 540.480469 219.871094 538.308594 220.539062 535.132812 221.207031 C 529.117188 222.542969 518.085938 223.378906 507.640625 223.714844 C 494.019531 224.214844 467.867188 223.882812 460.261719 222.878906 C 457.839844 222.542969 457.003906 222.628906 455.5 221.707031 C 453.746094 220.621094 451.488281 218.449219 450.738281 216.277344 C 449.902344 214.1875 449.902344 211.179688 450.738281 209.007812 C 451.488281 206.917969 453.746094 204.664062 455.5 203.660156 C 457.003906 202.742188 460.261719 202.40625 460.261719 202.40625 " clip-rule="nonzero"/></clipPath><clipPath id="4d384a57d6"><path d="M 37 304.628906 L 120.113281 304.628906 L 120.113281 416.804688 L 37 416.804688 Z M 37 304.628906 " clip-rule="nonzero"/></clipPath><clipPath id="e3354531ae"><path d="M 39.363281 402.667969 C 37.972656 340.214844 36.824219 334.058594 37.070312 328.703125 C 37.234375 324.863281 37.398438 321.824219 38.625 318.945312 C 39.9375 316.066406 42.144531 313.269531 44.683594 311.191406 C 47.140625 309.03125 50.496094 307.433594 53.6875 306.390625 C 56.878906 305.433594 60.398438 305.191406 63.835938 305.03125 C 67.4375 304.871094 70.628906 304.792969 74.722656 305.511719 C 80.371094 306.472656 89.371094 309.429688 94.609375 311.589844 C 98.457031 313.1875 101.078125 314.546875 103.941406 316.546875 C 106.804688 318.464844 109.589844 320.785156 111.882812 323.34375 C 114.089844 325.984375 116.136719 329.101562 117.445312 332.21875 C 118.757812 335.339844 119.574219 338.777344 119.738281 342.054688 C 119.984375 345.253906 119.820312 348.453125 118.839844 351.652344 C 117.691406 355.007812 115.808594 359.246094 113.191406 361.644531 C 110.734375 363.964844 107.625 364.84375 103.695312 365.964844 C 98.210938 367.644531 89.863281 368.363281 82.90625 369.082031 C 76.03125 369.882812 68.011719 371.082031 62.199219 370.441406 C 57.859375 369.882812 53.359375 369.402344 50.902344 367.082031 C 48.613281 364.765625 47.058594 360.125 47.546875 356.847656 C 48.121094 353.25 51.886719 348.371094 55.160156 346.53125 C 58.1875 344.855469 62.363281 345.652344 65.964844 345.652344 C 69.484375 345.574219 73.167969 345.894531 76.769531 346.292969 C 80.371094 346.691406 84.132812 347.253906 87.488281 348.210938 C 90.683594 349.171875 93.957031 350.132812 96.574219 351.96875 C 99.195312 353.890625 101.078125 356.769531 102.960938 359.40625 C 104.925781 362.046875 106.644531 364.765625 108.199219 367.644531 C 109.671875 370.601562 110.980469 373 112.125 376.679688 C 113.683594 382.117188 115.890625 397.230469 115.726562 397.308594 C 115.644531 397.308594 114.992188 395.46875 115.15625 395.390625 C 115.402344 395.308594 117.121094 397.148438 117.855469 398.109375 C 118.59375 399.148438 119.164062 400.347656 119.492188 401.546875 C 119.902344 402.746094 120.066406 404.105469 119.984375 405.304688 C 119.902344 406.585938 119.65625 407.863281 119.164062 409.0625 C 118.675781 410.183594 118.019531 411.382812 117.203125 412.339844 C 116.382812 413.300781 115.402344 414.101562 114.253906 414.820312 C 113.191406 415.460938 111.964844 415.941406 110.652344 416.261719 C 109.425781 416.5 108.117188 416.578125 106.804688 416.5 C 105.578125 416.339844 104.1875 416.019531 103.042969 415.460938 C 101.894531 414.980469 100.75 414.261719 99.847656 413.382812 C 98.867188 412.582031 98.046875 411.542969 97.476562 410.421875 C 96.820312 409.304688 96.410156 408.023438 96.167969 406.824219 C 95.921875 405.625 95.921875 404.265625 96.167969 403.066406 C 96.328125 401.785156 96.738281 400.507812 97.3125 399.46875 C 97.886719 398.347656 98.703125 397.230469 99.6875 396.347656 C 100.585938 395.550781 101.648438 394.75 102.878906 394.191406 C 104.023438 393.710938 105.332031 393.3125 106.5625 393.152344 C 107.871094 392.992188 109.179688 393.070312 110.40625 393.3125 C 111.71875 393.628906 112.945312 394.109375 114.089844 394.671875 C 115.15625 395.308594 116.21875 396.1875 117.039062 397.148438 C 117.855469 398.109375 118.59375 399.226562 119.082031 400.347656 C 119.574219 401.546875 119.902344 402.828125 119.984375 404.027344 C 120.066406 405.304688 119.902344 406.664062 119.574219 407.863281 C 119.246094 409.0625 118.675781 410.261719 118.019531 411.300781 C 117.28125 412.339844 116.382812 413.300781 115.320312 414.101562 C 114.335938 414.820312 113.109375 415.460938 111.964844 415.859375 C 110.734375 416.261719 109.34375 416.5 108.117188 416.5 C 106.804688 416.578125 105.496094 416.339844 104.269531 415.941406 C 103.042969 415.539062 102.058594 415.058594 100.832031 414.179688 C 99.195312 413.140625 96.984375 411.703125 95.511719 409.621094 C 93.710938 407.0625 92.730469 403.464844 91.582031 399.546875 C 90.109375 394.269531 89.617188 385.632812 87.980469 380.515625 C 86.753906 376.917969 86.425781 373.558594 83.5625 371.5625 C 79.632812 368.601562 64.816406 371.242188 63.507812 368.441406 C 62.527344 366.285156 68.992188 362.527344 69.484375 359.085938 C 69.976562 355.488281 64.164062 349.570312 65.882812 347.09375 C 68.011719 343.894531 80.859375 345.972656 86.34375 344.773438 C 90.191406 343.972656 95.511719 343.496094 96.003906 341.734375 C 96.410156 339.976562 92.320312 336.457031 89.046875 334.378906 C 84.542969 331.421875 75.292969 328.460938 69.8125 327.660156 C 65.882812 327.101562 61.054688 326.300781 59.496094 328.0625 C 57.777344 329.820312 60.152344 334.300781 60.234375 338.695312 C 60.480469 346.054688 60.234375 357.726562 60.070312 367.882812 C 59.988281 378.996094 60.152344 396.507812 59.335938 402.667969 C 59.089844 404.90625 59.089844 405.785156 58.1875 407.222656 C 57.125 408.902344 54.75 410.980469 52.867188 411.863281 C 51.394531 412.5 49.757812 412.660156 48.121094 412.421875 C 46.15625 412.023438 43.292969 410.742188 41.820312 409.144531 C 40.34375 407.542969 39.363281 402.667969 39.363281 402.667969 " clip-rule="nonzero"/></clipPath><clipPath id="16e4d68ce9"><path d="M 126.417969 304.089844 L 235.632812 304.089844 L 235.632812 416.464844 L 126.417969 416.464844 Z M 126.417969 304.089844 " clip-rule="nonzero"/></clipPath><clipPath id="dced87b086"><path d="M 128.25 397.1875 C 140.390625 372.238281 146.070312 358.539062 149.859375 348.921875 C 152.875 341.210938 154.335938 334.675781 157.4375 328.054688 C 160.621094 321.429688 163.203125 312.902344 168.628906 309.09375 C 174.308594 305.191406 185.933594 303.195312 191.269531 305.464844 C 195.402344 307.1875 196.691406 312.085938 199.621094 317.167969 C 204.183594 324.96875 210.554688 339.03125 214.082031 348.738281 C 217.011719 356.542969 217.441406 362.984375 220.367188 370.421875 C 223.726562 379.042969 231.902344 391.925781 233.96875 397.007812 C 234.660156 398.820312 235.003906 399.636719 235.175781 400.996094 C 235.347656 402.359375 235.347656 403.902344 235.175781 405.261719 C 234.917969 406.621094 234.488281 408.074219 233.796875 409.253906 C 233.195312 410.523438 232.335938 411.703125 231.386719 412.609375 C 230.355469 413.609375 229.234375 414.425781 227.945312 414.96875 C 226.738281 415.605469 225.445312 415.96875 224.070312 416.148438 C 222.777344 416.238281 221.316406 416.148438 220.023438 415.875 C 218.730469 415.515625 217.441406 414.96875 216.320312 414.242188 C 215.203125 413.519531 214.082031 412.519531 213.308594 411.429688 C 212.449219 410.34375 211.671875 409.074219 211.242188 407.800781 C 210.726562 406.441406 210.46875 404.988281 210.382812 403.628906 C 210.296875 402.175781 210.46875 400.726562 210.898438 399.363281 C 211.242188 398.003906 211.84375 396.734375 212.621094 395.554688 C 213.308594 394.375 214.339844 393.285156 215.375 392.46875 C 216.492188 391.652344 217.699219 390.925781 218.992188 390.5625 C 220.28125 390.109375 221.660156 389.839844 222.949219 389.839844 C 224.328125 389.929688 225.707031 390.109375 226.910156 390.5625 C 228.203125 391.019531 229.40625 391.742188 230.527344 392.652344 C 231.558594 393.46875 232.507812 394.554688 233.28125 395.734375 C 233.96875 396.914062 234.574219 398.277344 234.917969 399.636719 C 235.261719 400.996094 235.347656 402.449219 235.347656 403.902344 C 235.261719 405.261719 234.917969 406.714844 234.402344 407.984375 C 233.882812 409.34375 233.195312 410.613281 232.25 411.613281 C 231.386719 412.703125 230.355469 413.609375 229.148438 414.335938 C 228.03125 415.058594 226.738281 415.605469 225.445312 415.875 C 224.15625 416.148438 222.691406 416.238281 221.402344 416.058594 C 220.023438 415.875 218.730469 415.515625 217.527344 414.878906 C 216.320312 414.335938 215.460938 413.882812 214.167969 412.519531 C 211.070312 408.980469 204.527344 396.644531 201.515625 390.5625 C 199.535156 386.390625 198.671875 384.03125 197.210938 379.769531 C 195.144531 373.6875 194.109375 365.707031 190.925781 357.269531 C 186.535156 345.292969 168.714844 318.800781 171.640625 315.351562 C 173.535156 313.175781 188.085938 318.253906 189.375 322.246094 C 190.667969 326.511719 180.851562 334.222656 177.582031 340.847656 C 174.222656 347.558594 172.585938 354.363281 169.402344 362.167969 C 165.269531 371.785156 159.328125 385.121094 154.679688 393.921875 C 151.238281 400.636719 148.136719 407.800781 144.609375 410.976562 C 142.457031 412.972656 139.875 413.882812 137.808594 414.152344 C 136 414.335938 134.277344 413.882812 132.8125 413.15625 C 131.351562 412.429688 129.800781 411.339844 128.855469 409.796875 C 127.648438 407.894531 126.703125 404.535156 126.703125 402.269531 C 126.703125 400.363281 128.25 397.1875 128.25 397.1875 " clip-rule="nonzero"/></clipPath><clipPath id="ec1816f4e9"><path d="M 152.351562 366.878906 L 207.746094 366.878906 L 207.746094 390.46875 L 152.351562 390.46875 Z M 152.351562 366.878906 " clip-rule="nonzero"/></clipPath><clipPath id="30ceac28f4"><path d="M 162.925781 368.984375 C 199.601562 367.351562 201.40625 367.867188 203.214844 369.246094 C 205.023438 370.621094 206.660156 373.03125 207.261719 375.183594 C 207.863281 377.335938 207.691406 380.265625 206.832031 382.328125 C 206.058594 384.394531 204.164062 386.632812 202.183594 387.753906 C 200.289062 388.957031 197.1875 389.390625 195.210938 389.304688 C 193.832031 389.304688 192.886719 389.046875 191.765625 388.355469 C 190.042969 387.410156 187.546875 385.085938 186.515625 383.449219 C 185.824219 382.242188 185.480469 381.382812 185.394531 380.003906 C 185.222656 378.027344 185.480469 374.925781 186.515625 372.945312 C 187.632812 370.878906 190.042969 368.984375 191.765625 368.039062 C 192.972656 367.351562 194.003906 367.179688 195.210938 367.003906 C 196.414062 366.917969 197.535156 366.832031 198.824219 367.265625 C 200.71875 367.78125 203.558594 369.15625 205.023438 370.878906 C 206.488281 372.601562 207.347656 375.699219 207.605469 377.59375 C 207.863281 378.886719 207.691406 379.917969 207.261719 381.210938 C 206.574219 383.019531 205.023438 385.773438 203.214844 387.066406 C 201.40625 388.441406 199.253906 388.871094 196.414062 389.390625 C 192.023438 390.164062 184.878906 389.992188 179.023438 390.078125 C 172.910156 390.078125 164.820312 391.023438 160.429688 389.648438 C 157.675781 388.785156 155.609375 387.066406 154.316406 385.429688 C 153.195312 384.050781 152.679688 382.328125 152.507812 380.695312 C 152.335938 379.144531 152.507812 377.25 153.109375 375.785156 C 153.714844 374.238281 154.574219 372.6875 155.953125 371.65625 C 157.675781 370.277344 162.925781 368.984375 162.925781 368.984375 " clip-rule="nonzero"/></clipPath><clipPath id="b1585a1040"><path d="M 242.546875 305.1875 L 328 305.1875 L 328 328.296875 L 242.546875 328.296875 Z M 242.546875 305.1875 " clip-rule="nonzero"/></clipPath><clipPath id="808bc4d8a4"><path d="M 252.355469 307.71875 C 318.632812 305.183594 318.960938 305.101562 320.269531 305.675781 C 321.984375 306.410156 324.761719 308.453125 325.988281 309.925781 C 326.886719 310.988281 327.296875 311.886719 327.542969 313.195312 C 327.949219 315.074219 328.03125 318.261719 327.214844 320.386719 C 326.398438 322.429688 324.601562 324.636719 322.640625 325.859375 C 320.757812 327.003906 317.570312 327.496094 315.691406 327.414062 C 314.304688 327.414062 313.402344 327.167969 312.179688 326.515625 C 310.460938 325.617188 308.011719 323.246094 306.949219 321.609375 C 306.210938 320.46875 305.886719 319.566406 305.722656 318.261719 C 305.558594 316.300781 305.804688 313.195312 306.867188 311.152344 C 307.847656 309.191406 309.972656 307.144531 311.933594 306.164062 C 313.976562 305.183594 317.164062 305.101562 319.042969 305.347656 C 320.433594 305.511719 321.414062 306.085938 322.476562 306.65625 C 323.457031 307.226562 324.4375 307.882812 325.253906 308.945312 C 326.398438 310.496094 327.789062 313.355469 327.949219 315.5625 C 328.113281 317.851562 327.050781 320.792969 326.070312 322.511719 C 325.417969 323.734375 324.761719 324.390625 323.621094 325.125 C 322.066406 326.1875 320.023438 326.921875 316.917969 327.496094 C 310.542969 328.640625 297.632812 328.066406 287.417969 328.148438 C 276.21875 328.148438 258.566406 328.394531 252.355469 327.578125 C 250.070312 327.25 249.171875 327.332031 247.78125 326.433594 C 245.984375 325.371094 243.859375 323.246094 243.039062 321.121094 C 242.304688 319.078125 242.46875 316.054688 243.039062 314.09375 C 243.53125 312.539062 244.429688 311.234375 245.738281 310.171875 C 247.371094 308.945312 252.355469 307.71875 252.355469 307.71875 " clip-rule="nonzero"/></clipPath><clipPath id="b87fd9e5b4"><path d="M 272.554688 312.792969 L 296.976562 312.792969 L 296.976562 413.949219 L 272.554688 413.949219 Z M 272.554688 312.792969 " clip-rule="nonzero"/></clipPath><clipPath id="02a2854f4c"><path d="M 296.324219 322.917969 C 296.8125 375.546875 297.714844 398.429688 294.933594 406.113281 C 293.789062 409.21875 292.484375 410.609375 290.523438 411.914062 C 288.640625 413.140625 285.535156 413.792969 283.65625 413.792969 C 282.269531 413.875 281.289062 413.632812 280.0625 413.058594 C 278.34375 412.160156 275.730469 410.28125 274.585938 408.320312 C 273.359375 406.441406 272.789062 403.578125 273.03125 401.292969 C 273.277344 399.085938 274.832031 396.304688 276.058594 394.753906 C 276.875 393.691406 277.691406 393.117188 278.917969 392.546875 C 280.714844 391.8125 283.820312 391.074219 286.027344 391.402344 C 288.316406 391.8125 290.847656 393.117188 292.402344 394.753906 C 293.953125 396.46875 295.179688 399.085938 295.425781 401.292969 C 295.671875 403.578125 294.769531 406.601562 293.871094 408.320312 C 293.300781 409.625 292.648438 410.363281 291.503906 411.179688 C 289.949219 412.242188 286.761719 413.550781 284.800781 413.792969 C 283.492188 413.957031 282.511719 413.875 281.207031 413.386719 C 279.40625 412.730469 276.628906 411.179688 275.238281 409.382812 C 273.851562 407.582031 273.359375 405.460938 272.953125 402.515625 C 272.214844 397.53125 273.03125 388.625 273.441406 381.757812 C 273.851562 374.894531 274.996094 369.253906 275.484375 361.164062 C 276.136719 349.96875 274.09375 327.824219 276.464844 320.550781 C 277.445312 317.523438 278.671875 315.890625 280.550781 314.664062 C 282.347656 313.4375 285.210938 312.703125 287.5 312.949219 C 289.703125 313.195312 292.320312 314.582031 293.789062 316.300781 C 295.261719 317.933594 296.324219 322.917969 296.324219 322.917969 " clip-rule="nonzero"/></clipPath><clipPath id="f340e6a9bb"><path d="M 241.359375 390.292969 L 335.746094 390.292969 L 335.746094 415.476562 L 241.359375 415.476562 Z M 241.359375 390.292969 " clip-rule="nonzero"/></clipPath><clipPath id="36bdc21053"><path d="M 251.375 394.34375 C 306.210938 392.710938 312.421875 390.992188 317.898438 390.667969 C 321.820312 390.421875 325.582031 390.257812 327.949219 390.832031 C 329.339844 391.15625 330.15625 391.566406 331.21875 392.464844 C 332.609375 393.773438 334.652344 396.222656 335.304688 398.347656 C 335.878906 400.554688 335.796875 403.414062 334.980469 405.539062 C 334.160156 407.664062 332.363281 409.871094 330.402344 411.097656 C 328.441406 412.242188 325.335938 412.730469 323.457031 412.730469 C 322.066406 412.652344 321.085938 412.40625 319.941406 411.75 C 318.226562 410.851562 315.691406 408.484375 314.628906 406.929688 C 313.894531 405.785156 313.566406 404.804688 313.402344 403.496094 C 313.242188 401.535156 313.484375 398.429688 314.464844 396.386719 C 315.527344 394.34375 317.570312 392.382812 319.613281 391.402344 C 321.65625 390.421875 324.84375 390.257812 326.808594 390.503906 C 328.113281 390.667969 329.011719 390.992188 330.15625 391.8125 C 331.710938 392.957031 334 395.488281 334.898438 397.203125 C 335.46875 398.429688 335.714844 399.410156 335.714844 400.800781 C 335.714844 402.679688 334.816406 406.03125 333.835938 407.664062 C 333.179688 408.890625 332.527344 409.625 331.382812 410.363281 C 329.832031 411.425781 327.707031 412.078125 324.601562 412.730469 C 318.714844 414.039062 307.929688 414.855469 297.714844 415.183594 C 284.394531 415.675781 258.8125 415.347656 251.375 414.367188 C 249.007812 414.039062 248.1875 414.121094 246.71875 413.222656 C 245.003906 412.160156 242.796875 410.035156 242.058594 407.910156 C 241.242188 405.867188 241.242188 402.925781 242.058594 400.800781 C 242.796875 398.757812 245.003906 396.550781 246.71875 395.570312 C 248.1875 394.671875 251.375 394.34375 251.375 394.34375 " clip-rule="nonzero"/></clipPath><clipPath id="de5f03601e"><path d="M 331.539062 304.765625 L 419.789062 304.765625 L 419.789062 417 L 331.539062 417 Z M 331.539062 304.765625 " clip-rule="nonzero"/></clipPath><clipPath id="871e9cff11"><path d="M 343.613281 405.660156 C 337.230469 367.507812 336.730469 343.238281 335.074219 331.738281 C 334.078125 325.550781 331.925781 321.1875 331.925781 317.617188 C 331.925781 315.398438 332.503906 313.730469 333.085938 312.382812 C 333.5 311.433594 333.832031 310.875 334.578125 310.164062 C 335.570312 309.050781 337.644531 307.625 338.96875 306.988281 C 339.964844 306.515625 340.628906 306.355469 341.707031 306.195312 C 343.195312 306.117188 345.519531 306.117188 347.175781 306.671875 C 348.917969 307.226562 350.824219 308.496094 351.898438 309.527344 C 352.644531 310.242188 353.058594 310.71875 353.558594 311.667969 C 354.222656 312.9375 353.972656 315.160156 355.050781 316.746094 C 356.625 318.964844 360.269531 320.234375 363.339844 322.933594 C 367.980469 327.058594 374.277344 333.324219 379.417969 339.828125 C 385.46875 347.363281 391.269531 357.039062 396.738281 366.082031 C 402.292969 375.203125 414.0625 389.003906 412.324219 394.398438 C 411.328125 397.570312 405.027344 397.410156 402.128906 399.632812 C 399.308594 401.773438 397.070312 407.800781 395.082031 407.246094 C 390.691406 405.976562 388.867188 373.773438 387.207031 357.992188 C 385.714844 343.554688 384.804688 321.820312 385.136719 316.113281 C 385.21875 314.683594 385.21875 314.367188 385.550781 313.414062 C 386.046875 311.988281 387.125 309.84375 388.453125 308.578125 C 389.695312 307.308594 391.851562 306.195312 393.34375 305.5625 C 394.335938 305.164062 395.082031 305.085938 396.160156 305.007812 C 397.734375 305.007812 400.386719 305.402344 401.878906 305.878906 C 402.957031 306.277344 403.703125 306.753906 404.449219 307.308594 C 405.195312 307.863281 405.941406 308.339844 406.519531 309.210938 C 407.515625 310.480469 409.089844 312.144531 409.089844 314.207031 C 409.089844 317.460938 405.113281 324.914062 402.875 326.820312 C 401.714844 327.851562 400.386719 327.851562 399.144531 328.007812 C 397.902344 328.246094 396.492188 328.246094 395.25 328.007812 C 393.921875 327.851562 392.679688 327.375 391.519531 326.820312 C 390.359375 326.265625 389.28125 325.472656 388.367188 324.519531 C 387.539062 323.644531 386.710938 322.535156 386.214844 321.425781 C 385.632812 320.316406 385.300781 319.046875 385.136719 317.855469 C 385.054688 316.585938 385.136719 315.316406 385.386719 314.050781 C 385.632812 312.859375 386.132812 311.667969 386.792969 310.558594 C 387.457031 309.527344 388.367188 308.496094 389.363281 307.703125 C 390.359375 306.910156 391.519531 306.277344 392.761719 305.800781 C 393.921875 305.324219 395.25 305.085938 396.574219 305.007812 C 397.816406 304.929688 399.226562 305.085938 400.46875 305.402344 C 401.714844 305.722656 402.957031 306.277344 404.035156 306.988281 C 405.113281 307.703125 406.105469 308.578125 406.851562 309.609375 C 407.597656 310.558594 408.261719 311.75 408.675781 312.859375 C 409.089844 314.050781 409.339844 315.316406 409.339844 316.585938 C 409.339844 317.855469 409.089844 319.125 408.675781 320.316406 C 408.261719 321.425781 407.597656 322.617188 406.851562 323.566406 C 406.023438 324.597656 405.027344 325.472656 403.949219 326.183594 C 402.957031 326.898438 401.628906 327.453125 400.46875 327.769531 C 399.226562 328.089844 397.816406 328.246094 396.492188 328.167969 C 395.25 328.089844 393.921875 327.769531 392.679688 327.375 C 391.519531 326.898438 390.359375 326.183594 389.363281 325.390625 C 388.367188 324.597656 387.457031 323.566406 386.792969 322.535156 C 386.132812 321.503906 385.632812 320.234375 385.386719 319.046875 C 385.054688 317.855469 385.054688 316.507812 385.136719 315.316406 C 385.300781 314.050781 385.632812 312.78125 386.214844 311.667969 C 386.792969 310.558594 388.203125 308.496094 388.453125 308.578125 C 388.785156 308.8125 385.800781 318.964844 385.300781 318.964844 C 385.136719 318.886719 385.054688 317.0625 385.136719 316.113281 C 385.136719 315.238281 385.21875 314.367188 385.550781 313.414062 C 386.046875 311.988281 387.457031 309.765625 388.453125 308.578125 C 389.199219 307.78125 389.695312 307.308594 390.691406 306.832031 C 392.097656 306.039062 394.335938 305.164062 396.160156 305.007812 C 398.066406 304.847656 400.386719 305.402344 401.878906 305.878906 C 402.957031 306.277344 403.621094 306.59375 404.449219 307.308594 C 405.691406 308.257812 407.347656 310.242188 408.09375 311.589844 C 408.675781 312.542969 408.757812 313.019531 409.089844 314.207031 C 409.671875 316.667969 410.332031 321.742188 410.417969 325.390625 C 410.582031 328.722656 409.835938 331.261719 409.835938 335.148438 C 409.835938 340.699219 410.25 347.203125 411.160156 355.53125 C 412.570312 368.855469 421.6875 397.570312 419.035156 407.484375 C 417.710938 412.164062 415.222656 415.496094 411.824219 416.605469 C 407.597656 417.875 399.558594 415.496094 394.75 411.6875 C 388.367188 406.53125 385.300781 393.367188 380.164062 384.480469 C 375.191406 375.679688 368.644531 364.496094 364.5 358.464844 C 362.09375 355.054688 361.101562 353.945312 358.363281 350.695312 C 353.308594 344.746094 340.046875 333.003906 335.820312 326.582031 C 333.582031 323.089844 332.339844 319.761719 331.925781 317.617188 C 331.757812 316.429688 331.925781 315.953125 332.171875 314.921875 C 332.589844 313.574219 333.664062 311.273438 334.578125 310.164062 C 335.242188 309.289062 335.65625 308.894531 336.566406 308.257812 C 337.808594 307.464844 340.214844 306.515625 341.707031 306.195312 C 342.699219 306.039062 343.445312 305.957031 344.441406 306.117188 C 346.015625 306.355469 348.417969 307.148438 349.746094 307.78125 C 350.65625 308.339844 351.238281 308.734375 351.898438 309.527344 C 352.894531 310.636719 353.890625 312.066406 354.636719 314.128906 C 355.960938 317.378906 356.789062 321.820312 357.535156 327.929688 C 359.027344 339.429688 358.863281 364.257812 360.1875 378.296875 C 361.183594 388.527344 364.664062 398.996094 363.835938 404.628906 C 363.339844 407.5625 362.425781 409.386719 360.769531 410.894531 C 359.195312 412.402344 356.457031 413.589844 354.222656 413.671875 C 351.984375 413.828125 349.082031 412.957031 347.339844 411.609375 C 345.601562 410.261719 343.613281 405.660156 343.613281 405.660156 " clip-rule="nonzero"/></clipPath><clipPath id="2f7659eca8"><path d="M 431.746094 306.429688 L 517.261719 306.429688 L 517.261719 329.542969 L 431.746094 329.542969 Z M 431.746094 306.429688 " clip-rule="nonzero"/></clipPath><clipPath id="2f07466c78"><path d="M 441.558594 308.960938 C 507.835938 306.429688 508.164062 306.347656 509.46875 306.917969 C 511.1875 307.65625 513.964844 309.699219 515.191406 311.167969 C 516.089844 312.230469 516.496094 313.128906 516.742188 314.4375 C 517.152344 316.316406 517.234375 319.503906 516.417969 321.628906 C 515.597656 323.671875 513.800781 325.878906 511.839844 327.105469 C 509.960938 328.25 506.773438 328.738281 504.894531 328.65625 C 503.503906 328.65625 502.605469 328.410156 501.378906 327.757812 C 499.664062 326.859375 497.210938 324.488281 496.148438 322.855469 C 495.414062 321.710938 495.085938 320.8125 494.921875 319.503906 C 494.757812 317.542969 495.003906 314.4375 496.066406 312.394531 C 497.046875 310.433594 499.171875 308.390625 501.132812 307.410156 C 503.175781 306.429688 506.363281 306.347656 508.242188 306.59375 C 509.632812 306.753906 510.613281 307.328125 511.675781 307.898438 C 512.65625 308.472656 513.636719 309.125 514.453125 310.1875 C 515.597656 311.742188 516.988281 314.601562 517.152344 316.808594 C 517.316406 319.09375 516.253906 322.039062 515.273438 323.753906 C 514.617188 324.980469 513.964844 325.632812 512.820312 326.367188 C 511.269531 327.429688 509.226562 328.167969 506.121094 328.738281 C 499.746094 329.882812 486.832031 329.3125 476.617188 329.394531 C 465.421875 329.394531 447.769531 329.636719 441.558594 328.820312 C 439.269531 328.492188 438.371094 328.574219 436.980469 327.675781 C 435.183594 326.613281 433.058594 324.488281 432.242188 322.363281 C 431.507812 320.320312 431.667969 317.296875 432.242188 315.335938 C 432.730469 313.785156 433.632812 312.476562 434.9375 311.414062 C 436.574219 310.1875 441.558594 308.960938 441.558594 308.960938 " clip-rule="nonzero"/></clipPath><clipPath id="26f7172c09"><path d="M 461.757812 314.035156 L 486.175781 314.035156 L 486.175781 415.191406 L 461.757812 415.191406 Z M 461.757812 314.035156 " clip-rule="nonzero"/></clipPath><clipPath id="091dfe2477"><path d="M 485.523438 324.164062 C 486.015625 376.792969 486.914062 399.675781 484.136719 407.355469 C 482.992188 410.460938 481.683594 411.851562 479.722656 413.160156 C 477.84375 414.382812 474.738281 415.039062 472.859375 415.039062 C 471.46875 415.121094 470.488281 414.875 469.261719 414.300781 C 467.546875 413.402344 464.929688 411.523438 463.785156 409.5625 C 462.5625 407.683594 461.988281 404.824219 462.234375 402.535156 C 462.480469 400.328125 464.03125 397.550781 465.257812 395.996094 C 466.074219 394.933594 466.890625 394.363281 468.117188 393.789062 C 469.914062 393.054688 473.019531 392.320312 475.226562 392.644531 C 477.515625 393.054688 480.050781 394.363281 481.601562 395.996094 C 483.15625 397.714844 484.382812 400.328125 484.625 402.535156 C 484.871094 404.824219 483.972656 407.847656 483.074219 409.5625 C 482.5 410.871094 481.847656 411.605469 480.703125 412.421875 C 479.152344 413.484375 475.964844 414.792969 474.003906 415.039062 C 472.695312 415.203125 471.714844 415.121094 470.40625 414.628906 C 468.609375 413.976562 465.828125 412.421875 464.441406 410.625 C 463.050781 408.828125 462.5625 406.703125 462.152344 403.761719 C 461.417969 398.773438 462.234375 389.867188 462.644531 383.003906 C 463.050781 376.136719 464.195312 370.5 464.6875 362.410156 C 465.339844 351.210938 463.296875 329.066406 465.667969 321.792969 C 466.648438 318.769531 467.871094 317.132812 469.753906 315.910156 C 471.550781 314.683594 474.410156 313.945312 476.699219 314.191406 C 478.90625 314.4375 481.519531 315.828125 482.992188 317.542969 C 484.460938 319.175781 485.523438 324.164062 485.523438 324.164062 " clip-rule="nonzero"/></clipPath><clipPath id="08b600fc45"><path d="M 430.558594 391.535156 L 524.949219 391.535156 L 524.949219 416.722656 L 430.558594 416.722656 Z M 430.558594 391.535156 " clip-rule="nonzero"/></clipPath><clipPath id="2095910460"><path d="M 440.578125 395.589844 C 495.414062 393.953125 501.625 392.238281 507.101562 391.910156 C 511.023438 391.664062 514.78125 391.503906 517.152344 392.074219 C 518.542969 392.402344 519.359375 392.808594 520.421875 393.707031 C 521.808594 395.015625 523.851562 397.46875 524.507812 399.59375 C 525.078125 401.800781 524.996094 404.660156 524.179688 406.785156 C 523.363281 408.910156 521.566406 411.117188 519.601562 412.339844 C 517.640625 413.484375 514.535156 413.976562 512.65625 413.976562 C 511.269531 413.894531 510.285156 413.648438 509.144531 412.996094 C 507.425781 412.097656 504.894531 409.726562 503.832031 408.171875 C 503.09375 407.03125 502.769531 406.046875 502.605469 404.742188 C 502.441406 402.78125 502.6875 399.675781 503.667969 397.632812 C 504.730469 395.589844 506.773438 393.625 508.816406 392.644531 C 510.859375 391.664062 514.046875 391.503906 516.007812 391.746094 C 517.316406 391.910156 518.214844 392.238281 519.359375 393.054688 C 520.910156 394.199219 523.199219 396.730469 524.097656 398.449219 C 524.671875 399.675781 524.914062 400.65625 524.914062 402.042969 C 524.914062 403.925781 524.015625 407.273438 523.035156 408.910156 C 522.382812 410.136719 521.726562 410.871094 520.585938 411.605469 C 519.03125 412.667969 516.90625 413.320312 513.800781 413.976562 C 507.917969 415.285156 497.128906 416.101562 486.914062 416.425781 C 473.59375 416.917969 448.015625 416.589844 440.578125 415.609375 C 438.207031 415.285156 437.390625 415.363281 435.917969 414.464844 C 434.203125 413.402344 431.996094 411.277344 431.261719 409.152344 C 430.445312 407.109375 430.445312 404.167969 431.261719 402.042969 C 431.996094 400 434.203125 397.792969 435.917969 396.8125 C 437.390625 395.914062 440.578125 395.589844 440.578125 395.589844 " clip-rule="nonzero"/></clipPath><clipPath id="c8ebf4643e"><path d="M 531.195312 306.007812 L 619.445312 306.007812 L 619.445312 418.425781 L 531.195312 418.425781 Z M 531.195312 306.007812 " clip-rule="nonzero"/></clipPath><clipPath id="b09bccf44c"><path d="M 543.269531 406.902344 C 536.886719 368.753906 536.386719 344.480469 534.730469 332.980469 C 533.738281 326.792969 531.582031 322.429688 531.582031 318.863281 C 531.582031 316.640625 532.160156 314.976562 532.742188 313.628906 C 533.15625 312.675781 533.488281 312.121094 534.234375 311.40625 C 535.226562 310.296875 537.300781 308.867188 538.625 308.234375 C 539.621094 307.757812 540.285156 307.597656 541.363281 307.441406 C 542.855469 307.359375 545.175781 307.359375 546.832031 307.917969 C 548.574219 308.472656 550.480469 309.742188 551.554688 310.773438 C 552.300781 311.484375 552.714844 311.960938 553.214844 312.914062 C 553.878906 314.183594 553.628906 316.402344 554.707031 317.988281 C 556.28125 320.210938 559.925781 321.480469 562.996094 324.175781 C 567.636719 328.300781 573.933594 334.566406 579.074219 341.070312 C 585.125 348.605469 590.925781 358.28125 596.398438 367.324219 C 601.949219 376.445312 613.71875 390.246094 611.980469 395.640625 C 610.984375 398.8125 604.683594 398.65625 601.785156 400.875 C 598.964844 403.015625 596.726562 409.042969 594.738281 408.488281 C 590.347656 407.21875 588.523438 375.019531 586.863281 359.234375 C 585.371094 344.796875 584.460938 323.066406 584.792969 317.355469 C 584.875 315.925781 584.875 315.609375 585.207031 314.65625 C 585.703125 313.230469 586.78125 311.089844 588.109375 309.820312 C 589.351562 308.550781 591.507812 307.441406 593 306.804688 C 593.992188 306.410156 594.738281 306.328125 595.816406 306.25 C 597.390625 306.25 600.042969 306.648438 601.535156 307.121094 C 602.613281 307.519531 603.359375 307.996094 604.105469 308.550781 C 604.851562 309.105469 605.597656 309.582031 606.175781 310.453125 C 607.171875 311.722656 608.746094 313.390625 608.746094 315.453125 C 608.746094 318.703125 604.769531 326.160156 602.53125 328.0625 C 601.371094 329.09375 600.042969 329.09375 598.800781 329.253906 C 597.558594 329.492188 596.148438 329.492188 594.90625 329.253906 C 593.578125 329.09375 592.335938 328.617188 591.175781 328.0625 C 590.015625 327.507812 588.9375 326.714844 588.023438 325.761719 C 587.195312 324.890625 586.367188 323.78125 585.871094 322.667969 C 585.289062 321.558594 584.957031 320.289062 584.792969 319.101562 C 584.710938 317.832031 584.792969 316.5625 585.042969 315.292969 C 585.289062 314.101562 585.789062 312.914062 586.449219 311.800781 C 587.113281 310.773438 588.023438 309.742188 589.019531 308.949219 C 590.015625 308.152344 591.175781 307.519531 592.417969 307.042969 C 593.578125 306.566406 594.90625 306.328125 596.230469 306.25 C 597.472656 306.171875 598.882812 306.328125 600.125 306.648438 C 601.371094 306.964844 602.613281 307.519531 603.691406 308.234375 C 604.769531 308.949219 605.761719 309.820312 606.507812 310.851562 C 607.253906 311.800781 607.917969 312.992188 608.332031 314.101562 C 608.746094 315.292969 608.996094 316.5625 608.996094 317.832031 C 608.996094 319.101562 608.746094 320.367188 608.332031 321.558594 C 607.917969 322.667969 607.253906 323.859375 606.507812 324.8125 C 605.679688 325.839844 604.683594 326.714844 603.609375 327.429688 C 602.613281 328.140625 601.285156 328.695312 600.125 329.015625 C 598.882812 329.332031 597.472656 329.492188 596.148438 329.410156 C 594.90625 329.332031 593.578125 329.015625 592.335938 328.617188 C 591.175781 328.140625 590.015625 327.429688 589.019531 326.636719 C 588.023438 325.839844 587.113281 324.8125 586.449219 323.78125 C 585.789062 322.75 585.289062 321.480469 585.042969 320.289062 C 584.710938 319.101562 584.710938 317.75 584.792969 316.5625 C 584.957031 315.292969 585.289062 314.023438 585.871094 312.914062 C 586.449219 311.800781 587.859375 309.742188 588.109375 309.820312 C 588.441406 310.058594 585.457031 320.210938 584.957031 320.210938 C 584.792969 320.132812 584.710938 318.308594 584.792969 317.355469 C 584.792969 316.480469 584.875 315.609375 585.207031 314.65625 C 585.703125 313.230469 587.113281 311.007812 588.109375 309.820312 C 588.855469 309.027344 589.351562 308.550781 590.347656 308.074219 C 591.753906 307.28125 593.992188 306.410156 595.816406 306.25 C 597.722656 306.09375 600.042969 306.648438 601.535156 307.121094 C 602.613281 307.519531 603.277344 307.835938 604.105469 308.550781 C 605.347656 309.503906 607.003906 311.484375 607.75 312.832031 C 608.332031 313.785156 608.414062 314.261719 608.746094 315.453125 C 609.328125 317.910156 609.988281 322.988281 610.074219 326.636719 C 610.238281 329.964844 609.492188 332.503906 609.492188 336.390625 C 609.492188 341.941406 609.90625 348.445312 610.816406 356.773438 C 612.226562 370.101562 621.34375 398.8125 618.691406 408.726562 C 617.367188 413.40625 614.878906 416.738281 611.480469 417.847656 C 607.253906 419.117188 599.214844 416.738281 594.40625 412.929688 C 588.023438 407.777344 584.957031 394.609375 579.820312 385.726562 C 574.847656 376.921875 568.300781 365.738281 564.15625 359.710938 C 561.75 356.300781 560.757812 355.1875 558.019531 351.9375 C 552.964844 345.988281 539.703125 334.25 535.476562 327.824219 C 533.238281 324.335938 531.996094 321.003906 531.582031 318.863281 C 531.414062 317.671875 531.582031 317.195312 531.828125 316.164062 C 532.246094 314.816406 533.320312 312.515625 534.234375 311.40625 C 534.898438 310.535156 535.3125 310.136719 536.222656 309.503906 C 537.464844 308.710938 539.871094 307.757812 541.363281 307.441406 C 542.355469 307.28125 543.101562 307.203125 544.097656 307.359375 C 545.671875 307.597656 548.074219 308.390625 549.402344 309.027344 C 550.3125 309.582031 550.894531 309.976562 551.554688 310.773438 C 552.550781 311.882812 553.546875 313.308594 554.292969 315.371094 C 555.617188 318.625 556.445312 323.066406 557.191406 329.171875 C 558.683594 340.675781 558.519531 365.5 559.84375 379.539062 C 560.839844 389.769531 564.320312 400.242188 563.492188 405.871094 C 562.996094 408.808594 562.082031 410.632812 560.425781 412.136719 C 558.851562 413.644531 556.113281 414.835938 553.878906 414.914062 C 551.640625 415.074219 548.738281 414.199219 546.996094 412.851562 C 545.257812 411.503906 543.269531 406.902344 543.269531 406.902344 " clip-rule="nonzero"/></clipPath><clipPath id="3969964964"><path d="M 616.886719 304.871094 L 708.324219 304.871094 L 708.324219 415.65625 L 616.886719 415.65625 Z M 616.886719 304.871094 " clip-rule="nonzero"/></clipPath><clipPath id="0239606833"><path d="M 679.253906 329.644531 C 663.679688 325.8125 660.007812 325.320312 656.910156 326.300781 C 653.894531 327.277344 651.121094 329.074219 648.671875 332.007812 C 645.167969 336.167969 641.253906 345.300781 640.027344 350.683594 C 639.214844 354.433594 639.539062 357.207031 639.867188 360.550781 C 640.109375 364.058594 640.761719 367.726562 641.824219 371.070312 C 642.882812 374.332031 644.023438 377.675781 646.144531 380.285156 C 648.265625 382.976562 651.609375 385.261719 654.625 387.054688 C 657.644531 388.851562 660.90625 390.886719 664.167969 391.132812 C 667.429688 391.460938 671.589844 390.644531 674.199219 388.769531 C 676.726562 386.972656 678.113281 383.875 679.582031 380.285156 C 681.703125 375.066406 681.210938 360.796875 683.984375 359.898438 C 686.023438 359.246094 692.628906 365.609375 692.058594 367.074219 C 691.40625 369.03125 677.214844 368.378906 673.382812 368.136719 C 671.589844 368.054688 670.773438 367.890625 669.550781 367.484375 C 668.328125 367.074219 667.105469 366.503906 666.125 365.6875 C 665.148438 364.957031 664.167969 363.976562 663.433594 362.917969 C 662.699219 361.855469 662.128906 360.632812 661.804688 359.410156 C 661.476562 358.1875 661.3125 356.800781 661.394531 355.496094 C 661.476562 354.273438 661.722656 352.96875 662.210938 351.742188 C 662.699219 350.519531 663.433594 349.378906 664.25 348.398438 C 665.066406 347.421875 666.042969 346.605469 667.1875 345.871094 C 668.246094 345.21875 669.550781 344.730469 670.773438 344.484375 C 671.996094 344.160156 673.382812 344.160156 674.605469 344.242188 C 675.910156 344.402344 677.214844 344.730469 678.359375 345.300781 C 679.5 345.789062 680.640625 346.605469 681.621094 347.421875 C 682.515625 348.320312 683.332031 349.378906 683.902344 350.519531 C 684.554688 351.664062 684.964844 352.96875 685.207031 354.191406 C 685.371094 355.496094 685.371094 356.800781 685.207031 358.105469 C 684.964844 359.328125 684.554688 360.632812 683.984375 361.773438 C 683.332031 362.917969 682.515625 363.976562 681.621094 364.875 C 680.640625 365.6875 679.582031 366.503906 678.441406 366.992188 C 677.214844 367.566406 675.910156 367.890625 674.6875 368.054688 C 673.382812 368.21875 672.078125 368.136719 670.773438 367.890625 C 669.550781 367.566406 668.328125 367.074219 667.1875 366.421875 C 666.125 365.769531 665.066406 364.875 664.25 363.894531 C 663.433594 362.917969 662.699219 361.773438 662.210938 360.632812 C 661.804688 359.410156 661.476562 358.105469 661.394531 356.800781 C 661.3125 355.578125 661.476562 354.191406 661.804688 352.96875 C 662.128906 351.742188 662.699219 350.519531 663.433594 349.460938 C 664.167969 348.398438 665.066406 347.421875 666.125 346.605469 C 667.105469 345.871094 668.328125 345.21875 669.550781 344.8125 C 670.691406 344.402344 671.589844 344.402344 673.300781 344.160156 C 677.054688 343.832031 686.023438 343.179688 691.082031 343.507812 C 694.914062 343.75 698.421875 343.589844 701.109375 345.21875 C 703.800781 346.851562 706.25 349.949219 707.390625 353.046875 C 708.53125 356.230469 708.042969 359.980469 707.636719 364.222656 C 707.0625 369.929688 704.78125 378.65625 703.230469 384.121094 C 702.253906 387.871094 701.601562 390.644531 700.050781 393.660156 C 698.5 396.761719 696.21875 399.695312 693.933594 402.386719 C 691.652344 404.914062 689.125 407.445312 686.433594 409.320312 C 683.742188 411.277344 680.804688 412.988281 677.625 413.96875 C 674.363281 415.027344 670.53125 415.355469 667.105469 415.273438 C 663.761719 415.191406 660.5 414.457031 657.316406 413.722656 C 654.054688 412.90625 651.203125 412.335938 647.777344 410.542969 C 642.882812 408.015625 635.789062 402.144531 631.792969 398.390625 C 629.019531 395.699219 627.0625 393.660156 625.269531 390.96875 C 623.472656 388.117188 622.085938 385.507812 620.863281 381.835938 C 619.070312 376.453125 617.519531 367.238281 617.113281 361.613281 C 616.785156 357.695312 616.867188 354.84375 617.277344 351.5 C 617.683594 348.074219 618.089844 345.058594 619.476562 341.140625 C 621.355469 335.679688 625.921875 327.277344 628.9375 322.222656 C 631.058594 318.632812 632.609375 315.859375 635.054688 313.25 C 637.417969 310.722656 640.355469 308.195312 643.453125 306.808594 C 646.554688 305.503906 650.140625 305.339844 653.484375 305.097656 C 656.828125 304.851562 660.089844 305.097656 663.351562 305.339844 C 666.613281 305.585938 669.550781 305.75 673.058594 306.644531 C 677.542969 307.789062 684.800781 309.664062 687.980469 312.109375 C 690.183594 313.742188 691.570312 315.699219 692.140625 317.820312 C 692.628906 319.9375 692.386719 322.875 691.40625 324.75 C 690.429688 326.707031 688.308594 328.746094 686.269531 329.5625 C 684.230469 330.378906 679.253906 329.644531 679.253906 329.644531 " clip-rule="nonzero"/></clipPath><clipPath id="69f4520e4b"><path d="M 728.382812 302 L 795 302 L 795 385.285156 L 728.382812 385.285156 Z M 728.382812 302 " clip-rule="nonzero"/></clipPath><clipPath id="bb9b61eabb"><path d="M 728.519531 332.109375 C 731.796875 317.9375 733.839844 315.320312 736.132812 313.085938 C 738.507812 310.773438 741.535156 308.847656 744.484375 307.230469 C 747.429688 305.691406 750.621094 304.304688 753.816406 303.457031 C 756.925781 302.609375 760.199219 302.378906 763.558594 302.226562 C 766.996094 302.070312 770.925781 301.839844 774.199219 302.6875 C 777.472656 303.613281 780.746094 305.539062 783.367188 307.617188 C 785.90625 309.621094 788.035156 312.160156 789.671875 314.78125 C 791.390625 317.476562 792.617188 320.632812 793.519531 323.714844 C 794.335938 326.714844 795.15625 329.796875 794.910156 332.878906 C 794.746094 336.035156 793.519531 339.425781 792.207031 342.351562 C 790.816406 345.199219 789.097656 347.894531 786.804688 350.28125 C 784.429688 352.671875 781.074219 354.75 778.128906 356.597656 C 775.179688 358.445312 770.761719 358.910156 769.207031 361.449219 C 767.40625 364.375 769.613281 371.078125 769.367188 374.003906 C 769.207031 375.542969 769.125 376.390625 768.714844 377.546875 C 768.304688 378.625 767.730469 379.78125 766.996094 380.703125 C 766.175781 381.628906 765.195312 382.476562 764.210938 383.167969 C 763.148438 383.785156 761.917969 384.324219 760.773438 384.632812 C 759.546875 384.9375 758.234375 385.09375 756.925781 385.015625 C 755.699219 385.015625 754.386719 384.707031 753.242188 384.246094 C 752.097656 383.859375 750.949219 383.167969 749.96875 382.398438 C 748.984375 381.703125 748.167969 380.703125 747.511719 379.703125 C 746.855469 378.699219 746.367188 377.546875 746.121094 376.390625 C 745.792969 375.234375 745.792969 374.003906 745.875 372.769531 C 746.039062 371.617188 746.367188 370.382812 746.9375 369.382812 C 747.429688 368.304688 748.167969 367.226562 749.066406 366.378906 C 749.886719 365.53125 750.949219 364.761719 752.097656 364.222656 C 753.160156 363.683594 754.46875 363.296875 755.699219 363.066406 C 756.925781 362.914062 758.234375 362.914062 759.464844 363.066406 C 760.691406 363.296875 762 363.683594 763.066406 364.222656 C 764.210938 364.761719 765.277344 365.53125 766.09375 366.378906 C 766.996094 367.226562 767.730469 368.304688 768.304688 369.382812 C 768.796875 370.382812 769.125 371.617188 769.289062 372.769531 C 769.449219 374.003906 769.367188 375.234375 769.042969 376.390625 C 768.796875 377.546875 768.304688 378.699219 767.648438 379.703125 C 766.996094 380.703125 766.175781 381.703125 765.195312 382.398438 C 764.210938 383.167969 763.148438 383.859375 761.917969 384.246094 C 760.773438 384.707031 759.464844 385.015625 758.234375 385.015625 C 757.007812 385.09375 755.617188 384.9375 754.46875 384.632812 C 753.242188 384.324219 752.015625 383.785156 750.949219 383.167969 C 749.96875 382.476562 748.984375 381.628906 748.25 380.703125 C 747.429688 379.78125 746.855469 378.625 746.449219 377.546875 C 746.039062 376.390625 745.957031 375.542969 745.792969 374.003906 C 745.628906 371 745.792969 364.683594 746.367188 360.601562 C 746.855469 357.214844 746.9375 354.210938 748.578125 351.285156 C 750.378906 348.050781 754.0625 344.660156 757.253906 342.425781 C 760.117188 340.347656 764.046875 339.886719 766.585938 337.804688 C 768.960938 335.726562 772.152344 332.492188 771.988281 330.027344 C 771.90625 327.488281 768.632812 323.636719 766.011719 322.636719 C 763.3125 321.554688 758.808594 322.636719 755.863281 323.945312 C 752.996094 325.175781 749.558594 328.179688 748.496094 330.257812 C 747.675781 331.722656 748.496094 333.261719 748.085938 334.648438 C 747.59375 336.035156 746.9375 337.5 745.792969 338.578125 C 744.320312 339.886719 741.699219 341.347656 739.488281 341.582031 C 737.28125 341.8125 734.414062 340.886719 732.695312 339.886719 C 731.222656 339.039062 730.238281 337.804688 729.585938 336.496094 C 728.847656 335.1875 728.519531 332.109375 728.519531 332.109375 " clip-rule="nonzero"/></clipPath><clipPath id="bc2e1e95c4"><path d="M 748.660156 389.5 L 767.878906 389.5 L 767.878906 409.226562 L 748.660156 409.226562 Z M 748.660156 389.5 " clip-rule="nonzero"/></clipPath><clipPath id="cd3cfc7fa5"><path d="M 767.835938 396.519531 C 767.917969 402.660156 767.179688 404.296875 766.199219 405.441406 C 765.296875 406.667969 763.90625 407.734375 762.515625 408.390625 C 761.121094 408.960938 759.402344 409.289062 757.929688 409.207031 C 756.375 409.125 754.738281 408.632812 753.429688 407.816406 C 752.117188 406.996094 750.890625 405.769531 750.070312 404.460938 C 749.335938 403.148438 748.761719 401.511719 748.679688 399.957031 C 748.597656 398.484375 748.925781 396.765625 749.5 395.371094 C 750.152344 393.980469 751.21875 392.589844 752.445312 391.6875 C 753.671875 390.707031 755.230469 390.050781 756.703125 389.722656 C 758.257812 389.480469 759.976562 389.5625 761.449219 390.050781 C 762.84375 390.460938 765.460938 392.425781 765.460938 392.425781 " clip-rule="nonzero"/></clipPath></defs><g clip-path="url(#4cfe8ebf42)"><g clip-path="url(#b810f55662)"><path fill="#1e1e1e" d="M 182.265625 107.820312 L 275.726562 107.820312 L 275.726562 138.066406 L 182.265625 138.066406 Z M 182.265625 107.820312 " fill-opacity="1" fill-rule="nonzero"/></g></g><g clip-path="url(#64845b9005)"><g clip-path="url(#c66e2aae81)"><path fill="#1e1e1e" d="M 212.847656 115.839844 L 244.183594 115.839844 L 244.183594 225.753906 L 212.847656 225.753906 Z M 212.847656 115.839844 " fill-opacity="1" fill-rule="nonzero"/></g></g><g clip-path="url(#ce465fbf77)"><g clip-path="url(#6811332d98)"><path fill="#1e1e1e" d="M 181.261719 195.136719 L 283.773438 195.136719 L 283.773438 227.140625 L 181.261719 227.140625 Z M 181.261719 195.136719 " fill-opacity="1" fill-rule="nonzero"/></g></g><g clip-path="url(#9958561996)"><g clip-path="url(#f504d1f335)"><path fill="#1e1e1e" d="M 267.164062 107.820312 L 367.734375 107.820312 L 367.734375 227.246094 L 267.164062 227.246094 Z M 267.164062 107.820312 " fill-opacity="1" fill-rule="nonzero"/></g></g><g clip-path="url(#3691543fdd)"><g clip-path="url(#d50d598627)"><path fill="#1e1e1e" d="M 547.996094 107.820312 L 646.386719 107.820312 L 646.386719 138.800781 L 547.996094 138.800781 Z M 547.996094 107.820312 " fill-opacity="1" fill-rule="nonzero"/></g></g><g clip-path="url(#094654b0ff)"><g clip-path="url(#4f58b81159)"><path fill="#1e1e1e" d="M 584.3125 120.554688 L 616.324219 120.554688 L 616.324219 227.09375 L 584.3125 227.09375 Z M 584.3125 120.554688 " fill-opacity="1" fill-rule="nonzero"/></g></g><g clip-path="url(#8b86eee83f)"><g clip-path="url(#a4b3cc8808)"><path fill="#1e1e1e" d="M 448.398438 107.820312 L 541.859375 107.820312 L 541.859375 138.066406 L 448.398438 138.066406 Z M 448.398438 107.820312 " fill-opacity="1" fill-rule="nonzero"/></g></g><g clip-path="url(#f62e8f5f49)"><g clip-path="url(#0c68f7e24e)"><path fill="#1e1e1e" d="M 478.980469 115.839844 L 510.316406 115.839844 L 510.316406 225.753906 L 478.980469 225.753906 Z M 478.980469 115.839844 " fill-opacity="1" fill-rule="nonzero"/></g></g><g clip-path="url(#aeef8640d5)"><g clip-path="url(#28bfe46076)"><path fill="#1e1e1e" d="M 447.394531 195.136719 L 549.90625 195.136719 L 549.90625 227.140625 L 447.394531 227.140625 Z M 447.394531 195.136719 " fill-opacity="1" fill-rule="nonzero"/></g></g><g clip-path="url(#4d384a57d6)"><g clip-path="url(#e3354531ae)"><path fill="#1e1e1e" d="M 33.796875 301.835938 L 123.257812 301.835938 L 123.257812 419.949219 L 33.796875 419.949219 Z M 33.796875 301.835938 " fill-opacity="1" fill-rule="nonzero"/></g></g><g clip-path="url(#16e4d68ce9)"><g clip-path="url(#dced87b086)"><path fill="#1e1e1e" d="M 123.257812 301.835938 L 238.792969 301.835938 L 238.792969 419.625 L 123.257812 419.625 Z M 123.257812 301.835938 " fill-opacity="1" fill-rule="nonzero"/></g></g><g clip-path="url(#ec1816f4e9)"><g clip-path="url(#30ceac28f4)"><path fill="#1e1e1e" d="M 149.066406 363.476562 L 211.152344 363.476562 L 211.152344 393.523438 L 149.066406 393.523438 Z M 149.066406 363.476562 " fill-opacity="1" fill-rule="nonzero"/></g></g><g clip-path="url(#b1585a1040)"><g clip-path="url(#808bc4d8a4)"><path fill="#1e1e1e" d="M 239.773438 301.835938 L 331.179688 301.835938 L 331.179688 331.417969 L 239.773438 331.417969 Z M 239.773438 301.835938 " fill-opacity="1" fill-rule="nonzero"/></g></g><g clip-path="url(#b87fd9e5b4)"><g clip-path="url(#02a2854f4c)"><path fill="#1e1e1e" d="M 269.683594 309.679688 L 300.328125 309.679688 L 300.328125 417.179688 L 269.683594 417.179688 Z M 269.683594 309.679688 " fill-opacity="1" fill-rule="nonzero"/></g></g><g clip-path="url(#f340e6a9bb)"><g clip-path="url(#36bdc21053)"><path fill="#1e1e1e" d="M 238.792969 387.234375 L 339.046875 387.234375 L 339.046875 418.535156 L 238.792969 418.535156 Z M 238.792969 387.234375 " fill-opacity="1" fill-rule="nonzero"/></g></g><g clip-path="url(#de5f03601e)"><g clip-path="url(#871e9cff11)"><path fill="#1e1e1e" d="M 328.609375 301.835938 L 422.351562 301.835938 L 422.351562 419.742188 L 328.609375 419.742188 Z M 328.609375 301.835938 " fill-opacity="1" fill-rule="nonzero"/></g></g><g clip-path="url(#2f7659eca8)"><g clip-path="url(#2f07466c78)"><path fill="#1e1e1e" d="M 428.972656 303.078125 L 520.382812 303.078125 L 520.382812 332.660156 L 428.972656 332.660156 Z M 428.972656 303.078125 " fill-opacity="1" fill-rule="nonzero"/></g></g><g clip-path="url(#26f7172c09)"><g clip-path="url(#091dfe2477)"><path fill="#1e1e1e" d="M 458.882812 310.921875 L 489.53125 310.921875 L 489.53125 418.425781 L 458.882812 418.425781 Z M 458.882812 310.921875 " fill-opacity="1" fill-rule="nonzero"/></g></g><g clip-path="url(#08b600fc45)"><g clip-path="url(#2095910460)"><path fill="#1e1e1e" d="M 427.992188 388.476562 L 528.25 388.476562 L 528.25 419.777344 L 427.992188 419.777344 Z M 427.992188 388.476562 " fill-opacity="1" fill-rule="nonzero"/></g></g><g clip-path="url(#c8ebf4643e)"><g clip-path="url(#b09bccf44c)"><path fill="#1e1e1e" d="M 528.265625 303.078125 L 622.007812 303.078125 L 622.007812 420.988281 L 528.265625 420.988281 Z M 528.265625 303.078125 " fill-opacity="1" fill-rule="nonzero"/></g></g><g clip-path="url(#3969964964)"><g clip-path="url(#0239606833)"><path fill="#1e1e1e" d="M 613.851562 301.835938 L 710.980469 301.835938 L 710.980469 418.691406 L 613.851562 418.691406 Z M 613.851562 301.835938 " fill-opacity="1" fill-rule="nonzero"/></g></g><g clip-path="url(#69f4520e4b)"><g clip-path="url(#bb9b61eabb)"><path fill="#1e1e1e" d="M 725.246094 299.144531 L 798.265625 299.144531 L 798.265625 388.136719 L 725.246094 388.136719 Z M 725.246094 299.144531 " fill-opacity="1" fill-rule="nonzero"/></g></g><g clip-path="url(#bc2e1e95c4)"><g clip-path="url(#cd3cfc7fa5)"><path fill="#1e1e1e" d="M 745.40625 386.449219 L 771.4375 386.449219 L 771.4375 412.480469 L 745.40625 412.480469 Z M 745.40625 386.449219 " fill-opacity="1" fill-rule="nonzero"/></g></g></svg>