<svg xmlns="http://www.w3.org/2000/svg" xmlns:xlink="http://www.w3.org/1999/xlink" width="1080" zoomAndPan="magnify" viewBox="0 0 810 525.000007" height="700" preserveAspectRatio="xMidYMid meet" version="1.0"><defs><clipPath id="98b01e8212"><path d="M 37.636719 113.53125 L 125 113.53125 L 125 137.164062 L 37.636719 137.164062 Z M 37.636719 113.53125 " clip-rule="nonzero"/></clipPath><clipPath id="e2c14e6e9c"><path d="M 47.667969 116.121094 C 115.433594 113.53125 115.769531 113.445312 117.105469 114.03125 C 118.859375 114.785156 121.703125 116.871094 122.953125 118.375 C 123.875 119.464844 124.292969 120.382812 124.542969 121.71875 C 124.960938 123.640625 125.042969 126.898438 124.207031 129.074219 C 123.371094 131.160156 121.535156 133.417969 119.527344 134.671875 C 117.605469 135.839844 114.347656 136.34375 112.425781 136.257812 C 111.003906 136.257812 110.085938 136.007812 108.832031 135.339844 C 107.078125 134.421875 104.570312 131.996094 103.484375 130.324219 C 102.734375 129.15625 102.398438 128.238281 102.230469 126.898438 C 102.066406 124.894531 102.316406 121.71875 103.402344 119.628906 C 104.40625 117.625 106.578125 115.535156 108.582031 114.53125 C 110.671875 113.53125 113.929688 113.445312 115.851562 113.699219 C 117.273438 113.863281 118.277344 114.449219 119.363281 115.035156 C 120.363281 115.621094 121.367188 116.289062 122.203125 117.375 C 123.371094 118.960938 124.792969 121.886719 124.960938 124.140625 C 125.128906 126.480469 124.039062 129.488281 123.039062 131.246094 C 122.371094 132.5 121.703125 133.167969 120.53125 133.917969 C 118.945312 135.003906 116.855469 135.757812 113.679688 136.34375 C 107.160156 137.511719 93.960938 136.925781 83.515625 137.011719 C 72.066406 137.011719 54.019531 137.261719 47.667969 136.425781 C 45.328125 136.089844 44.410156 136.175781 42.988281 135.253906 C 41.152344 134.167969 38.976562 131.996094 38.144531 129.824219 C 37.390625 127.734375 37.558594 124.644531 38.144531 122.636719 C 38.644531 121.050781 39.5625 119.714844 40.898438 118.628906 C 42.570312 117.375 47.667969 116.121094 47.667969 116.121094 " clip-rule="nonzero"/></clipPath><clipPath id="fdc3a2305b"><path d="M 68.320312 121.308594 L 93.289062 121.308594 L 93.289062 224.738281 L 68.320312 224.738281 Z M 68.320312 121.308594 " clip-rule="nonzero"/></clipPath><clipPath id="551f8d78bd"><path d="M 92.621094 131.664062 C 93.125 185.472656 94.042969 208.871094 91.203125 216.726562 C 90.03125 219.902344 88.695312 221.320312 86.691406 222.65625 C 84.769531 223.910156 81.59375 224.578125 79.671875 224.578125 C 78.25 224.664062 77.25 224.414062 75.996094 223.828125 C 74.238281 222.910156 71.566406 220.988281 70.394531 218.980469 C 69.144531 217.058594 68.558594 214.136719 68.808594 211.796875 C 69.058594 209.539062 70.648438 206.699219 71.898438 205.109375 C 72.734375 204.023438 73.570312 203.441406 74.824219 202.855469 C 76.664062 202.101562 79.839844 201.351562 82.09375 201.683594 C 84.433594 202.101562 87.023438 203.441406 88.613281 205.109375 C 90.199219 206.867188 91.453125 209.539062 91.703125 211.796875 C 91.953125 214.136719 91.035156 217.226562 90.117188 218.980469 C 89.53125 220.320312 88.863281 221.070312 87.691406 221.90625 C 86.105469 222.992188 82.847656 224.328125 80.839844 224.578125 C 79.503906 224.746094 78.5 224.664062 77.164062 224.164062 C 75.328125 223.492188 72.484375 221.90625 71.066406 220.066406 C 69.644531 218.230469 69.144531 216.058594 68.726562 213.050781 C 67.972656 207.953125 68.808594 198.84375 69.226562 191.824219 C 69.644531 184.804688 70.8125 179.039062 71.316406 170.769531 C 71.984375 159.320312 69.894531 136.675781 72.316406 129.238281 C 73.320312 126.148438 74.574219 124.476562 76.496094 123.222656 C 78.335938 121.96875 81.257812 121.21875 83.597656 121.46875 C 85.855469 121.71875 88.527344 123.140625 90.03125 124.894531 C 91.535156 126.566406 92.621094 131.664062 92.621094 131.664062 " clip-rule="nonzero"/></clipPath><clipPath id="985041080a"><path d="M 36.421875 200.546875 L 132.933594 200.546875 L 132.933594 226.300781 L 36.421875 226.300781 Z M 36.421875 200.546875 " clip-rule="nonzero"/></clipPath><clipPath id="7816ffd2c9"><path d="M 46.664062 204.691406 C 102.734375 203.023438 109.082031 201.265625 114.683594 200.933594 C 118.691406 200.683594 122.535156 200.515625 124.960938 201.101562 C 126.378906 201.433594 127.214844 201.851562 128.300781 202.769531 C 129.722656 204.109375 131.8125 206.613281 132.480469 208.789062 C 133.066406 211.042969 132.980469 213.96875 132.144531 216.140625 C 131.3125 218.3125 129.472656 220.570312 127.46875 221.824219 C 125.460938 222.992188 122.285156 223.492188 120.363281 223.492188 C 118.945312 223.410156 117.941406 223.160156 116.769531 222.492188 C 115.015625 221.570312 112.425781 219.148438 111.339844 217.5625 C 110.589844 216.390625 110.253906 215.386719 110.085938 214.050781 C 109.917969 212.046875 110.171875 208.871094 111.171875 206.78125 C 112.257812 204.691406 114.347656 202.6875 116.4375 201.683594 C 118.527344 200.683594 121.785156 200.515625 123.789062 200.765625 C 125.128906 200.933594 126.046875 201.265625 127.214844 202.101562 C 128.804688 203.273438 131.144531 205.863281 132.0625 207.617188 C 132.648438 208.871094 132.898438 209.875 132.898438 211.292969 C 132.898438 213.214844 131.980469 216.640625 130.976562 218.3125 C 130.308594 219.566406 129.640625 220.320312 128.46875 221.070312 C 126.882812 222.15625 124.710938 222.824219 121.535156 223.492188 C 115.519531 224.832031 104.488281 225.667969 94.042969 226 C 80.421875 226.5 54.269531 226.167969 46.664062 225.164062 C 44.242188 224.832031 43.40625 224.914062 41.902344 223.996094 C 40.148438 222.910156 37.890625 220.734375 37.140625 218.5625 C 36.304688 216.476562 36.304688 213.464844 37.140625 211.292969 C 37.890625 209.207031 40.148438 206.949219 41.902344 205.945312 C 43.40625 205.027344 46.664062 204.691406 46.664062 204.691406 " clip-rule="nonzero"/></clipPath><clipPath id="9484b4ceb4"><path d="M 369.824219 108 L 463.71875 108 L 463.71875 221.519531 L 369.824219 221.519531 Z M 369.824219 108 " clip-rule="nonzero"/></clipPath><clipPath id="6ab61a1cc6"><path d="M 439.25 128.867188 C 409.558594 129.878906 405.578125 133.464844 405.757812 135.726562 C 406.03125 138.066406 410.738281 140.875 414.71875 142.203125 C 420.242188 143.996094 430.921875 141.734375 436.808594 142.589844 C 440.972656 143.292969 443.957031 144.152344 447.128906 145.710938 C 450.386719 147.347656 453.644531 149.765625 456 152.339844 C 458.261719 154.835938 459.890625 157.878906 461.066406 160.839844 C 462.246094 163.882812 462.699219 166.535156 463.058594 170.199219 C 463.691406 175.425781 463.511719 184.082031 463.242188 189.382812 C 462.96875 193.207031 463.148438 196.011719 462.0625 199.132812 C 460.976562 202.40625 458.804688 205.917969 456.359375 208.570312 C 454.007812 211.066406 451.199219 213.015625 448.125 214.808594 C 444.683594 216.835938 440.339844 218.863281 436.355469 219.957031 C 432.734375 220.890625 428.933594 221.125 425.128906 221.359375 C 421.417969 221.59375 417.796875 221.515625 413.996094 221.359375 C 409.921875 221.203125 405.488281 221.4375 401.59375 220.421875 C 397.792969 219.410156 394.261719 217.226562 390.820312 215.433594 C 387.472656 213.558594 383.941406 211.609375 381.136719 209.347656 C 378.417969 207.085938 375.976562 204.28125 374.164062 201.863281 C 372.535156 199.835938 371.085938 197.652344 370.453125 195.855469 C 369.910156 194.53125 369.910156 193.363281 369.910156 192.191406 C 370 190.945312 370.363281 189.695312 370.816406 188.605469 C 371.359375 187.433594 372.082031 186.34375 372.988281 185.40625 C 373.894531 184.472656 375.070312 183.613281 376.246094 182.988281 C 377.515625 182.367188 378.871094 181.898438 380.230469 181.585938 C 381.589844 181.351562 383.128906 181.273438 384.484375 181.351562 C 385.933594 181.507812 387.382812 181.820312 388.648438 182.367188 C 389.917969 182.832031 391.183594 183.535156 392.269531 184.394531 C 393.265625 185.25 394.171875 186.265625 394.804688 187.355469 C 395.527344 188.371094 395.980469 189.617188 396.253906 190.789062 C 396.433594 192.035156 396.523438 193.285156 396.253906 194.53125 C 396.070312 195.703125 395.527344 196.949219 394.894531 198.039062 C 394.261719 199.132812 393.355469 200.148438 392.359375 201.003906 C 391.363281 201.785156 390.097656 202.5625 388.832031 203.03125 C 387.5625 203.578125 386.113281 203.96875 384.667969 204.046875 C 383.308594 204.203125 381.769531 204.125 380.410156 203.890625 C 379.054688 203.65625 377.605469 203.1875 376.429688 202.5625 C 375.160156 201.941406 374.074219 201.082031 373.167969 200.148438 C 372.171875 199.289062 371.449219 198.117188 370.90625 197.027344 C 370.363281 195.933594 370 194.609375 369.910156 193.441406 C 369.820312 192.191406 370 190.945312 370.363281 189.773438 C 370.726562 188.605469 371.359375 187.355469 372.171875 186.421875 C 372.988281 185.40625 373.984375 184.394531 375.070312 183.691406 C 376.246094 182.910156 377.515625 182.367188 378.871094 181.976562 C 380.230469 181.507812 381.679688 181.351562 383.128906 181.351562 C 384.484375 181.351562 386.023438 181.507812 387.292969 181.898438 C 388.648438 182.289062 389.824219 182.675781 391.09375 183.613281 C 392.996094 185.015625 394.625 188.058594 396.886719 190.164062 C 399.421875 192.425781 402.410156 195.078125 405.757812 196.480469 C 409.105469 197.886719 413.089844 198.351562 416.890625 198.585938 C 420.785156 198.898438 425.402344 199.289062 428.75 197.960938 C 432.101562 196.636719 435.449219 194.140625 436.988281 190.789062 C 439.25 186.03125 439.34375 175.503906 436.988281 170.980469 C 435.449219 167.78125 432.734375 165.753906 428.933594 164.351562 C 423.589844 162.324219 412.367188 164.039062 406.300781 163.023438 C 402.046875 162.246094 399.242188 161.152344 395.890625 159.828125 C 392.269531 158.5 388.195312 157.175781 385.390625 154.914062 C 382.402344 152.417969 379.597656 148.675781 378.511719 145.398438 C 377.515625 142.28125 377.785156 138.847656 378.691406 135.652344 C 379.597656 132.21875 381.949219 128.476562 384.214844 125.511719 C 386.296875 122.78125 388.832031 120.753906 391.457031 118.414062 C 394.171875 115.996094 396.796875 113.113281 400.234375 111.394531 C 403.765625 109.679688 407.476562 108.824219 412.457031 108.355469 C 420.0625 107.652344 436.355469 108.824219 441.875 110.148438 C 444.140625 110.773438 445.226562 111.316406 446.492188 112.253906 C 447.761719 113.269531 448.9375 114.515625 449.480469 115.996094 C 450.207031 117.867188 450.207031 120.910156 449.480469 122.78125 C 448.9375 124.265625 447.941406 125.511719 446.492188 126.527344 C 444.773438 127.695312 439.25 128.867188 439.25 128.867188 " clip-rule="nonzero"/></clipPath><clipPath id="d388eec0e2"><path d="M 132.960938 113.128906 L 224.691406 113.128906 L 224.691406 138 L 132.960938 138 Z M 132.960938 113.128906 " clip-rule="nonzero"/></clipPath><clipPath id="c90e9a5807"><path d="M 143.425781 117.335938 C 179.136719 115.691406 192.992188 113.554688 201.941406 113.390625 C 207.964844 113.226562 213.644531 112.816406 217.34375 114.214844 C 219.925781 115.199219 221.820312 116.925781 223.023438 118.898438 C 224.230469 120.871094 224.832031 123.664062 224.574219 125.964844 C 224.316406 128.183594 223.023438 130.8125 221.304688 132.457031 C 219.667969 134.101562 217 135.414062 214.679688 135.742188 C 212.269531 136.074219 209.085938 135.332031 207.277344 134.511719 C 205.902344 133.9375 205.125 133.359375 204.265625 132.292969 C 202.976562 130.8125 201.511719 127.609375 201.167969 125.71875 C 200.910156 124.402344 200.910156 123.417969 201.339844 122.101562 C 202.027344 120.292969 203.492188 117.417969 205.296875 116.019531 C 207.105469 114.542969 210.289062 113.636719 212.355469 113.390625 C 213.730469 113.226562 214.765625 113.308594 216.140625 113.800781 C 218.035156 114.542969 220.960938 116.433594 222.335938 117.910156 C 223.28125 118.980469 223.714844 119.800781 224.058594 121.117188 C 224.488281 123.007812 224.746094 126.210938 223.972656 128.347656 C 223.195312 130.484375 220.960938 132.785156 219.410156 134.019531 C 218.207031 134.839844 217.34375 135.25 215.882812 135.496094 C 213.902344 135.824219 211.40625 135.003906 208.394531 135.085938 C 203.75 135.167969 197.554688 136.320312 190.839844 136.730469 C 181.71875 137.304688 167.691406 137.796875 158.484375 137.796875 C 151.773438 137.796875 145.148438 138.457031 140.929688 137.140625 C 138.175781 136.320312 136.113281 134.757812 134.820312 133.113281 C 133.703125 131.800781 133.101562 130.320312 133.015625 128.59375 C 132.84375 126.539062 133.703125 123.417969 134.820312 121.691406 C 135.679688 120.292969 137.144531 119.226562 138.519531 118.488281 C 139.984375 117.828125 143.425781 117.335938 143.425781 117.335938 " clip-rule="nonzero"/></clipPath><clipPath id="602c666017"><path d="M 169.136719 126 L 194.519531 126 L 194.519531 226.253906 L 169.136719 226.253906 Z M 169.136719 126 " clip-rule="nonzero"/></clipPath><clipPath id="96a1eed4b5"><path d="M 191.097656 136.074219 C 192.390625 186.28125 194.714844 208.222656 194.457031 214.632812 C 194.285156 216.441406 194.371094 216.933594 193.851562 218.25 C 193.078125 220.058594 191.273438 222.769531 189.378906 224.085938 C 187.398438 225.398438 184.472656 226.222656 182.0625 226.140625 C 179.65625 226.058594 176.644531 224.660156 174.921875 223.507812 C 173.804688 222.769531 173.113281 222.03125 172.425781 220.796875 C 171.480469 218.988281 170.445312 215.949219 170.703125 213.730469 C 170.878906 211.429688 172.167969 208.800781 173.804688 207.074219 C 175.4375 205.429688 178.449219 204.117188 180.429688 203.621094 C 181.804688 203.210938 182.839844 203.210938 184.300781 203.539062 C 186.28125 203.953125 189.464844 205.59375 191.011719 206.828125 C 192.132812 207.730469 192.734375 208.800781 193.25 209.867188 C 193.765625 210.9375 194.285156 212.003906 194.371094 213.402344 C 194.371094 215.292969 194.023438 218.496094 192.820312 220.46875 C 191.617188 222.441406 189.292969 224.414062 187.054688 225.234375 C 184.902344 226.140625 181.804688 226.304688 179.480469 225.726562 C 177.160156 225.152344 174.578125 223.179688 173.199219 221.785156 C 172.167969 220.714844 171.824219 220.304688 171.308594 218.578125 C 169.5 212.25 169.5 187.1875 169.328125 172.804688 C 169.15625 159.902344 169.15625 142.480469 170.101562 136.074219 C 170.359375 133.773438 170.53125 132.785156 171.308594 131.46875 C 171.996094 130.074219 173.113281 128.675781 174.578125 127.855469 C 176.46875 126.785156 179.570312 125.882812 181.890625 126.128906 C 184.214844 126.375 186.96875 127.773438 188.433594 129.417969 C 189.980469 131.140625 191.097656 136.074219 191.097656 136.074219 " clip-rule="nonzero"/></clipPath><clipPath id="f81f8ee04a"><path d="M 281.183594 110.949219 L 368.621094 110.949219 L 368.621094 134.578125 L 281.183594 134.578125 Z M 281.183594 110.949219 " clip-rule="nonzero"/></clipPath><clipPath id="ca0da2aeb6"><path d="M 291.21875 113.539062 C 358.984375 110.945312 359.316406 110.863281 360.65625 111.449219 C 362.410156 112.199219 365.25 114.289062 366.503906 115.792969 C 367.421875 116.878906 367.839844 117.800781 368.089844 119.136719 C 368.507812 121.058594 368.59375 124.316406 367.757812 126.488281 C 366.921875 128.578125 365.082031 130.832031 363.078125 132.085938 C 361.15625 133.257812 357.898438 133.757812 355.976562 133.675781 C 354.554688 133.675781 353.636719 133.425781 352.382812 132.753906 C 350.628906 131.835938 348.121094 129.414062 347.035156 127.742188 C 346.28125 126.574219 345.949219 125.652344 345.78125 124.316406 C 345.613281 122.3125 345.863281 119.136719 346.949219 117.046875 C 347.953125 115.042969 350.125 112.953125 352.132812 111.949219 C 354.21875 110.945312 357.480469 110.863281 359.402344 111.113281 C 360.820312 111.28125 361.824219 111.867188 362.910156 112.449219 C 363.914062 113.035156 364.914062 113.703125 365.75 114.789062 C 366.921875 116.378906 368.34375 119.304688 368.507812 121.558594 C 368.675781 123.898438 367.589844 126.90625 366.585938 128.660156 C 365.917969 129.914062 365.25 130.582031 364.082031 131.335938 C 362.492188 132.421875 360.402344 133.171875 357.230469 133.757812 C 350.710938 134.929688 337.507812 134.34375 327.0625 134.425781 C 315.617188 134.425781 297.566406 134.675781 291.21875 133.84375 C 288.878906 133.507812 287.957031 133.589844 286.539062 132.671875 C 284.699219 131.585938 282.527344 129.414062 281.691406 127.242188 C 280.941406 125.152344 281.105469 122.058594 281.691406 120.054688 C 282.191406 118.46875 283.113281 117.128906 284.449219 116.042969 C 286.121094 114.789062 291.21875 113.539062 291.21875 113.539062 " clip-rule="nonzero"/></clipPath><clipPath id="2df9b2d2e6"><path d="M 311.871094 118.726562 L 336.839844 118.726562 L 336.839844 222.152344 L 311.871094 222.152344 Z M 311.871094 118.726562 " clip-rule="nonzero"/></clipPath><clipPath id="b3214c49d3"><path d="M 336.171875 129.078125 C 336.671875 182.890625 337.59375 206.289062 334.75 214.140625 C 333.582031 217.316406 332.246094 218.738281 330.238281 220.074219 C 328.316406 221.328125 325.140625 221.996094 323.21875 221.996094 C 321.800781 222.078125 320.796875 221.828125 319.542969 221.246094 C 317.789062 220.324219 315.113281 218.402344 313.945312 216.398438 C 312.691406 214.476562 312.105469 211.550781 312.359375 209.210938 C 312.609375 206.957031 314.195312 204.113281 315.449219 202.527344 C 316.285156 201.441406 317.121094 200.855469 318.375 200.269531 C 320.210938 199.519531 323.386719 198.765625 325.644531 199.101562 C 327.984375 199.519531 330.574219 200.855469 332.160156 202.527344 C 333.75 204.28125 335 206.957031 335.253906 209.210938 C 335.503906 211.550781 334.585938 214.644531 333.664062 216.398438 C 333.082031 217.734375 332.410156 218.488281 331.242188 219.324219 C 329.652344 220.410156 326.394531 221.746094 324.390625 221.996094 C 323.054688 222.164062 322.050781 222.078125 320.714844 221.578125 C 318.875 220.910156 316.035156 219.324219 314.613281 217.484375 C 313.191406 215.644531 312.691406 213.472656 312.273438 210.464844 C 311.523438 205.367188 312.359375 196.261719 312.773438 189.242188 C 313.191406 182.222656 314.363281 176.457031 314.863281 168.183594 C 315.53125 156.738281 313.445312 134.09375 315.867188 126.65625 C 316.871094 123.5625 318.125 121.894531 320.046875 120.640625 C 321.882812 119.386719 324.808594 118.632812 327.148438 118.886719 C 329.402344 119.136719 332.078125 120.554688 333.582031 122.3125 C 335.085938 123.980469 336.171875 129.078125 336.171875 129.078125 " clip-rule="nonzero"/></clipPath><clipPath id="6a08bc3246"><path d="M 280 198 L 376.480469 198 L 376.480469 223.71875 L 280 223.71875 Z M 280 198 " clip-rule="nonzero"/></clipPath><clipPath id="123c7f7fc9"><path d="M 290.214844 202.109375 C 346.28125 200.4375 352.632812 198.683594 358.230469 198.347656 C 362.242188 198.097656 366.085938 197.929688 368.507812 198.515625 C 369.929688 198.851562 370.765625 199.269531 371.851562 200.1875 C 373.273438 201.523438 375.359375 204.03125 376.027344 206.203125 C 376.613281 208.460938 376.53125 211.382812 375.695312 213.558594 C 374.859375 215.730469 373.019531 217.984375 371.015625 219.238281 C 369.011719 220.410156 365.835938 220.910156 363.914062 220.910156 C 362.492188 220.828125 361.488281 220.574219 360.320312 219.90625 C 358.566406 218.988281 355.976562 216.566406 354.890625 214.976562 C 354.136719 213.808594 353.800781 212.804688 353.636719 211.46875 C 353.46875 209.460938 353.71875 206.289062 354.722656 204.199219 C 355.808594 202.109375 357.898438 200.105469 359.984375 199.101562 C 362.074219 198.097656 365.332031 197.929688 367.339844 198.183594 C 368.675781 198.347656 369.59375 198.683594 370.765625 199.519531 C 372.351562 200.6875 374.691406 203.277344 375.613281 205.035156 C 376.195312 206.289062 376.445312 207.289062 376.445312 208.710938 C 376.445312 210.632812 375.527344 214.058594 374.523438 215.730469 C 373.855469 216.984375 373.1875 217.734375 372.019531 218.488281 C 370.429688 219.574219 368.257812 220.242188 365.082031 220.910156 C 359.066406 222.246094 348.035156 223.082031 337.59375 223.417969 C 323.972656 223.917969 297.816406 223.585938 290.214844 222.582031 C 287.792969 222.246094 286.957031 222.332031 285.453125 221.410156 C 283.695312 220.324219 281.441406 218.152344 280.6875 215.980469 C 279.851562 213.890625 279.851562 210.882812 280.6875 208.710938 C 281.441406 206.621094 283.695312 204.367188 285.453125 203.363281 C 286.957031 202.445312 290.214844 202.109375 290.214844 202.109375 " clip-rule="nonzero"/></clipPath><clipPath id="06838938df"><path d="M 37 304.628906 L 120.113281 304.628906 L 120.113281 416.804688 L 37 416.804688 Z M 37 304.628906 " clip-rule="nonzero"/></clipPath><clipPath id="633386c836"><path d="M 39.363281 402.667969 C 37.972656 340.214844 36.824219 334.058594 37.070312 328.703125 C 37.234375 324.863281 37.398438 321.824219 38.625 318.945312 C 39.9375 316.066406 42.144531 313.269531 44.683594 311.191406 C 47.140625 309.03125 50.496094 307.433594 53.6875 306.390625 C 56.878906 305.433594 60.398438 305.191406 63.835938 305.03125 C 67.4375 304.871094 70.628906 304.792969 74.722656 305.511719 C 80.371094 306.472656 89.371094 309.429688 94.609375 311.589844 C 98.457031 313.1875 101.078125 314.546875 103.941406 316.546875 C 106.804688 318.464844 109.589844 320.785156 111.882812 323.34375 C 114.089844 325.984375 116.136719 329.101562 117.445312 332.21875 C 118.757812 335.339844 119.574219 338.777344 119.738281 342.054688 C 119.984375 345.253906 119.820312 348.453125 118.839844 351.652344 C 117.691406 355.007812 115.808594 359.246094 113.191406 361.644531 C 110.734375 363.964844 107.625 364.84375 103.695312 365.964844 C 98.210938 367.644531 89.863281 368.363281 82.90625 369.082031 C 76.03125 369.882812 68.011719 371.082031 62.199219 370.441406 C 57.859375 369.882812 53.359375 369.402344 50.902344 367.082031 C 48.613281 364.765625 47.058594 360.125 47.546875 356.847656 C 48.121094 353.25 51.886719 348.371094 55.160156 346.53125 C 58.1875 344.855469 62.363281 345.652344 65.964844 345.652344 C 69.484375 345.574219 73.167969 345.894531 76.769531 346.292969 C 80.371094 346.691406 84.132812 347.253906 87.488281 348.210938 C 90.683594 349.171875 93.957031 350.132812 96.574219 351.96875 C 99.195312 353.890625 101.078125 356.769531 102.960938 359.40625 C 104.925781 362.046875 106.644531 364.765625 108.199219 367.644531 C 109.671875 370.601562 110.980469 373 112.125 376.679688 C 113.683594 382.117188 115.890625 397.230469 115.726562 397.308594 C 115.644531 397.308594 114.992188 395.46875 115.15625 395.390625 C 115.402344 395.308594 117.121094 397.148438 117.855469 398.109375 C 118.59375 399.148438 119.164062 400.347656 119.492188 401.546875 C 119.902344 402.746094 120.066406 404.105469 119.984375 405.304688 C 119.902344 406.585938 119.65625 407.863281 119.164062 409.0625 C 118.675781 410.183594 118.019531 411.382812 117.203125 412.339844 C 116.382812 413.300781 115.402344 414.101562 114.253906 414.820312 C 113.191406 415.460938 111.964844 415.941406 110.652344 416.257812 C 109.425781 416.5 108.117188 416.578125 106.804688 416.5 C 105.578125 416.339844 104.1875 416.019531 103.042969 415.460938 C 101.894531 414.980469 100.75 414.261719 99.847656 413.382812 C 98.867188 412.582031 98.046875 411.542969 97.476562 410.421875 C 96.820312 409.304688 96.410156 408.023438 96.167969 406.824219 C 95.921875 405.625 95.921875 404.265625 96.167969 403.066406 C 96.328125 401.785156 96.738281 400.507812 97.3125 399.46875 C 97.886719 398.347656 98.703125 397.230469 99.6875 396.347656 C 100.585938 395.550781 101.648438 394.75 102.878906 394.191406 C 104.023438 393.710938 105.332031 393.3125 106.5625 393.152344 C 107.871094 392.992188 109.179688 393.070312 110.40625 393.3125 C 111.71875 393.628906 112.945312 394.109375 114.089844 394.671875 C 115.15625 395.308594 116.21875 396.1875 117.039062 397.148438 C 117.855469 398.109375 118.59375 399.226562 119.082031 400.347656 C 119.574219 401.546875 119.902344 402.824219 119.984375 404.027344 C 120.066406 405.304688 119.902344 406.664062 119.574219 407.863281 C 119.246094 409.0625 118.675781 410.261719 118.019531 411.300781 C 117.28125 412.339844 116.382812 413.300781 115.320312 414.101562 C 114.335938 414.820312 113.109375 415.460938 111.964844 415.859375 C 110.734375 416.257812 109.34375 416.5 108.117188 416.5 C 106.804688 416.578125 105.496094 416.339844 104.269531 415.941406 C 103.042969 415.539062 102.058594 415.058594 100.832031 414.179688 C 99.195312 413.140625 96.984375 411.703125 95.511719 409.621094 C 93.710938 407.0625 92.730469 403.464844 91.582031 399.546875 C 90.109375 394.269531 89.617188 385.632812 87.980469 380.515625 C 86.753906 376.917969 86.425781 373.558594 83.5625 371.5625 C 79.632812 368.601562 64.816406 371.242188 63.507812 368.441406 C 62.527344 366.285156 68.992188 362.523438 69.484375 359.085938 C 69.976562 355.488281 64.164062 349.570312 65.882812 347.09375 C 68.011719 343.894531 80.859375 345.972656 86.34375 344.773438 C 90.191406 343.972656 95.511719 343.496094 96.003906 341.734375 C 96.410156 339.976562 92.320312 336.457031 89.046875 334.378906 C 84.542969 331.421875 75.292969 328.460938 69.8125 327.660156 C 65.882812 327.101562 61.054688 326.300781 59.496094 328.0625 C 57.777344 329.820312 60.152344 334.300781 60.234375 338.695312 C 60.480469 346.054688 60.234375 357.726562 60.070312 367.882812 C 59.988281 378.996094 60.152344 396.507812 59.335938 402.667969 C 59.089844 404.90625 59.089844 405.785156 58.1875 407.222656 C 57.125 408.902344 54.75 410.980469 52.867188 411.863281 C 51.394531 412.5 49.757812 412.660156 48.121094 412.421875 C 46.15625 412.023438 43.292969 410.742188 41.820312 409.144531 C 40.34375 407.542969 39.363281 402.667969 39.363281 402.667969 " clip-rule="nonzero"/></clipPath><clipPath id="5f27ce73f1"><path d="M 126.417969 304.089844 L 235.632812 304.089844 L 235.632812 416.464844 L 126.417969 416.464844 Z M 126.417969 304.089844 " clip-rule="nonzero"/></clipPath><clipPath id="42847d19c9"><path d="M 128.25 397.1875 C 140.390625 372.238281 146.070312 358.539062 149.859375 348.921875 C 152.875 341.210938 154.335938 334.675781 157.4375 328.054688 C 160.621094 321.429688 163.203125 312.902344 168.628906 309.09375 C 174.308594 305.191406 185.933594 303.195312 191.269531 305.464844 C 195.402344 307.1875 196.691406 312.085938 199.621094 317.167969 C 204.183594 324.96875 210.554688 339.03125 214.082031 348.738281 C 217.011719 356.542969 217.441406 362.984375 220.367188 370.421875 C 223.726562 379.042969 231.902344 391.925781 233.96875 397.003906 C 234.660156 398.820312 235.003906 399.636719 235.175781 400.996094 C 235.347656 402.359375 235.347656 403.902344 235.175781 405.261719 C 234.917969 406.621094 234.488281 408.074219 233.796875 409.253906 C 233.195312 410.523438 232.335938 411.703125 231.386719 412.609375 C 230.355469 413.609375 229.234375 414.425781 227.945312 414.96875 C 226.738281 415.605469 225.445312 415.96875 224.070312 416.148438 C 222.777344 416.238281 221.316406 416.148438 220.023438 415.875 C 218.730469 415.515625 217.441406 414.96875 216.320312 414.242188 C 215.203125 413.519531 214.082031 412.519531 213.308594 411.429688 C 212.449219 410.34375 211.671875 409.074219 211.242188 407.800781 C 210.726562 406.441406 210.46875 404.988281 210.382812 403.628906 C 210.296875 402.175781 210.46875 400.726562 210.898438 399.363281 C 211.242188 398.003906 211.84375 396.734375 212.621094 395.554688 C 213.308594 394.375 214.339844 393.285156 215.375 392.46875 C 216.492188 391.652344 217.699219 390.925781 218.992188 390.5625 C 220.28125 390.109375 221.660156 389.839844 222.949219 389.839844 C 224.328125 389.929688 225.707031 390.109375 226.910156 390.5625 C 228.203125 391.019531 229.40625 391.742188 230.527344 392.652344 C 231.558594 393.46875 232.507812 394.554688 233.28125 395.734375 C 233.96875 396.914062 234.574219 398.277344 234.917969 399.636719 C 235.261719 400.996094 235.347656 402.449219 235.347656 403.902344 C 235.261719 405.261719 234.917969 406.714844 234.402344 407.984375 C 233.882812 409.34375 233.195312 410.613281 232.25 411.613281 C 231.386719 412.703125 230.355469 413.609375 229.148438 414.335938 C 228.03125 415.058594 226.738281 415.605469 225.445312 415.875 C 224.15625 416.148438 222.691406 416.238281 221.402344 416.058594 C 220.023438 415.875 218.730469 415.515625 217.527344 414.878906 C 216.320312 414.335938 215.460938 413.878906 214.167969 412.519531 C 211.070312 408.980469 204.527344 396.644531 201.515625 390.5625 C 199.535156 386.390625 198.671875 384.03125 197.210938 379.769531 C 195.144531 373.6875 194.109375 365.707031 190.925781 357.269531 C 186.535156 345.292969 168.714844 318.800781 171.640625 315.351562 C 173.535156 313.175781 188.085938 318.253906 189.375 322.246094 C 190.667969 326.511719 180.851562 334.222656 177.582031 340.847656 C 174.222656 347.558594 172.585938 354.363281 169.402344 362.167969 C 165.269531 371.785156 159.328125 385.121094 154.679688 393.921875 C 151.238281 400.636719 148.136719 407.800781 144.609375 410.976562 C 142.457031 412.972656 139.875 413.878906 137.808594 414.152344 C 136 414.335938 134.277344 413.878906 132.8125 413.15625 C 131.351562 412.429688 129.800781 411.339844 128.855469 409.796875 C 127.648438 407.894531 126.703125 404.535156 126.703125 402.269531 C 126.703125 400.363281 128.25 397.1875 128.25 397.1875 " clip-rule="nonzero"/></clipPath><clipPath id="340cb11eab"><path d="M 152.351562 366.878906 L 207.746094 366.878906 L 207.746094 390.46875 L 152.351562 390.46875 Z M 152.351562 366.878906 " clip-rule="nonzero"/></clipPath><clipPath id="44ac239a80"><path d="M 162.925781 368.984375 C 199.601562 367.351562 201.40625 367.867188 203.214844 369.242188 C 205.023438 370.621094 206.660156 373.03125 207.261719 375.183594 C 207.863281 377.335938 207.691406 380.261719 206.832031 382.328125 C 206.058594 384.394531 204.164062 386.632812 202.183594 387.753906 C 200.289062 388.957031 197.1875 389.390625 195.210938 389.304688 C 193.832031 389.304688 192.886719 389.042969 191.765625 388.355469 C 190.042969 387.410156 187.546875 385.085938 186.515625 383.449219 C 185.824219 382.242188 185.480469 381.382812 185.394531 380.003906 C 185.222656 378.023438 185.480469 374.925781 186.515625 372.945312 C 187.632812 370.878906 190.042969 368.984375 191.765625 368.039062 C 192.972656 367.351562 194.003906 367.179688 195.210938 367.003906 C 196.414062 366.917969 197.535156 366.832031 198.824219 367.265625 C 200.71875 367.78125 203.558594 369.15625 205.023438 370.878906 C 206.488281 372.601562 207.347656 375.699219 207.605469 377.59375 C 207.863281 378.886719 207.691406 379.917969 207.261719 381.210938 C 206.574219 383.019531 205.023438 385.773438 203.214844 387.066406 C 201.40625 388.441406 199.253906 388.871094 196.414062 389.390625 C 192.023438 390.164062 184.878906 389.992188 179.023438 390.078125 C 172.910156 390.078125 164.820312 391.023438 160.429688 389.648438 C 157.675781 388.785156 155.609375 387.066406 154.316406 385.429688 C 153.195312 384.050781 152.679688 382.328125 152.507812 380.695312 C 152.335938 379.144531 152.507812 377.25 153.109375 375.785156 C 153.714844 374.238281 154.574219 372.6875 155.953125 371.65625 C 157.675781 370.277344 162.925781 368.984375 162.925781 368.984375 " clip-rule="nonzero"/></clipPath><clipPath id="c26e21a3f4"><path d="M 242.546875 305.1875 L 328 305.1875 L 328 328.296875 L 242.546875 328.296875 Z M 242.546875 305.1875 " clip-rule="nonzero"/></clipPath><clipPath id="2128ec0fb7"><path d="M 252.355469 307.71875 C 318.632812 305.183594 318.960938 305.101562 320.269531 305.675781 C 321.984375 306.410156 324.761719 308.453125 325.988281 309.925781 C 326.886719 310.988281 327.296875 311.886719 327.542969 313.195312 C 327.949219 315.074219 328.03125 318.261719 327.214844 320.386719 C 326.398438 322.429688 324.601562 324.636719 322.640625 325.859375 C 320.757812 327.003906 317.570312 327.496094 315.691406 327.414062 C 314.304688 327.414062 313.402344 327.167969 312.179688 326.515625 C 310.460938 325.617188 308.011719 323.246094 306.949219 321.609375 C 306.210938 320.46875 305.886719 319.566406 305.722656 318.261719 C 305.558594 316.300781 305.804688 313.195312 306.867188 311.152344 C 307.847656 309.1875 309.972656 307.144531 311.933594 306.164062 C 313.976562 305.183594 317.164062 305.101562 319.042969 305.347656 C 320.433594 305.511719 321.414062 306.082031 322.476562 306.65625 C 323.457031 307.226562 324.4375 307.882812 325.253906 308.945312 C 326.398438 310.496094 327.789062 313.355469 327.949219 315.5625 C 328.113281 317.851562 327.050781 320.792969 326.070312 322.511719 C 325.417969 323.734375 324.761719 324.390625 323.621094 325.125 C 322.066406 326.1875 320.023438 326.921875 316.917969 327.496094 C 310.542969 328.640625 297.632812 328.066406 287.417969 328.148438 C 276.21875 328.148438 258.566406 328.394531 252.355469 327.578125 C 250.070312 327.25 249.171875 327.332031 247.78125 326.433594 C 245.984375 325.371094 243.859375 323.246094 243.039062 321.121094 C 242.304688 319.078125 242.46875 316.054688 243.039062 314.09375 C 243.53125 312.539062 244.429688 311.234375 245.738281 310.171875 C 247.371094 308.945312 252.355469 307.71875 252.355469 307.71875 " clip-rule="nonzero"/></clipPath><clipPath id="9e3d4d31b2"><path d="M 272.554688 312.792969 L 296.976562 312.792969 L 296.976562 413.949219 L 272.554688 413.949219 Z M 272.554688 312.792969 " clip-rule="nonzero"/></clipPath><clipPath id="a6e16d2198"><path d="M 296.324219 322.917969 C 296.8125 375.546875 297.714844 398.429688 294.933594 406.113281 C 293.789062 409.21875 292.484375 410.609375 290.523438 411.914062 C 288.640625 413.140625 285.535156 413.792969 283.65625 413.792969 C 282.269531 413.875 281.289062 413.632812 280.0625 413.058594 C 278.34375 412.160156 275.730469 410.28125 274.585938 408.320312 C 273.359375 406.441406 272.789062 403.578125 273.03125 401.292969 C 273.277344 399.085938 274.832031 396.304688 276.058594 394.753906 C 276.875 393.691406 277.691406 393.117188 278.917969 392.546875 C 280.714844 391.8125 283.820312 391.074219 286.027344 391.402344 C 288.316406 391.8125 290.847656 393.117188 292.402344 394.753906 C 293.953125 396.46875 295.179688 399.085938 295.425781 401.292969 C 295.671875 403.578125 294.769531 406.601562 293.871094 408.320312 C 293.300781 409.625 292.648438 410.363281 291.503906 411.179688 C 289.949219 412.242188 286.761719 413.550781 284.800781 413.792969 C 283.492188 413.957031 282.511719 413.875 281.207031 413.386719 C 279.40625 412.730469 276.628906 411.179688 275.238281 409.382812 C 273.851562 407.582031 273.359375 405.457031 272.953125 402.515625 C 272.214844 397.53125 273.03125 388.625 273.441406 381.757812 C 273.851562 374.894531 274.996094 369.253906 275.484375 361.164062 C 276.136719 349.96875 274.09375 327.820312 276.464844 320.550781 C 277.445312 317.523438 278.671875 315.890625 280.550781 314.664062 C 282.347656 313.4375 285.210938 312.703125 287.5 312.949219 C 289.703125 313.195312 292.320312 314.582031 293.789062 316.300781 C 295.261719 317.933594 296.324219 322.917969 296.324219 322.917969 " clip-rule="nonzero"/></clipPath><clipPath id="9e1ef91276"><path d="M 241.359375 390.292969 L 335.746094 390.292969 L 335.746094 415.476562 L 241.359375 415.476562 Z M 241.359375 390.292969 " clip-rule="nonzero"/></clipPath><clipPath id="0424568671"><path d="M 251.375 394.34375 C 306.210938 392.710938 312.421875 390.992188 317.898438 390.667969 C 321.820312 390.421875 325.582031 390.257812 327.949219 390.832031 C 329.339844 391.15625 330.15625 391.566406 331.21875 392.464844 C 332.609375 393.773438 334.652344 396.222656 335.304688 398.347656 C 335.878906 400.554688 335.796875 403.414062 334.980469 405.539062 C 334.160156 407.664062 332.363281 409.871094 330.402344 411.097656 C 328.441406 412.242188 325.335938 412.730469 323.457031 412.730469 C 322.066406 412.652344 321.085938 412.40625 319.941406 411.75 C 318.226562 410.851562 315.691406 408.484375 314.628906 406.929688 C 313.894531 405.785156 313.566406 404.804688 313.402344 403.496094 C 313.242188 401.535156 313.484375 398.429688 314.464844 396.386719 C 315.527344 394.34375 317.570312 392.382812 319.613281 391.402344 C 321.65625 390.421875 324.84375 390.257812 326.808594 390.503906 C 328.113281 390.667969 329.011719 390.992188 330.15625 391.8125 C 331.710938 392.957031 334 395.488281 334.898438 397.203125 C 335.46875 398.429688 335.714844 399.410156 335.714844 400.800781 C 335.714844 402.679688 334.816406 406.03125 333.835938 407.664062 C 333.179688 408.890625 332.527344 409.625 331.382812 410.363281 C 329.832031 411.425781 327.707031 412.078125 324.601562 412.730469 C 318.714844 414.039062 307.929688 414.855469 297.714844 415.183594 C 284.394531 415.675781 258.8125 415.347656 251.375 414.367188 C 249.007812 414.039062 248.1875 414.121094 246.71875 413.222656 C 245.003906 412.160156 242.796875 410.035156 242.058594 407.910156 C 241.242188 405.867188 241.242188 402.925781 242.058594 400.800781 C 242.796875 398.757812 245.003906 396.550781 246.71875 395.570312 C 248.1875 394.671875 251.375 394.34375 251.375 394.34375 " clip-rule="nonzero"/></clipPath><clipPath id="66c424bb25"><path d="M 331.539062 304.765625 L 419.789062 304.765625 L 419.789062 417 L 331.539062 417 Z M 331.539062 304.765625 " clip-rule="nonzero"/></clipPath><clipPath id="2e3d1db490"><path d="M 343.613281 405.660156 C 337.230469 367.507812 336.730469 343.238281 335.074219 331.738281 C 334.078125 325.550781 331.925781 321.1875 331.925781 317.617188 C 331.925781 315.398438 332.503906 313.730469 333.085938 312.382812 C 333.5 311.433594 333.832031 310.875 334.578125 310.164062 C 335.570312 309.050781 337.644531 307.625 338.96875 306.988281 C 339.964844 306.515625 340.628906 306.355469 341.707031 306.195312 C 343.195312 306.117188 345.519531 306.117188 347.175781 306.671875 C 348.917969 307.226562 350.824219 308.496094 351.898438 309.527344 C 352.644531 310.242188 353.058594 310.71875 353.558594 311.667969 C 354.222656 312.9375 353.972656 315.160156 355.050781 316.746094 C 356.625 318.964844 360.269531 320.234375 363.339844 322.933594 C 367.980469 327.058594 374.277344 333.324219 379.417969 339.828125 C 385.46875 347.363281 391.269531 357.039062 396.738281 366.082031 C 402.292969 375.203125 414.0625 389.003906 412.324219 394.398438 C 411.328125 397.570312 405.027344 397.410156 402.128906 399.632812 C 399.308594 401.773438 397.070312 407.800781 395.082031 407.246094 C 390.691406 405.976562 388.867188 373.773438 387.207031 357.992188 C 385.714844 343.554688 384.804688 321.820312 385.136719 316.109375 C 385.21875 314.683594 385.21875 314.367188 385.550781 313.414062 C 386.046875 311.988281 387.125 309.84375 388.453125 308.578125 C 389.695312 307.308594 391.851562 306.195312 393.34375 305.5625 C 394.335938 305.164062 395.082031 305.085938 396.160156 305.007812 C 397.734375 305.007812 400.386719 305.402344 401.878906 305.878906 C 402.957031 306.277344 403.703125 306.753906 404.449219 307.308594 C 405.195312 307.863281 405.941406 308.339844 406.519531 309.210938 C 407.515625 310.480469 409.089844 312.144531 409.089844 314.207031 C 409.089844 317.460938 405.113281 324.914062 402.875 326.820312 C 401.714844 327.851562 400.386719 327.851562 399.144531 328.007812 C 397.902344 328.246094 396.492188 328.246094 395.25 328.007812 C 393.921875 327.851562 392.679688 327.375 391.519531 326.820312 C 390.359375 326.265625 389.28125 325.46875 388.367188 324.519531 C 387.539062 323.644531 386.710938 322.535156 386.214844 321.425781 C 385.632812 320.316406 385.300781 319.046875 385.136719 317.855469 C 385.054688 316.585938 385.136719 315.316406 385.386719 314.050781 C 385.632812 312.859375 386.132812 311.667969 386.792969 310.558594 C 387.457031 309.527344 388.367188 308.496094 389.363281 307.703125 C 390.359375 306.910156 391.519531 306.277344 392.761719 305.800781 C 393.921875 305.324219 395.25 305.085938 396.574219 305.007812 C 397.816406 304.925781 399.226562 305.085938 400.46875 305.402344 C 401.714844 305.722656 402.957031 306.277344 404.035156 306.988281 C 405.113281 307.703125 406.105469 308.578125 406.851562 309.605469 C 407.597656 310.558594 408.261719 311.75 408.675781 312.859375 C 409.089844 314.050781 409.339844 315.316406 409.339844 316.585938 C 409.339844 317.855469 409.089844 319.125 408.675781 320.316406 C 408.261719 321.425781 407.597656 322.617188 406.851562 323.566406 C 406.023438 324.597656 405.027344 325.46875 403.949219 326.183594 C 402.957031 326.898438 401.628906 327.453125 400.46875 327.769531 C 399.226562 328.089844 397.816406 328.246094 396.492188 328.167969 C 395.25 328.089844 393.921875 327.769531 392.679688 327.375 C 391.519531 326.898438 390.359375 326.183594 389.363281 325.390625 C 388.367188 324.597656 387.457031 323.566406 386.792969 322.535156 C 386.132812 321.503906 385.632812 320.234375 385.386719 319.046875 C 385.054688 317.855469 385.054688 316.507812 385.136719 315.316406 C 385.300781 314.050781 385.632812 312.78125 386.214844 311.667969 C 386.792969 310.558594 388.203125 308.496094 388.453125 308.578125 C 388.785156 308.8125 385.800781 318.964844 385.300781 318.964844 C 385.136719 318.886719 385.054688 317.0625 385.136719 316.109375 C 385.136719 315.238281 385.21875 314.367188 385.550781 313.414062 C 386.046875 311.988281 387.457031 309.765625 388.453125 308.578125 C 389.199219 307.78125 389.695312 307.308594 390.691406 306.832031 C 392.097656 306.039062 394.335938 305.164062 396.160156 305.007812 C 398.066406 304.847656 400.386719 305.402344 401.878906 305.878906 C 402.957031 306.277344 403.621094 306.59375 404.449219 307.308594 C 405.691406 308.257812 407.347656 310.242188 408.09375 311.589844 C 408.675781 312.542969 408.757812 313.019531 409.089844 314.207031 C 409.671875 316.667969 410.332031 321.742188 410.417969 325.390625 C 410.582031 328.722656 409.835938 331.261719 409.835938 335.148438 C 409.835938 340.699219 410.25 347.203125 411.160156 355.53125 C 412.570312 368.855469 421.6875 397.570312 419.035156 407.484375 C 417.710938 412.164062 415.222656 415.496094 411.824219 416.605469 C 407.597656 417.875 399.558594 415.496094 394.75 411.6875 C 388.367188 406.53125 385.300781 393.367188 380.164062 384.480469 C 375.191406 375.679688 368.644531 364.496094 364.5 358.464844 C 362.09375 355.054688 361.101562 353.945312 358.363281 350.691406 C 353.308594 344.746094 340.046875 333.003906 335.820312 326.582031 C 333.582031 323.089844 332.339844 319.761719 331.925781 317.617188 C 331.757812 316.429688 331.925781 315.953125 332.171875 314.921875 C 332.589844 313.574219 333.664062 311.273438 334.578125 310.164062 C 335.242188 309.289062 335.65625 308.894531 336.566406 308.257812 C 337.808594 307.464844 340.214844 306.515625 341.707031 306.195312 C 342.699219 306.039062 343.445312 305.957031 344.441406 306.117188 C 346.015625 306.355469 348.417969 307.148438 349.746094 307.78125 C 350.65625 308.339844 351.238281 308.734375 351.898438 309.527344 C 352.894531 310.636719 353.890625 312.066406 354.636719 314.128906 C 355.960938 317.378906 356.789062 321.820312 357.535156 327.929688 C 359.027344 339.429688 358.863281 364.257812 360.1875 378.296875 C 361.183594 388.527344 364.664062 398.996094 363.835938 404.628906 C 363.339844 407.5625 362.425781 409.386719 360.769531 410.894531 C 359.195312 412.402344 356.457031 413.589844 354.222656 413.671875 C 351.984375 413.828125 349.082031 412.957031 347.339844 411.609375 C 345.601562 410.261719 343.613281 405.660156 343.613281 405.660156 " clip-rule="nonzero"/></clipPath><clipPath id="54dde2c6ce"><path d="M 431.746094 306.429688 L 517.261719 306.429688 L 517.261719 329.542969 L 431.746094 329.542969 Z M 431.746094 306.429688 " clip-rule="nonzero"/></clipPath><clipPath id="3c3121be5d"><path d="M 441.558594 308.960938 C 507.835938 306.429688 508.164062 306.347656 509.46875 306.917969 C 511.1875 307.65625 513.964844 309.699219 515.191406 311.167969 C 516.089844 312.230469 516.496094 313.128906 516.742188 314.4375 C 517.152344 316.316406 517.234375 319.503906 516.417969 321.628906 C 515.597656 323.671875 513.800781 325.878906 511.839844 327.105469 C 509.960938 328.25 506.773438 328.738281 504.894531 328.65625 C 503.503906 328.65625 502.605469 328.410156 501.378906 327.757812 C 499.664062 326.859375 497.210938 324.488281 496.148438 322.855469 C 495.414062 321.710938 495.085938 320.8125 494.921875 319.503906 C 494.757812 317.542969 495.003906 314.4375 496.066406 312.394531 C 497.046875 310.433594 499.171875 308.390625 501.132812 307.410156 C 503.175781 306.429688 506.363281 306.347656 508.242188 306.59375 C 509.632812 306.753906 510.613281 307.328125 511.675781 307.898438 C 512.65625 308.472656 513.636719 309.125 514.453125 310.1875 C 515.597656 311.742188 516.988281 314.601562 517.152344 316.808594 C 517.316406 319.09375 516.253906 322.039062 515.273438 323.753906 C 514.617188 324.980469 513.964844 325.632812 512.820312 326.367188 C 511.269531 327.429688 509.226562 328.167969 506.121094 328.738281 C 499.746094 329.882812 486.832031 329.3125 476.617188 329.394531 C 465.421875 329.394531 447.769531 329.636719 441.558594 328.820312 C 439.269531 328.492188 438.371094 328.574219 436.980469 327.675781 C 435.183594 326.613281 433.058594 324.488281 432.242188 322.363281 C 431.507812 320.320312 431.667969 317.296875 432.242188 315.335938 C 432.730469 313.785156 433.632812 312.476562 434.9375 311.414062 C 436.574219 310.1875 441.558594 308.960938 441.558594 308.960938 " clip-rule="nonzero"/></clipPath><clipPath id="e7b308f1d3"><path d="M 461.757812 314.035156 L 486.175781 314.035156 L 486.175781 415.191406 L 461.757812 415.191406 Z M 461.757812 314.035156 " clip-rule="nonzero"/></clipPath><clipPath id="c1bcacefe6"><path d="M 485.523438 324.164062 C 486.015625 376.792969 486.914062 399.675781 484.136719 407.355469 C 482.992188 410.460938 481.683594 411.851562 479.722656 413.160156 C 477.84375 414.382812 474.738281 415.039062 472.859375 415.039062 C 471.46875 415.121094 470.488281 414.875 469.261719 414.304688 C 467.546875 413.402344 464.929688 411.523438 463.785156 409.5625 C 462.5625 407.683594 461.988281 404.824219 462.234375 402.535156 C 462.480469 400.328125 464.03125 397.550781 465.257812 395.996094 C 466.074219 394.933594 466.890625 394.363281 468.117188 393.789062 C 469.914062 393.054688 473.019531 392.320312 475.226562 392.644531 C 477.515625 393.054688 480.050781 394.363281 481.601562 395.996094 C 483.15625 397.714844 484.382812 400.328125 484.625 402.535156 C 484.871094 404.824219 483.972656 407.847656 483.074219 409.5625 C 482.5 410.871094 481.847656 411.605469 480.703125 412.421875 C 479.152344 413.484375 475.964844 414.792969 474.003906 415.039062 C 472.695312 415.203125 471.714844 415.121094 470.40625 414.628906 C 468.609375 413.976562 465.828125 412.421875 464.441406 410.625 C 463.050781 408.828125 462.5625 406.703125 462.152344 403.761719 C 461.417969 398.777344 462.234375 389.867188 462.644531 383.003906 C 463.050781 376.136719 464.195312 370.5 464.6875 362.410156 C 465.339844 351.210938 463.296875 329.066406 465.667969 321.792969 C 466.648438 318.769531 467.871094 317.132812 469.753906 315.910156 C 471.550781 314.683594 474.410156 313.945312 476.699219 314.191406 C 478.90625 314.4375 481.519531 315.828125 482.992188 317.542969 C 484.460938 319.175781 485.523438 324.164062 485.523438 324.164062 " clip-rule="nonzero"/></clipPath><clipPath id="0e1b2e7083"><path d="M 430.558594 391.535156 L 524.949219 391.535156 L 524.949219 416.722656 L 430.558594 416.722656 Z M 430.558594 391.535156 " clip-rule="nonzero"/></clipPath><clipPath id="d6ecb7edfe"><path d="M 440.578125 395.589844 C 495.414062 393.953125 501.625 392.238281 507.101562 391.910156 C 511.023438 391.664062 514.78125 391.5 517.152344 392.074219 C 518.542969 392.402344 519.359375 392.808594 520.421875 393.707031 C 521.808594 395.015625 523.851562 397.46875 524.507812 399.59375 C 525.078125 401.800781 524.996094 404.660156 524.179688 406.785156 C 523.363281 408.910156 521.566406 411.117188 519.601562 412.339844 C 517.640625 413.484375 514.535156 413.976562 512.65625 413.976562 C 511.269531 413.894531 510.285156 413.648438 509.144531 412.996094 C 507.425781 412.097656 504.894531 409.726562 503.832031 408.171875 C 503.09375 407.027344 502.769531 406.046875 502.605469 404.742188 C 502.441406 402.78125 502.6875 399.675781 503.667969 397.632812 C 504.730469 395.589844 506.773438 393.625 508.816406 392.644531 C 510.859375 391.664062 514.046875 391.5 516.007812 391.746094 C 517.316406 391.910156 518.214844 392.238281 519.359375 393.054688 C 520.910156 394.199219 523.199219 396.730469 524.097656 398.449219 C 524.671875 399.675781 524.914062 400.65625 524.914062 402.042969 C 524.914062 403.921875 524.015625 407.273438 523.035156 408.910156 C 522.382812 410.132812 521.726562 410.871094 520.585938 411.605469 C 519.03125 412.667969 516.90625 413.320312 513.800781 413.976562 C 507.917969 415.285156 497.128906 416.101562 486.914062 416.425781 C 473.59375 416.917969 448.015625 416.589844 440.578125 415.609375 C 438.207031 415.285156 437.390625 415.363281 435.917969 414.464844 C 434.203125 413.402344 431.996094 411.277344 431.261719 409.152344 C 430.445312 407.109375 430.445312 404.167969 431.261719 402.042969 C 431.996094 400 434.203125 397.792969 435.917969 396.8125 C 437.390625 395.914062 440.578125 395.589844 440.578125 395.589844 " clip-rule="nonzero"/></clipPath><clipPath id="cd166c4549"><path d="M 531.195312 306.007812 L 619.445312 306.007812 L 619.445312 418.425781 L 531.195312 418.425781 Z M 531.195312 306.007812 " clip-rule="nonzero"/></clipPath><clipPath id="76931bd564"><path d="M 543.269531 406.902344 C 536.886719 368.753906 536.386719 344.480469 534.730469 332.980469 C 533.738281 326.792969 531.582031 322.429688 531.582031 318.863281 C 531.582031 316.640625 532.160156 314.976562 532.742188 313.628906 C 533.15625 312.675781 533.488281 312.121094 534.234375 311.40625 C 535.226562 310.296875 537.300781 308.867188 538.625 308.234375 C 539.621094 307.757812 540.285156 307.597656 541.363281 307.441406 C 542.855469 307.359375 545.175781 307.359375 546.832031 307.917969 C 548.574219 308.472656 550.480469 309.742188 551.554688 310.773438 C 552.300781 311.484375 552.714844 311.960938 553.214844 312.914062 C 553.878906 314.183594 553.628906 316.402344 554.707031 317.988281 C 556.28125 320.210938 559.925781 321.480469 562.996094 324.175781 C 567.636719 328.300781 573.933594 334.566406 579.074219 341.070312 C 585.125 348.605469 590.925781 358.28125 596.398438 367.324219 C 601.949219 376.445312 613.71875 390.246094 611.980469 395.640625 C 610.984375 398.8125 604.683594 398.65625 601.785156 400.875 C 598.964844 403.015625 596.726562 409.042969 594.738281 408.488281 C 590.347656 407.21875 588.523438 375.019531 586.863281 359.234375 C 585.371094 344.796875 584.460938 323.066406 584.792969 317.355469 C 584.875 315.925781 584.875 315.609375 585.207031 314.65625 C 585.703125 313.230469 586.78125 311.089844 588.109375 309.820312 C 589.351562 308.550781 591.507812 307.441406 593 306.804688 C 593.992188 306.410156 594.738281 306.328125 595.816406 306.25 C 597.390625 306.25 600.042969 306.648438 601.535156 307.125 C 602.613281 307.519531 603.359375 307.996094 604.105469 308.550781 C 604.851562 309.105469 605.597656 309.582031 606.175781 310.453125 C 607.171875 311.722656 608.746094 313.390625 608.746094 315.453125 C 608.746094 318.703125 604.769531 326.160156 602.53125 328.0625 C 601.371094 329.09375 600.042969 329.09375 598.800781 329.253906 C 597.558594 329.492188 596.148438 329.492188 594.90625 329.253906 C 593.578125 329.09375 592.335938 328.617188 591.175781 328.0625 C 590.015625 327.507812 588.9375 326.714844 588.023438 325.761719 C 587.195312 324.890625 586.367188 323.78125 585.871094 322.667969 C 585.289062 321.558594 584.957031 320.289062 584.792969 319.101562 C 584.710938 317.832031 584.792969 316.5625 585.042969 315.292969 C 585.289062 314.101562 585.789062 312.914062 586.449219 311.800781 C 587.113281 310.773438 588.023438 309.742188 589.019531 308.949219 C 590.015625 308.152344 591.175781 307.519531 592.417969 307.042969 C 593.578125 306.566406 594.90625 306.328125 596.230469 306.25 C 597.472656 306.171875 598.882812 306.328125 600.125 306.648438 C 601.371094 306.964844 602.613281 307.519531 603.691406 308.234375 C 604.769531 308.949219 605.761719 309.820312 606.507812 310.851562 C 607.253906 311.800781 607.917969 312.992188 608.332031 314.101562 C 608.746094 315.292969 608.996094 316.5625 608.996094 317.832031 C 608.996094 319.101562 608.746094 320.367188 608.332031 321.558594 C 607.917969 322.667969 607.253906 323.859375 606.507812 324.8125 C 605.679688 325.839844 604.683594 326.714844 603.609375 327.429688 C 602.613281 328.140625 601.285156 328.695312 600.125 329.015625 C 598.882812 329.332031 597.472656 329.492188 596.148438 329.410156 C 594.90625 329.332031 593.578125 329.015625 592.335938 328.617188 C 591.175781 328.140625 590.015625 327.429688 589.019531 326.636719 C 588.023438 325.839844 587.113281 324.8125 586.449219 323.78125 C 585.789062 322.75 585.289062 321.480469 585.042969 320.289062 C 584.710938 319.101562 584.710938 317.75 584.792969 316.5625 C 584.957031 315.292969 585.289062 314.023438 585.871094 312.914062 C 586.449219 311.800781 587.859375 309.742188 588.109375 309.820312 C 588.441406 310.058594 585.457031 320.210938 584.957031 320.210938 C 584.792969 320.132812 584.710938 318.308594 584.792969 317.355469 C 584.792969 316.484375 584.875 315.609375 585.207031 314.65625 C 585.703125 313.230469 587.113281 311.007812 588.109375 309.820312 C 588.855469 309.027344 589.351562 308.550781 590.347656 308.074219 C 591.753906 307.28125 593.992188 306.410156 595.816406 306.25 C 597.722656 306.09375 600.042969 306.648438 601.535156 307.125 C 602.613281 307.519531 603.277344 307.835938 604.105469 308.550781 C 605.347656 309.503906 607.003906 311.484375 607.75 312.832031 C 608.332031 313.785156 608.414062 314.261719 608.746094 315.453125 C 609.328125 317.910156 609.988281 322.988281 610.074219 326.636719 C 610.238281 329.964844 609.492188 332.503906 609.492188 336.390625 C 609.492188 341.941406 609.90625 348.445312 610.816406 356.773438 C 612.226562 370.101562 621.34375 398.8125 618.691406 408.726562 C 617.367188 413.40625 614.878906 416.738281 611.480469 417.847656 C 607.253906 419.117188 599.214844 416.738281 594.40625 412.929688 C 588.023438 407.777344 584.957031 394.609375 579.820312 385.726562 C 574.847656 376.921875 568.300781 365.738281 564.15625 359.710938 C 561.75 356.300781 560.757812 355.1875 558.019531 351.9375 C 552.964844 345.988281 539.703125 334.25 535.476562 327.824219 C 533.238281 324.335938 531.996094 321.003906 531.582031 318.863281 C 531.414062 317.671875 531.582031 317.195312 531.828125 316.164062 C 532.246094 314.816406 533.320312 312.515625 534.234375 311.40625 C 534.898438 310.535156 535.3125 310.136719 536.222656 309.503906 C 537.464844 308.710938 539.871094 307.757812 541.363281 307.441406 C 542.355469 307.28125 543.101562 307.203125 544.097656 307.359375 C 545.671875 307.597656 548.074219 308.390625 549.402344 309.027344 C 550.3125 309.582031 550.894531 309.976562 551.554688 310.773438 C 552.550781 311.882812 553.546875 313.308594 554.292969 315.371094 C 555.617188 318.625 556.445312 323.066406 557.191406 329.171875 C 558.683594 340.675781 558.519531 365.5 559.84375 379.539062 C 560.839844 389.769531 564.320312 400.242188 563.492188 405.871094 C 562.996094 408.808594 562.082031 410.632812 560.425781 412.136719 C 558.851562 413.644531 556.113281 414.835938 553.878906 414.914062 C 551.640625 415.074219 548.738281 414.199219 546.996094 412.851562 C 545.257812 411.503906 543.269531 406.902344 543.269531 406.902344 " clip-rule="nonzero"/></clipPath><clipPath id="cacb7e6b3b"><path d="M 616.886719 304.871094 L 708.324219 304.871094 L 708.324219 415.65625 L 616.886719 415.65625 Z M 616.886719 304.871094 " clip-rule="nonzero"/></clipPath><clipPath id="1c3485d746"><path d="M 679.253906 329.644531 C 663.679688 325.808594 660.007812 325.320312 656.910156 326.300781 C 653.894531 327.277344 651.121094 329.074219 648.671875 332.007812 C 645.167969 336.167969 641.253906 345.300781 640.027344 350.683594 C 639.214844 354.433594 639.539062 357.207031 639.867188 360.550781 C 640.109375 364.058594 640.761719 367.726562 641.824219 371.070312 C 642.882812 374.332031 644.023438 377.675781 646.144531 380.285156 C 648.265625 382.976562 651.609375 385.261719 654.625 387.054688 C 657.644531 388.851562 660.90625 390.886719 664.167969 391.132812 C 667.429688 391.460938 671.589844 390.644531 674.199219 388.769531 C 676.726562 386.972656 678.113281 383.875 679.582031 380.285156 C 681.703125 375.066406 681.210938 360.796875 683.984375 359.898438 C 686.023438 359.246094 692.628906 365.609375 692.058594 367.074219 C 691.40625 369.03125 677.214844 368.378906 673.382812 368.136719 C 671.589844 368.054688 670.773438 367.890625 669.550781 367.484375 C 668.328125 367.074219 667.105469 366.503906 666.125 365.6875 C 665.148438 364.957031 664.167969 363.976562 663.433594 362.917969 C 662.699219 361.855469 662.128906 360.632812 661.804688 359.410156 C 661.476562 358.1875 661.3125 356.800781 661.394531 355.496094 C 661.476562 354.273438 661.722656 352.96875 662.210938 351.742188 C 662.699219 350.519531 663.433594 349.378906 664.25 348.398438 C 665.066406 347.421875 666.042969 346.605469 667.1875 345.871094 C 668.246094 345.21875 669.550781 344.730469 670.773438 344.484375 C 671.996094 344.160156 673.382812 344.160156 674.605469 344.242188 C 675.910156 344.402344 677.214844 344.730469 678.359375 345.300781 C 679.5 345.789062 680.640625 346.605469 681.621094 347.421875 C 682.515625 348.320312 683.332031 349.378906 683.902344 350.519531 C 684.554688 351.664062 684.964844 352.96875 685.207031 354.191406 C 685.371094 355.496094 685.371094 356.800781 685.207031 358.105469 C 684.964844 359.328125 684.554688 360.632812 683.984375 361.773438 C 683.332031 362.917969 682.515625 363.976562 681.621094 364.875 C 680.640625 365.6875 679.582031 366.503906 678.441406 366.992188 C 677.214844 367.566406 675.910156 367.890625 674.6875 368.054688 C 673.382812 368.21875 672.078125 368.136719 670.773438 367.890625 C 669.550781 367.566406 668.328125 367.074219 667.1875 366.421875 C 666.125 365.769531 665.066406 364.875 664.25 363.894531 C 663.433594 362.917969 662.699219 361.773438 662.210938 360.632812 C 661.804688 359.410156 661.476562 358.105469 661.394531 356.800781 C 661.3125 355.578125 661.476562 354.191406 661.804688 352.96875 C 662.128906 351.742188 662.699219 350.519531 663.433594 349.460938 C 664.167969 348.398438 665.066406 347.421875 666.125 346.605469 C 667.105469 345.871094 668.328125 345.21875 669.550781 344.8125 C 670.691406 344.402344 671.589844 344.402344 673.300781 344.160156 C 677.054688 343.832031 686.023438 343.179688 691.082031 343.507812 C 694.914062 343.75 698.421875 343.589844 701.109375 345.21875 C 703.800781 346.851562 706.25 349.949219 707.390625 353.046875 C 708.53125 356.230469 708.042969 359.980469 707.636719 364.222656 C 707.0625 369.929688 704.78125 378.65625 703.230469 384.121094 C 702.253906 387.871094 701.601562 390.644531 700.050781 393.660156 C 698.5 396.761719 696.21875 399.695312 693.933594 402.386719 C 691.652344 404.914062 689.125 407.445312 686.433594 409.320312 C 683.742188 411.277344 680.804688 412.988281 677.625 413.96875 C 674.363281 415.027344 670.53125 415.355469 667.105469 415.273438 C 663.761719 415.191406 660.5 414.457031 657.316406 413.722656 C 654.054688 412.90625 651.203125 412.335938 647.777344 410.542969 C 642.882812 408.015625 635.789062 402.144531 631.792969 398.390625 C 629.019531 395.699219 627.0625 393.660156 625.269531 390.96875 C 623.472656 388.117188 622.085938 385.507812 620.863281 381.835938 C 619.070312 376.453125 617.519531 367.238281 617.113281 361.613281 C 616.785156 357.695312 616.867188 354.84375 617.277344 351.5 C 617.683594 348.074219 618.089844 345.058594 619.476562 341.140625 C 621.355469 335.679688 625.921875 327.277344 628.9375 322.222656 C 631.058594 318.632812 632.609375 315.859375 635.054688 313.25 C 637.417969 310.722656 640.355469 308.195312 643.453125 306.808594 C 646.554688 305.503906 650.140625 305.339844 653.484375 305.097656 C 656.828125 304.851562 660.089844 305.097656 663.351562 305.339844 C 666.613281 305.585938 669.550781 305.75 673.058594 306.644531 C 677.542969 307.789062 684.800781 309.664062 687.980469 312.109375 C 690.183594 313.742188 691.570312 315.699219 692.140625 317.820312 C 692.628906 319.9375 692.386719 322.875 691.40625 324.75 C 690.429688 326.707031 688.308594 328.746094 686.269531 329.5625 C 684.230469 330.378906 679.253906 329.644531 679.253906 329.644531 " clip-rule="nonzero"/></clipPath><clipPath id="38b6822be6"><path d="M 718.214844 302.40625 L 742.863281 302.40625 L 742.863281 387.945312 L 718.214844 387.945312 Z M 718.214844 302.40625 " clip-rule="nonzero"/></clipPath><clipPath id="8d79d01afb"><path d="M 741.894531 312.9375 C 743.09375 360.832031 743.09375 375.054688 741.808594 379.9375 C 741.296875 381.738281 740.953125 382.25 740.011719 383.28125 C 738.726562 384.820312 736.15625 386.792969 733.839844 387.476562 C 731.613281 388.078125 728.617188 387.90625 726.472656 387.050781 C 724.246094 386.191406 722.019531 384.222656 720.820312 382.25 C 719.535156 380.195312 718.933594 377.28125 719.191406 374.96875 C 719.449219 372.65625 720.734375 369.914062 722.273438 368.199219 C 723.902344 366.574219 726.902344 365.203125 728.871094 364.773438 C 730.242188 364.429688 731.441406 364.515625 732.640625 364.773438 C 733.839844 364.945312 735.042969 365.203125 736.242188 365.972656 C 737.867188 367 740.351562 369.230469 741.296875 371.371094 C 742.324219 373.511719 742.667969 376.425781 742.152344 378.738281 C 741.636719 381.050781 739.667969 383.707031 738.296875 385.078125 C 737.269531 386.105469 736.410156 386.621094 735.042969 387.050781 C 733.15625 387.648438 729.902344 388.078125 727.671875 387.476562 C 725.359375 386.792969 722.875 385.164062 721.503906 383.28125 C 720.046875 381.394531 719.621094 379.851562 719.105469 376.253906 C 717.5625 365.460938 717.992188 320.480469 721.332031 310.367188 C 722.445312 307.027344 723.644531 305.65625 725.53125 304.285156 C 727.414062 303 730.414062 302.230469 732.726562 302.574219 C 734.957031 302.828125 737.695312 304.285156 739.238281 306 C 740.78125 307.714844 741.894531 312.9375 741.894531 312.9375 " clip-rule="nonzero"/></clipPath><clipPath id="a2dde43ab2"><path d="M 719.941406 395.726562 L 740.160156 395.726562 L 740.160156 416.371094 L 719.941406 416.371094 Z M 719.941406 395.726562 " clip-rule="nonzero"/></clipPath><clipPath id="14037998b9"><path d="M 740.097656 403.070312 C 740.097656 409.496094 739.324219 411.210938 738.382812 412.410156 C 737.355469 413.695312 735.898438 414.808594 734.441406 415.496094 C 732.984375 416.179688 731.1875 416.4375 729.644531 416.351562 C 728.015625 416.265625 726.300781 415.75 724.929688 414.894531 C 723.558594 414.125 722.273438 412.753906 721.417969 411.46875 C 720.648438 410.097656 720.046875 408.296875 719.960938 406.753906 C 719.875 405.128906 720.21875 403.328125 720.90625 401.871094 C 721.503906 400.414062 722.703125 398.957031 723.902344 398.015625 C 725.1875 397.074219 726.816406 396.304688 728.445312 395.960938 C 729.984375 395.703125 731.785156 395.789062 733.328125 396.304688 C 734.871094 396.730469 737.527344 398.875 737.527344 398.875 " clip-rule="nonzero"/></clipPath><clipPath id="71bc7a519e"><path d="M 515 113.722656 L 603 113.722656 L 603 226 L 515 226 Z M 515 113.722656 " clip-rule="nonzero"/></clipPath><clipPath id="8005193704"><path d="M 526.835938 214.617188 C 520.453125 176.46875 519.957031 152.195312 518.300781 140.695312 C 517.304688 134.507812 515.148438 130.148438 515.148438 126.578125 C 515.148438 124.355469 515.730469 122.691406 516.3125 121.34375 C 516.726562 120.390625 517.054688 119.835938 517.800781 119.121094 C 518.796875 118.011719 520.871094 116.582031 522.195312 115.949219 C 523.191406 115.472656 523.851562 115.316406 524.929688 115.15625 C 526.421875 115.078125 528.742188 115.078125 530.402344 115.632812 C 532.140625 116.1875 534.046875 117.457031 535.125 118.488281 C 535.871094 119.199219 536.285156 119.675781 536.78125 120.628906 C 537.445312 121.898438 537.199219 124.117188 538.273438 125.703125 C 539.851562 127.925781 543.496094 129.195312 546.5625 131.890625 C 551.203125 136.015625 557.503906 142.28125 562.644531 148.785156 C 568.691406 156.320312 574.496094 165.996094 579.964844 175.039062 C 585.519531 184.160156 597.289062 197.960938 595.546875 203.355469 C 594.554688 206.527344 588.253906 206.371094 585.351562 208.589844 C 582.535156 210.730469 580.296875 216.761719 578.308594 216.207031 C 573.914062 214.9375 572.089844 182.734375 570.433594 166.949219 C 568.941406 152.515625 568.03125 130.78125 568.363281 125.070312 C 568.445312 123.644531 568.445312 123.324219 568.777344 122.375 C 569.273438 120.945312 570.351562 118.804688 571.675781 117.535156 C 572.921875 116.265625 575.074219 115.15625 576.566406 114.519531 C 577.5625 114.125 578.308594 114.046875 579.386719 113.964844 C 580.960938 113.964844 583.613281 114.363281 585.105469 114.839844 C 586.183594 115.234375 586.925781 115.710938 587.671875 116.265625 C 588.417969 116.820312 589.164062 117.296875 589.746094 118.171875 C 590.742188 119.4375 592.316406 121.105469 592.316406 123.167969 C 592.316406 126.417969 588.335938 133.875 586.097656 135.777344 C 584.9375 136.808594 583.613281 136.808594 582.367188 136.96875 C 581.125 137.207031 579.71875 137.207031 578.472656 136.96875 C 577.148438 136.808594 575.902344 136.332031 574.742188 135.777344 C 573.582031 135.222656 572.507812 134.429688 571.59375 133.476562 C 570.765625 132.605469 569.9375 131.496094 569.4375 130.382812 C 568.859375 129.273438 568.527344 128.003906 568.363281 126.816406 C 568.277344 125.546875 568.363281 124.277344 568.609375 123.007812 C 568.859375 121.820312 569.355469 120.628906 570.019531 119.519531 C 570.683594 118.488281 571.59375 117.457031 572.589844 116.664062 C 573.582031 115.871094 574.742188 115.234375 575.988281 114.757812 C 577.148438 114.285156 578.472656 114.046875 579.800781 113.964844 C 581.042969 113.886719 582.453125 114.046875 583.695312 114.363281 C 584.9375 114.679688 586.183594 115.234375 587.257812 115.949219 C 588.335938 116.664062 589.332031 117.535156 590.078125 118.566406 C 590.824219 119.519531 591.488281 120.707031 591.902344 121.820312 C 592.316406 123.007812 592.5625 124.277344 592.5625 125.546875 C 592.5625 126.816406 592.316406 128.085938 591.902344 129.273438 C 591.488281 130.382812 590.824219 131.574219 590.078125 132.527344 C 589.25 133.558594 588.253906 134.429688 587.175781 135.144531 C 586.183594 135.859375 584.855469 136.414062 583.695312 136.730469 C 582.453125 137.046875 581.042969 137.207031 579.71875 137.125 C 578.472656 137.046875 577.148438 136.730469 575.902344 136.332031 C 574.742188 135.859375 573.582031 135.144531 572.589844 134.351562 C 571.59375 133.558594 570.683594 132.527344 570.019531 131.496094 C 569.355469 130.464844 568.859375 129.195312 568.609375 128.003906 C 568.277344 126.816406 568.277344 125.46875 568.363281 124.277344 C 568.527344 123.007812 568.859375 121.738281 569.4375 120.628906 C 570.019531 119.519531 571.429688 117.457031 571.675781 117.535156 C 572.007812 117.773438 569.023438 127.925781 568.527344 127.925781 C 568.363281 127.847656 568.277344 126.023438 568.363281 125.070312 C 568.363281 124.199219 568.445312 123.324219 568.777344 122.375 C 569.273438 120.945312 570.683594 118.726562 571.675781 117.535156 C 572.421875 116.742188 572.921875 116.265625 573.914062 115.789062 C 575.324219 114.996094 577.5625 114.125 579.386719 113.964844 C 581.292969 113.808594 583.613281 114.363281 585.105469 114.839844 C 586.183594 115.234375 586.84375 115.550781 587.671875 116.265625 C 588.917969 117.21875 590.574219 119.199219 591.320312 120.550781 C 591.902344 121.5 591.984375 121.976562 592.316406 123.167969 C 592.894531 125.625 593.558594 130.703125 593.640625 134.351562 C 593.808594 137.683594 593.0625 140.21875 593.0625 144.105469 C 593.0625 149.660156 593.476562 156.164062 594.386719 164.492188 C 595.796875 177.816406 604.914062 206.527344 602.261719 216.441406 C 600.933594 221.121094 598.449219 224.453125 595.050781 225.566406 C 590.824219 226.832031 582.785156 224.453125 577.976562 220.648438 C 571.59375 215.492188 568.527344 202.324219 563.390625 193.441406 C 558.414062 184.636719 551.867188 173.453125 547.722656 167.425781 C 545.320312 164.015625 544.324219 162.90625 541.589844 159.652344 C 536.535156 153.703125 523.273438 141.964844 519.046875 135.539062 C 516.808594 132.050781 515.566406 128.71875 515.148438 126.578125 C 514.984375 125.386719 515.148438 124.910156 515.398438 123.878906 C 515.8125 122.53125 516.890625 120.230469 517.800781 119.121094 C 518.464844 118.25 518.878906 117.851562 519.792969 117.21875 C 521.035156 116.425781 523.4375 115.472656 524.929688 115.15625 C 525.925781 114.996094 526.671875 114.917969 527.664062 115.078125 C 529.242188 115.316406 531.644531 116.109375 532.96875 116.742188 C 533.882812 117.296875 534.460938 117.695312 535.125 118.488281 C 536.121094 119.597656 537.113281 121.023438 537.859375 123.085938 C 539.1875 126.339844 540.015625 130.78125 540.761719 136.890625 C 542.253906 148.390625 542.085938 173.214844 543.414062 187.253906 C 544.410156 197.488281 547.890625 207.957031 547.0625 213.585938 C 546.5625 216.523438 545.652344 218.347656 543.992188 219.855469 C 542.417969 221.359375 539.683594 222.550781 537.445312 222.628906 C 535.207031 222.789062 532.308594 221.917969 530.566406 220.566406 C 528.824219 219.21875 526.835938 214.617188 526.835938 214.617188 " clip-rule="nonzero"/></clipPath><clipPath id="354e926460"><path d="M 674.839844 108.261719 L 766.574219 108.261719 L 766.574219 133.191406 L 674.839844 133.191406 Z M 674.839844 108.261719 " clip-rule="nonzero"/></clipPath><clipPath id="24eb36f306"><path d="M 685.304688 112.464844 C 721.015625 110.824219 734.871094 108.6875 743.820312 108.523438 C 749.84375 108.359375 755.523438 107.945312 759.226562 109.34375 C 761.804688 110.328125 763.699219 112.054688 764.90625 114.027344 C 766.109375 116 766.710938 118.792969 766.453125 121.09375 C 766.195312 123.3125 764.90625 125.945312 763.183594 127.585938 C 761.546875 129.230469 758.878906 130.546875 756.558594 130.875 C 754.148438 131.203125 750.964844 130.464844 749.15625 129.640625 C 747.78125 129.066406 747.003906 128.492188 746.144531 127.421875 C 744.855469 125.945312 743.390625 122.738281 743.046875 120.847656 C 742.789062 119.535156 742.789062 118.546875 743.21875 117.234375 C 743.90625 115.425781 745.371094 112.550781 747.175781 111.152344 C 748.984375 109.671875 752.167969 108.769531 754.234375 108.523438 C 755.609375 108.359375 756.644531 108.441406 758.019531 108.933594 C 759.914062 109.671875 762.839844 111.5625 764.214844 113.042969 C 765.164062 114.109375 765.59375 114.933594 765.9375 116.246094 C 766.367188 118.136719 766.625 121.34375 765.851562 123.476562 C 765.078125 125.613281 762.839844 127.917969 761.289062 129.148438 C 760.085938 129.96875 759.226562 130.382812 757.761719 130.628906 C 755.78125 130.957031 753.289062 130.136719 750.277344 130.21875 C 745.628906 130.300781 739.433594 131.449219 732.71875 131.859375 C 723.597656 132.4375 709.574219 132.929688 700.363281 132.929688 C 693.652344 132.929688 687.027344 133.585938 682.808594 132.269531 C 680.054688 131.449219 677.992188 129.886719 676.699219 128.246094 C 675.582031 126.929688 674.980469 125.449219 674.894531 123.726562 C 674.722656 121.671875 675.582031 118.546875 676.699219 116.820312 C 677.5625 115.425781 679.023438 114.355469 680.402344 113.617188 C 681.863281 112.960938 685.304688 112.464844 685.304688 112.464844 " clip-rule="nonzero"/></clipPath><clipPath id="750b1d98a3"><path d="M 711.015625 121.097656 L 736.402344 121.097656 L 736.402344 221.386719 L 711.015625 221.386719 Z M 711.015625 121.097656 " clip-rule="nonzero"/></clipPath><clipPath id="ba2dd46db9"><path d="M 732.980469 131.203125 C 734.269531 181.414062 736.59375 203.355469 736.335938 209.765625 C 736.164062 211.574219 736.25 212.066406 735.734375 213.378906 C 734.957031 215.1875 733.152344 217.902344 731.257812 219.214844 C 729.277344 220.53125 726.351562 221.351562 723.941406 221.269531 C 721.535156 221.1875 718.523438 219.789062 716.800781 218.640625 C 715.683594 217.902344 714.992188 217.160156 714.304688 215.929688 C 713.359375 214.121094 712.324219 211.078125 712.585938 208.859375 C 712.757812 206.558594 714.046875 203.929688 715.683594 202.203125 C 717.316406 200.5625 720.328125 199.246094 722.308594 198.753906 C 723.683594 198.34375 724.71875 198.34375 726.179688 198.671875 C 728.160156 199.082031 731.34375 200.726562 732.894531 201.957031 C 734.011719 202.863281 734.613281 203.929688 735.128906 205 C 735.644531 206.066406 736.164062 207.136719 736.25 208.53125 C 736.25 210.421875 735.90625 213.628906 734.699219 215.597656 C 733.496094 217.570312 731.171875 219.542969 728.933594 220.367188 C 726.78125 221.269531 723.683594 221.433594 721.363281 220.859375 C 719.039062 220.285156 716.457031 218.3125 715.078125 216.914062 C 714.046875 215.847656 713.703125 215.433594 713.1875 213.710938 C 711.378906 207.382812 711.378906 182.316406 711.207031 167.9375 C 711.035156 155.035156 711.035156 137.613281 711.980469 131.203125 C 712.238281 128.902344 712.414062 127.917969 713.1875 126.601562 C 713.875 125.203125 714.992188 123.808594 716.457031 122.984375 C 718.351562 121.917969 721.449219 121.011719 723.769531 121.257812 C 726.09375 121.507812 728.847656 122.902344 730.3125 124.546875 C 731.859375 126.273438 732.980469 131.203125 732.980469 131.203125 " clip-rule="nonzero"/></clipPath><clipPath id="9ed3f1377d"><path d="M 597.136719 113.121094 L 687.65625 113.121094 L 687.65625 223.632812 L 597.136719 223.632812 Z M 597.136719 113.121094 " clip-rule="nonzero"/></clipPath><clipPath id="744a001526"><path d="M 597.414062 179.25 C 598.320312 164.882812 599.640625 161.753906 600.460938 158.457031 C 601.367188 154.992188 601.863281 151.355469 603.015625 148.058594 C 604.085938 144.761719 605.40625 141.550781 607.136719 138.761719 C 608.867188 135.886719 611.253906 133.433594 613.480469 130.898438 C 615.785156 128.195312 618.175781 125.40625 620.8125 122.953125 C 623.449219 120.585938 626.25 117.964844 629.378906 116.359375 C 632.59375 114.753906 636.382812 113.910156 639.925781 113.484375 C 643.46875 112.980469 647.175781 113.230469 650.632812 113.65625 C 654.011719 114.078125 657.308594 114.839844 660.355469 116.023438 C 663.488281 117.207031 666.535156 118.726562 669.171875 120.839844 C 671.972656 123.121094 674.277344 126.589844 676.421875 129.546875 C 678.480469 132.421875 680.210938 135.125 681.777344 138.167969 C 683.257812 141.210938 684.578125 144.507812 685.566406 147.890625 C 686.472656 151.355469 686.964844 155.074219 687.296875 158.625 C 687.542969 162.175781 687.378906 165.726562 687.296875 169.359375 C 687.296875 173.082031 687.296875 177.054688 686.882812 180.773438 C 686.472656 184.324219 685.8125 187.875 684.742188 191.171875 C 683.671875 194.550781 682.269531 197.933594 680.539062 200.976562 C 678.808594 203.933594 676.832031 206.554688 674.445312 209.175781 C 671.890625 212.132812 668.757812 215.855469 665.464844 217.882812 C 662.496094 219.65625 657.0625 220.417969 655.742188 220.925781 C 655.414062 221.011719 655.332031 221.09375 655.164062 221.179688 C 655 221.265625 654.835938 221.179688 654.589844 221.265625 C 654.425781 221.265625 654.175781 221.433594 653.847656 221.515625 C 653.519531 221.515625 653.023438 221.433594 652.613281 221.515625 C 652.117188 221.515625 651.625 221.6875 651.292969 221.6875 C 651.046875 221.601562 650.882812 221.515625 650.632812 221.515625 C 650.386719 221.515625 650.222656 221.515625 649.976562 221.515625 C 649.644531 221.433594 648.90625 221.09375 648.738281 221.09375 C 648.738281 221.09375 648.738281 221.09375 648.65625 221.09375 C 648.492188 221.09375 647.75 221.855469 647.175781 222.195312 C 646.515625 222.53125 645.691406 222.871094 644.867188 223.039062 C 644.125 223.207031 642.480469 223.378906 642.480469 223.378906 C 642.480469 223.378906 640.171875 223.460938 638.523438 223.378906 C 635.96875 223.292969 631.6875 223.039062 628.390625 222.195312 C 625.179688 221.265625 621.800781 219.910156 619.082031 218.050781 C 616.363281 216.105469 614.054688 213.570312 611.996094 210.867188 C 609.855469 208.246094 608.042969 205.289062 606.3125 202.160156 C 604.417969 198.695312 602.6875 194.804688 601.203125 191.085938 C 599.722656 187.199219 597.414062 179.25 597.414062 179.25 M 620.5625 179.25 C 625.917969 192.269531 626.90625 195.820312 629.214844 198.015625 C 631.605469 200.382812 636.21875 202.074219 638.523438 202.667969 C 639.84375 202.921875 641.078125 203.003906 641.738281 202.667969 C 642.066406 202.496094 642.148438 202.242188 642.3125 201.992188 C 642.5625 201.652344 642.808594 201.0625 643.054688 200.808594 C 643.21875 200.636719 643.46875 200.554688 643.550781 200.382812 C 643.714844 200.300781 643.796875 200.046875 644.042969 199.878906 C 644.289062 199.707031 644.785156 199.453125 645.113281 199.199219 C 645.445312 198.949219 645.855469 198.609375 646.1875 198.355469 C 646.351562 198.269531 646.597656 198.269531 646.761719 198.1875 C 647.007812 198.101562 647.09375 197.933594 647.339844 197.847656 C 647.667969 197.679688 648.164062 197.679688 648.574219 197.511719 C 649.070312 197.425781 649.8125 197.085938 649.8125 197.085938 C 649.8125 197.085938 655.578125 193.285156 657.71875 190.664062 C 659.777344 188.042969 661.425781 184.746094 662.414062 181.535156 C 663.402344 178.238281 663.238281 174.6875 663.402344 171.136719 C 663.570312 167.332031 663.816406 163.191406 663.320312 159.472656 C 662.828125 156.003906 661.921875 152.539062 660.519531 149.410156 C 659.203125 146.367188 657.636719 142.902344 655.164062 140.875 C 652.695312 138.929688 648.738281 137.578125 645.527344 137.578125 C 642.3125 137.660156 638.855469 139.4375 636.050781 141.296875 C 633.25 143.15625 630.699219 145.863281 628.71875 148.652344 C 626.660156 151.523438 625.179688 154.90625 623.941406 158.289062 C 622.707031 161.585938 621.800781 165.050781 621.222656 168.515625 C 620.648438 172.066406 620.5625 179.25 620.5625 179.25 " clip-rule="nonzero"/></clipPath></defs><g clip-path="url(#98b01e8212)"><g clip-path="url(#e2c14e6e9c)"><path fill="#1e1e1e" d="M 34.800781 110.105469 L 128.261719 110.105469 L 128.261719 140.351562 L 34.800781 140.351562 Z M 34.800781 110.105469 " fill-opacity="1" fill-rule="nonzero"/></g></g><g clip-path="url(#fdc3a2305b)"><g clip-path="url(#551f8d78bd)"><path fill="#1e1e1e" d="M 65.382812 118.125 L 96.71875 118.125 L 96.71875 228.042969 L 65.382812 228.042969 Z M 65.382812 118.125 " fill-opacity="1" fill-rule="nonzero"/></g></g><g clip-path="url(#985041080a)"><g clip-path="url(#7816ffd2c9)"><path fill="#1e1e1e" d="M 33.796875 197.421875 L 136.308594 197.421875 L 136.308594 229.425781 L 33.796875 229.425781 Z M 33.796875 197.421875 " fill-opacity="1" fill-rule="nonzero"/></g></g><g clip-path="url(#9484b4ceb4)"><g clip-path="url(#6ab61a1cc6)"><path fill="#1e1e1e" d="M 366.289062 105.234375 L 466.863281 105.234375 L 466.863281 224.664062 L 366.289062 224.664062 Z M 366.289062 105.234375 " fill-opacity="1" fill-rule="nonzero"/></g></g><g clip-path="url(#d388eec0e2)"><g clip-path="url(#c90e9a5807)"><path fill="#1e1e1e" d="M 129.570312 110.105469 L 227.960938 110.105469 L 227.960938 141.085938 L 129.570312 141.085938 Z M 129.570312 110.105469 " fill-opacity="1" fill-rule="nonzero"/></g></g><g clip-path="url(#602c666017)"><g clip-path="url(#96a1eed4b5)"><path fill="#1e1e1e" d="M 165.886719 122.84375 L 197.898438 122.84375 L 197.898438 229.378906 L 165.886719 229.378906 Z M 165.886719 122.84375 " fill-opacity="1" fill-rule="nonzero"/></g></g><g clip-path="url(#f81f8ee04a)"><g clip-path="url(#ca0da2aeb6)"><path fill="#1e1e1e" d="M 278.347656 107.519531 L 371.8125 107.519531 L 371.8125 137.769531 L 278.347656 137.769531 Z M 278.347656 107.519531 " fill-opacity="1" fill-rule="nonzero"/></g></g><g clip-path="url(#2df9b2d2e6)"><g clip-path="url(#b3214c49d3)"><path fill="#1e1e1e" d="M 308.929688 115.542969 L 340.265625 115.542969 L 340.265625 225.457031 L 308.929688 225.457031 Z M 308.929688 115.542969 " fill-opacity="1" fill-rule="nonzero"/></g></g><g clip-path="url(#6a08bc3246)"><g clip-path="url(#123c7f7fc9)"><path fill="#1e1e1e" d="M 277.347656 194.839844 L 379.855469 194.839844 L 379.855469 226.84375 L 277.347656 226.84375 Z M 277.347656 194.839844 " fill-opacity="1" fill-rule="nonzero"/></g></g><g clip-path="url(#06838938df)"><g clip-path="url(#633386c836)"><path fill="#1e1e1e" d="M 33.796875 301.835938 L 123.257812 301.835938 L 123.257812 419.949219 L 33.796875 419.949219 Z M 33.796875 301.835938 " fill-opacity="1" fill-rule="nonzero"/></g></g><g clip-path="url(#5f27ce73f1)"><g clip-path="url(#42847d19c9)"><path fill="#1e1e1e" d="M 123.257812 301.835938 L 238.792969 301.835938 L 238.792969 419.625 L 123.257812 419.625 Z M 123.257812 301.835938 " fill-opacity="1" fill-rule="nonzero"/></g></g><g clip-path="url(#340cb11eab)"><g clip-path="url(#44ac239a80)"><path fill="#1e1e1e" d="M 149.066406 363.476562 L 211.152344 363.476562 L 211.152344 393.523438 L 149.066406 393.523438 Z M 149.066406 363.476562 " fill-opacity="1" fill-rule="nonzero"/></g></g><g clip-path="url(#c26e21a3f4)"><g clip-path="url(#2128ec0fb7)"><path fill="#1e1e1e" d="M 239.773438 301.835938 L 331.179688 301.835938 L 331.179688 331.417969 L 239.773438 331.417969 Z M 239.773438 301.835938 " fill-opacity="1" fill-rule="nonzero"/></g></g><g clip-path="url(#9e3d4d31b2)"><g clip-path="url(#a6e16d2198)"><path fill="#1e1e1e" d="M 269.683594 309.679688 L 300.328125 309.679688 L 300.328125 417.179688 L 269.683594 417.179688 Z M 269.683594 309.679688 " fill-opacity="1" fill-rule="nonzero"/></g></g><g clip-path="url(#9e1ef91276)"><g clip-path="url(#0424568671)"><path fill="#1e1e1e" d="M 238.792969 387.234375 L 339.046875 387.234375 L 339.046875 418.535156 L 238.792969 418.535156 Z M 238.792969 387.234375 " fill-opacity="1" fill-rule="nonzero"/></g></g><g clip-path="url(#66c424bb25)"><g clip-path="url(#2e3d1db490)"><path fill="#1e1e1e" d="M 328.609375 301.835938 L 422.351562 301.835938 L 422.351562 419.742188 L 328.609375 419.742188 Z M 328.609375 301.835938 " fill-opacity="1" fill-rule="nonzero"/></g></g><g clip-path="url(#54dde2c6ce)"><g clip-path="url(#3c3121be5d)"><path fill="#1e1e1e" d="M 428.972656 303.078125 L 520.382812 303.078125 L 520.382812 332.660156 L 428.972656 332.660156 Z M 428.972656 303.078125 " fill-opacity="1" fill-rule="nonzero"/></g></g><g clip-path="url(#e7b308f1d3)"><g clip-path="url(#c1bcacefe6)"><path fill="#1e1e1e" d="M 458.882812 310.921875 L 489.53125 310.921875 L 489.53125 418.425781 L 458.882812 418.425781 Z M 458.882812 310.921875 " fill-opacity="1" fill-rule="nonzero"/></g></g><g clip-path="url(#0e1b2e7083)"><g clip-path="url(#d6ecb7edfe)"><path fill="#1e1e1e" d="M 427.992188 388.476562 L 528.25 388.476562 L 528.25 419.777344 L 427.992188 419.777344 Z M 427.992188 388.476562 " fill-opacity="1" fill-rule="nonzero"/></g></g><g clip-path="url(#cd166c4549)"><g clip-path="url(#76931bd564)"><path fill="#1e1e1e" d="M 528.265625 303.078125 L 622.007812 303.078125 L 622.007812 420.988281 L 528.265625 420.988281 Z M 528.265625 303.078125 " fill-opacity="1" fill-rule="nonzero"/></g></g><g clip-path="url(#cacb7e6b3b)"><g clip-path="url(#1c3485d746)"><path fill="#1e1e1e" d="M 613.851562 301.835938 L 710.980469 301.835938 L 710.980469 418.691406 L 613.851562 418.691406 Z M 613.851562 301.835938 " fill-opacity="1" fill-rule="nonzero"/></g></g><g clip-path="url(#38b6822be6)"><g clip-path="url(#8d79d01afb)"><path fill="#1e1e1e" d="M 715.679688 299.144531 L 746.609375 299.144531 L 746.609375 390.964844 L 715.679688 390.964844 Z M 715.679688 299.144531 " fill-opacity="1" fill-rule="nonzero"/></g></g><g clip-path="url(#a2dde43ab2)"><g clip-path="url(#14037998b9)"><path fill="#1e1e1e" d="M 716.535156 392.53125 L 743.78125 392.53125 L 743.78125 419.777344 L 716.535156 419.777344 Z M 716.535156 392.53125 " fill-opacity="1" fill-rule="nonzero"/></g></g><g clip-path="url(#71bc7a519e)"><g clip-path="url(#8005193704)"><path fill="#1e1e1e" d="M 511.835938 110.792969 L 605.578125 110.792969 L 605.578125 228.703125 L 511.835938 228.703125 Z M 511.835938 110.792969 " fill-opacity="1" fill-rule="nonzero"/></g></g><g clip-path="url(#354e926460)"><g clip-path="url(#24eb36f306)"><path fill="#1e1e1e" d="M 671.449219 105.234375 L 769.839844 105.234375 L 769.839844 136.214844 L 671.449219 136.214844 Z M 671.449219 105.234375 " fill-opacity="1" fill-rule="nonzero"/></g></g><g clip-path="url(#750b1d98a3)"><g clip-path="url(#ba2dd46db9)"><path fill="#1e1e1e" d="M 707.765625 117.972656 L 739.777344 117.972656 L 739.777344 224.511719 L 707.765625 224.511719 Z M 707.765625 117.972656 " fill-opacity="1" fill-rule="nonzero"/></g></g><g clip-path="url(#9ed3f1377d)"><g clip-path="url(#744a001526)"><path fill="#1e1e1e" d="M 594.117188 110.105469 L 690.671875 110.105469 L 690.671875 227.027344 L 594.117188 227.027344 Z M 594.117188 110.105469 " fill-opacity="1" fill-rule="nonzero"/></g></g></svg>